<?xml version="1.0" encoding="utf-8" standalone="no"?>
<!DOCTYPE svg PUBLIC "-//W3C//DTD SVG 1.1//EN"
  "http://www.w3.org/Graphics/SVG/1.1/DTD/svg11.dtd">
<svg xmlns:xlink="http://www.w3.org/1999/xlink" width="404.923125pt" height="326.466375pt" viewBox="0 0 404.923125 326.466375" xmlns="http://www.w3.org/2000/svg" version="1.1">
 <metadata>
  <rdf:RDF xmlns:dc="http://purl.org/dc/elements/1.1/" xmlns:cc="http://creativecommons.org/ns#" xmlns:rdf="http://www.w3.org/1999/02/22-rdf-syntax-ns#">
   <cc:Work>
    <dc:type rdf:resource="http://purl.org/dc/dcmitype/StillImage"/>
    <dc:date>2024-10-24T19:28:52.296889</dc:date>
    <dc:format>image/svg+xml</dc:format>
    <dc:creator>
     <cc:Agent>
      <dc:title>Matplotlib v3.7.1, https://matplotlib.org/</dc:title>
     </cc:Agent>
    </dc:creator>
   </cc:Work>
  </rdf:RDF>
 </metadata>
 <defs>
  <style type="text/css">*{stroke-linejoin: round; stroke-linecap: butt}</style>
 </defs>
 <g id="figure_1">
  <g id="patch_1">
   <path d="M 0 326.466375 
L 404.923125 326.466375 
L 404.923125 0 
L 0 0 
z
" style="fill: #ffffff"/>
  </g>
  <g id="axes_1">
   <g id="patch_2">
    <path d="M 40.603125 288.910125 
L 397.723125 288.910125 
L 397.723125 22.798125 
L 40.603125 22.798125 
z
" style="fill: #ffffff"/>
   </g>
   <g id="matplotlib.axis_1">
    <g id="xtick_1">
     <g id="line2d_1">
      <defs>
       <path id="m0464ee429f" d="M 0 0 
L 0 3.5 
" style="stroke: #000000; stroke-width: 0.8"/>
      </defs>
      <g>
       <use xlink:href="#m0464ee429f" x="56.835852" y="288.910125" style="stroke: #000000; stroke-width: 0.8"/>
      </g>
     </g>
     <g id="text_1">
      <!-- 0 -->
      <g transform="translate(53.654602 303.508562) scale(0.1 -0.1)">
       <defs>
        <path id="DejaVuSans-30" d="M 2034 4250 
Q 1547 4250 1301 3770 
Q 1056 3291 1056 2328 
Q 1056 1369 1301 889 
Q 1547 409 2034 409 
Q 2525 409 2770 889 
Q 3016 1369 3016 2328 
Q 3016 3291 2770 3770 
Q 2525 4250 2034 4250 
z
M 2034 4750 
Q 2819 4750 3233 4129 
Q 3647 3509 3647 2328 
Q 3647 1150 3233 529 
Q 2819 -91 2034 -91 
Q 1250 -91 836 529 
Q 422 1150 422 2328 
Q 422 3509 836 4129 
Q 1250 4750 2034 4750 
z
" transform="scale(0.015625)"/>
       </defs>
       <use xlink:href="#DejaVuSans-30"/>
      </g>
     </g>
    </g>
    <g id="xtick_2">
     <g id="line2d_2">
      <g>
       <use xlink:href="#m0464ee429f" x="121.766761" y="288.910125" style="stroke: #000000; stroke-width: 0.8"/>
      </g>
     </g>
     <g id="text_2">
      <!-- 2 -->
      <g transform="translate(118.585511 303.508562) scale(0.1 -0.1)">
       <defs>
        <path id="DejaVuSans-32" d="M 1228 531 
L 3431 531 
L 3431 0 
L 469 0 
L 469 531 
Q 828 903 1448 1529 
Q 2069 2156 2228 2338 
Q 2531 2678 2651 2914 
Q 2772 3150 2772 3378 
Q 2772 3750 2511 3984 
Q 2250 4219 1831 4219 
Q 1534 4219 1204 4116 
Q 875 4013 500 3803 
L 500 4441 
Q 881 4594 1212 4672 
Q 1544 4750 1819 4750 
Q 2544 4750 2975 4387 
Q 3406 4025 3406 3419 
Q 3406 3131 3298 2873 
Q 3191 2616 2906 2266 
Q 2828 2175 2409 1742 
Q 1991 1309 1228 531 
z
" transform="scale(0.015625)"/>
       </defs>
       <use xlink:href="#DejaVuSans-32"/>
      </g>
     </g>
    </g>
    <g id="xtick_3">
     <g id="line2d_3">
      <g>
       <use xlink:href="#m0464ee429f" x="186.69767" y="288.910125" style="stroke: #000000; stroke-width: 0.8"/>
      </g>
     </g>
     <g id="text_3">
      <!-- 4 -->
      <g transform="translate(183.51642 303.508562) scale(0.1 -0.1)">
       <defs>
        <path id="DejaVuSans-34" d="M 2419 4116 
L 825 1625 
L 2419 1625 
L 2419 4116 
z
M 2253 4666 
L 3047 4666 
L 3047 1625 
L 3713 1625 
L 3713 1100 
L 3047 1100 
L 3047 0 
L 2419 0 
L 2419 1100 
L 313 1100 
L 313 1709 
L 2253 4666 
z
" transform="scale(0.015625)"/>
       </defs>
       <use xlink:href="#DejaVuSans-34"/>
      </g>
     </g>
    </g>
    <g id="xtick_4">
     <g id="line2d_4">
      <g>
       <use xlink:href="#m0464ee429f" x="251.62858" y="288.910125" style="stroke: #000000; stroke-width: 0.8"/>
      </g>
     </g>
     <g id="text_4">
      <!-- 6 -->
      <g transform="translate(248.44733 303.508562) scale(0.1 -0.1)">
       <defs>
        <path id="DejaVuSans-36" d="M 2113 2584 
Q 1688 2584 1439 2293 
Q 1191 2003 1191 1497 
Q 1191 994 1439 701 
Q 1688 409 2113 409 
Q 2538 409 2786 701 
Q 3034 994 3034 1497 
Q 3034 2003 2786 2293 
Q 2538 2584 2113 2584 
z
M 3366 4563 
L 3366 3988 
Q 3128 4100 2886 4159 
Q 2644 4219 2406 4219 
Q 1781 4219 1451 3797 
Q 1122 3375 1075 2522 
Q 1259 2794 1537 2939 
Q 1816 3084 2150 3084 
Q 2853 3084 3261 2657 
Q 3669 2231 3669 1497 
Q 3669 778 3244 343 
Q 2819 -91 2113 -91 
Q 1303 -91 875 529 
Q 447 1150 447 2328 
Q 447 3434 972 4092 
Q 1497 4750 2381 4750 
Q 2619 4750 2861 4703 
Q 3103 4656 3366 4563 
z
" transform="scale(0.015625)"/>
       </defs>
       <use xlink:href="#DejaVuSans-36"/>
      </g>
     </g>
    </g>
    <g id="xtick_5">
     <g id="line2d_5">
      <g>
       <use xlink:href="#m0464ee429f" x="316.559489" y="288.910125" style="stroke: #000000; stroke-width: 0.8"/>
      </g>
     </g>
     <g id="text_5">
      <!-- 8 -->
      <g transform="translate(313.378239 303.508562) scale(0.1 -0.1)">
       <defs>
        <path id="DejaVuSans-38" d="M 2034 2216 
Q 1584 2216 1326 1975 
Q 1069 1734 1069 1313 
Q 1069 891 1326 650 
Q 1584 409 2034 409 
Q 2484 409 2743 651 
Q 3003 894 3003 1313 
Q 3003 1734 2745 1975 
Q 2488 2216 2034 2216 
z
M 1403 2484 
Q 997 2584 770 2862 
Q 544 3141 544 3541 
Q 544 4100 942 4425 
Q 1341 4750 2034 4750 
Q 2731 4750 3128 4425 
Q 3525 4100 3525 3541 
Q 3525 3141 3298 2862 
Q 3072 2584 2669 2484 
Q 3125 2378 3379 2068 
Q 3634 1759 3634 1313 
Q 3634 634 3220 271 
Q 2806 -91 2034 -91 
Q 1263 -91 848 271 
Q 434 634 434 1313 
Q 434 1759 690 2068 
Q 947 2378 1403 2484 
z
M 1172 3481 
Q 1172 3119 1398 2916 
Q 1625 2713 2034 2713 
Q 2441 2713 2670 2916 
Q 2900 3119 2900 3481 
Q 2900 3844 2670 4047 
Q 2441 4250 2034 4250 
Q 1625 4250 1398 4047 
Q 1172 3844 1172 3481 
z
" transform="scale(0.015625)"/>
       </defs>
       <use xlink:href="#DejaVuSans-38"/>
      </g>
     </g>
    </g>
    <g id="xtick_6">
     <g id="line2d_6">
      <g>
       <use xlink:href="#m0464ee429f" x="381.490398" y="288.910125" style="stroke: #000000; stroke-width: 0.8"/>
      </g>
     </g>
     <g id="text_6">
      <!-- 10 -->
      <g transform="translate(375.127898 303.508562) scale(0.1 -0.1)">
       <defs>
        <path id="DejaVuSans-31" d="M 794 531 
L 1825 531 
L 1825 4091 
L 703 3866 
L 703 4441 
L 1819 4666 
L 2450 4666 
L 2450 531 
L 3481 531 
L 3481 0 
L 794 0 
L 794 531 
z
" transform="scale(0.015625)"/>
       </defs>
       <use xlink:href="#DejaVuSans-31"/>
       <use xlink:href="#DejaVuSans-30" x="63.623047"/>
      </g>
     </g>
    </g>
    <g id="text_7">
     <!-- CORRENTE (A) -->
     <g transform="translate(182.763125 317.186687) scale(0.1 -0.1)">
      <defs>
       <path id="DejaVuSans-43" d="M 4122 4306 
L 4122 3641 
Q 3803 3938 3442 4084 
Q 3081 4231 2675 4231 
Q 1875 4231 1450 3742 
Q 1025 3253 1025 2328 
Q 1025 1406 1450 917 
Q 1875 428 2675 428 
Q 3081 428 3442 575 
Q 3803 722 4122 1019 
L 4122 359 
Q 3791 134 3420 21 
Q 3050 -91 2638 -91 
Q 1578 -91 968 557 
Q 359 1206 359 2328 
Q 359 3453 968 4101 
Q 1578 4750 2638 4750 
Q 3056 4750 3426 4639 
Q 3797 4528 4122 4306 
z
" transform="scale(0.015625)"/>
       <path id="DejaVuSans-4f" d="M 2522 4238 
Q 1834 4238 1429 3725 
Q 1025 3213 1025 2328 
Q 1025 1447 1429 934 
Q 1834 422 2522 422 
Q 3209 422 3611 934 
Q 4013 1447 4013 2328 
Q 4013 3213 3611 3725 
Q 3209 4238 2522 4238 
z
M 2522 4750 
Q 3503 4750 4090 4092 
Q 4678 3434 4678 2328 
Q 4678 1225 4090 567 
Q 3503 -91 2522 -91 
Q 1538 -91 948 565 
Q 359 1222 359 2328 
Q 359 3434 948 4092 
Q 1538 4750 2522 4750 
z
" transform="scale(0.015625)"/>
       <path id="DejaVuSans-52" d="M 2841 2188 
Q 3044 2119 3236 1894 
Q 3428 1669 3622 1275 
L 4263 0 
L 3584 0 
L 2988 1197 
Q 2756 1666 2539 1819 
Q 2322 1972 1947 1972 
L 1259 1972 
L 1259 0 
L 628 0 
L 628 4666 
L 2053 4666 
Q 2853 4666 3247 4331 
Q 3641 3997 3641 3322 
Q 3641 2881 3436 2590 
Q 3231 2300 2841 2188 
z
M 1259 4147 
L 1259 2491 
L 2053 2491 
Q 2509 2491 2742 2702 
Q 2975 2913 2975 3322 
Q 2975 3731 2742 3939 
Q 2509 4147 2053 4147 
L 1259 4147 
z
" transform="scale(0.015625)"/>
       <path id="DejaVuSans-45" d="M 628 4666 
L 3578 4666 
L 3578 4134 
L 1259 4134 
L 1259 2753 
L 3481 2753 
L 3481 2222 
L 1259 2222 
L 1259 531 
L 3634 531 
L 3634 0 
L 628 0 
L 628 4666 
z
" transform="scale(0.015625)"/>
       <path id="DejaVuSans-4e" d="M 628 4666 
L 1478 4666 
L 3547 763 
L 3547 4666 
L 4159 4666 
L 4159 0 
L 3309 0 
L 1241 3903 
L 1241 0 
L 628 0 
L 628 4666 
z
" transform="scale(0.015625)"/>
       <path id="DejaVuSans-54" d="M -19 4666 
L 3928 4666 
L 3928 4134 
L 2272 4134 
L 2272 0 
L 1638 0 
L 1638 4134 
L -19 4134 
L -19 4666 
z
" transform="scale(0.015625)"/>
       <path id="DejaVuSans-20" transform="scale(0.015625)"/>
       <path id="DejaVuSans-28" d="M 1984 4856 
Q 1566 4138 1362 3434 
Q 1159 2731 1159 2009 
Q 1159 1288 1364 580 
Q 1569 -128 1984 -844 
L 1484 -844 
Q 1016 -109 783 600 
Q 550 1309 550 2009 
Q 550 2706 781 3412 
Q 1013 4119 1484 4856 
L 1984 4856 
z
" transform="scale(0.015625)"/>
       <path id="DejaVuSans-41" d="M 2188 4044 
L 1331 1722 
L 3047 1722 
L 2188 4044 
z
M 1831 4666 
L 2547 4666 
L 4325 0 
L 3669 0 
L 3244 1197 
L 1141 1197 
L 716 0 
L 50 0 
L 1831 4666 
z
" transform="scale(0.015625)"/>
       <path id="DejaVuSans-29" d="M 513 4856 
L 1013 4856 
Q 1481 4119 1714 3412 
Q 1947 2706 1947 2009 
Q 1947 1309 1714 600 
Q 1481 -109 1013 -844 
L 513 -844 
Q 928 -128 1133 580 
Q 1338 1288 1338 2009 
Q 1338 2731 1133 3434 
Q 928 4138 513 4856 
z
" transform="scale(0.015625)"/>
      </defs>
      <use xlink:href="#DejaVuSans-43"/>
      <use xlink:href="#DejaVuSans-4f" x="69.824219"/>
      <use xlink:href="#DejaVuSans-52" x="148.535156"/>
      <use xlink:href="#DejaVuSans-52" x="218.017578"/>
      <use xlink:href="#DejaVuSans-45" x="287.5"/>
      <use xlink:href="#DejaVuSans-4e" x="350.683594"/>
      <use xlink:href="#DejaVuSans-54" x="425.488281"/>
      <use xlink:href="#DejaVuSans-45" x="486.572266"/>
      <use xlink:href="#DejaVuSans-20" x="549.755859"/>
      <use xlink:href="#DejaVuSans-28" x="581.542969"/>
      <use xlink:href="#DejaVuSans-41" x="620.556641"/>
      <use xlink:href="#DejaVuSans-29" x="688.964844"/>
     </g>
    </g>
   </g>
   <g id="matplotlib.axis_2">
    <g id="ytick_1">
     <g id="line2d_7">
      <defs>
       <path id="mdc3b3b3713" d="M 0 0 
L -3.5 0 
" style="stroke: #000000; stroke-width: 0.8"/>
      </defs>
      <g>
       <use xlink:href="#mdc3b3b3713" x="40.603125" y="251.972421" style="stroke: #000000; stroke-width: 0.8"/>
      </g>
     </g>
     <g id="text_8">
      <!-- 5 -->
      <g transform="translate(27.240625 255.77164) scale(0.1 -0.1)">
       <defs>
        <path id="DejaVuSans-35" d="M 691 4666 
L 3169 4666 
L 3169 4134 
L 1269 4134 
L 1269 2991 
Q 1406 3038 1543 3061 
Q 1681 3084 1819 3084 
Q 2600 3084 3056 2656 
Q 3513 2228 3513 1497 
Q 3513 744 3044 326 
Q 2575 -91 1722 -91 
Q 1428 -91 1123 -41 
Q 819 9 494 109 
L 494 744 
Q 775 591 1075 516 
Q 1375 441 1709 441 
Q 2250 441 2565 725 
Q 2881 1009 2881 1497 
Q 2881 1984 2565 2268 
Q 2250 2553 1709 2553 
Q 1456 2553 1204 2497 
Q 953 2441 691 2322 
L 691 4666 
z
" transform="scale(0.015625)"/>
       </defs>
       <use xlink:href="#DejaVuSans-35"/>
      </g>
     </g>
    </g>
    <g id="ytick_2">
     <g id="line2d_8">
      <g>
       <use xlink:href="#mdc3b3b3713" x="40.603125" y="195.559142" style="stroke: #000000; stroke-width: 0.8"/>
      </g>
     </g>
     <g id="text_9">
      <!-- 10 -->
      <g transform="translate(20.878125 199.358361) scale(0.1 -0.1)">
       <use xlink:href="#DejaVuSans-31"/>
       <use xlink:href="#DejaVuSans-30" x="63.623047"/>
      </g>
     </g>
    </g>
    <g id="ytick_3">
     <g id="line2d_9">
      <g>
       <use xlink:href="#mdc3b3b3713" x="40.603125" y="139.145864" style="stroke: #000000; stroke-width: 0.8"/>
      </g>
     </g>
     <g id="text_10">
      <!-- 15 -->
      <g transform="translate(20.878125 142.945082) scale(0.1 -0.1)">
       <use xlink:href="#DejaVuSans-31"/>
       <use xlink:href="#DejaVuSans-35" x="63.623047"/>
      </g>
     </g>
    </g>
    <g id="ytick_4">
     <g id="line2d_10">
      <g>
       <use xlink:href="#mdc3b3b3713" x="40.603125" y="82.732585" style="stroke: #000000; stroke-width: 0.8"/>
      </g>
     </g>
     <g id="text_11">
      <!-- 20 -->
      <g transform="translate(20.878125 86.531804) scale(0.1 -0.1)">
       <use xlink:href="#DejaVuSans-32"/>
       <use xlink:href="#DejaVuSans-30" x="63.623047"/>
      </g>
     </g>
    </g>
    <g id="ytick_5">
     <g id="line2d_11">
      <g>
       <use xlink:href="#mdc3b3b3713" x="40.603125" y="26.319307" style="stroke: #000000; stroke-width: 0.8"/>
      </g>
     </g>
     <g id="text_12">
      <!-- 25 -->
      <g transform="translate(20.878125 30.118525) scale(0.1 -0.1)">
       <use xlink:href="#DejaVuSans-32"/>
       <use xlink:href="#DejaVuSans-35" x="63.623047"/>
      </g>
     </g>
    </g>
    <g id="text_13">
     <!-- TENSÃO -->
     <g transform="translate(14.798438 176.34475) rotate(-90) scale(0.1 -0.1)">
      <defs>
       <path id="DejaVuSans-53" d="M 3425 4513 
L 3425 3897 
Q 3066 4069 2747 4153 
Q 2428 4238 2131 4238 
Q 1616 4238 1336 4038 
Q 1056 3838 1056 3469 
Q 1056 3159 1242 3001 
Q 1428 2844 1947 2747 
L 2328 2669 
Q 3034 2534 3370 2195 
Q 3706 1856 3706 1288 
Q 3706 609 3251 259 
Q 2797 -91 1919 -91 
Q 1588 -91 1214 -16 
Q 841 59 441 206 
L 441 856 
Q 825 641 1194 531 
Q 1563 422 1919 422 
Q 2459 422 2753 634 
Q 3047 847 3047 1241 
Q 3047 1584 2836 1778 
Q 2625 1972 2144 2069 
L 1759 2144 
Q 1053 2284 737 2584 
Q 422 2884 422 3419 
Q 422 4038 858 4394 
Q 1294 4750 2059 4750 
Q 2388 4750 2728 4690 
Q 3069 4631 3425 4513 
z
" transform="scale(0.015625)"/>
       <path id="DejaVuSans-c3" d="M 2188 4044 
L 1331 1722 
L 3047 1722 
L 2188 4044 
z
M 1831 4666 
L 2547 4666 
L 4325 0 
L 3669 0 
L 3244 1197 
L 1141 1197 
L 716 0 
L 50 0 
L 1831 4666 
z
M 2172 5330 
L 1993 5433 
Q 1915 5477 1866 5494 
Q 1818 5511 1781 5511 
Q 1668 5511 1605 5433 
Q 1543 5355 1543 5215 
L 1543 5196 
L 1153 5196 
Q 1153 5511 1314 5695 
Q 1475 5880 1743 5880 
Q 1856 5880 1951 5855 
Q 2047 5830 2197 5746 
L 2375 5652 
Q 2447 5611 2500 5592 
Q 2553 5574 2600 5574 
Q 2700 5574 2762 5653 
Q 2825 5733 2825 5861 
L 2825 5880 
L 3215 5880 
Q 3209 5568 3048 5382 
Q 2887 5196 2625 5196 
Q 2518 5196 2426 5221 
Q 2334 5246 2172 5330 
z
" transform="scale(0.015625)"/>
      </defs>
      <use xlink:href="#DejaVuSans-54"/>
      <use xlink:href="#DejaVuSans-45" x="61.083984"/>
      <use xlink:href="#DejaVuSans-4e" x="124.267578"/>
      <use xlink:href="#DejaVuSans-53" x="199.072266"/>
      <use xlink:href="#DejaVuSans-c3" x="264.423828"/>
      <use xlink:href="#DejaVuSans-4f" x="331.082031"/>
     </g>
    </g>
   </g>
   <g id="line2d_12">
    <path d="M 56.835852 276.814125 
L 60.731707 274.08045 
L 64.660027 271.323995 
L 68.555881 268.59032 
L 72.484201 265.833864 
L 76.380056 263.100189 
L 80.308376 260.343734 
L 84.20423 257.610059 
L 88.13255 254.853603 
L 92.028405 252.119928 
L 95.956725 249.363473 
L 99.85258 246.629798 
L 103.7809 243.873342 
L 107.676754 241.139667 
L 111.605074 238.383212 
L 115.500929 235.649537 
L 119.429249 232.893081 
L 123.325103 230.159406 
L 127.253423 227.402951 
L 131.149278 224.669276 
L 135.077598 221.91282 
L 138.973452 219.179145 
L 142.901772 216.42269 
L 146.797627 213.689015 
L 150.725947 210.932559 
L 154.621801 208.198884 
L 158.550121 205.442429 
L 162.445976 202.708754 
L 166.374296 199.952298 
L 170.27015 197.218623 
L 174.19847 194.462168 
L 178.094325 191.728493 
L 182.022645 188.972037 
L 185.9185 186.238362 
L 189.84682 183.481907 
L 193.742674 180.748232 
L 197.670994 177.991776 
L 201.566849 175.258101 
L 205.495169 172.501646 
L 209.391023 169.767971 
L 213.319343 167.011515 
L 217.215198 164.27784 
L 221.143518 161.521385 
L 225.039372 158.78771 
L 228.967692 156.031254 
L 232.863547 153.297579 
L 236.791867 150.541124 
L 240.687721 147.807449 
L 244.616041 145.050993 
L 248.511896 142.317318 
L 252.440216 139.560863 
L 256.33607 136.827188 
L 260.26439 134.070732 
L 264.160245 131.337057 
L 268.088565 128.580602 
L 271.98442 125.846927 
L 275.91274 123.090471 
L 279.808594 120.356796 
L 283.736914 117.600341 
L 287.632769 114.866666 
L 291.561089 112.11021 
L 295.456943 109.376535 
L 299.385263 106.62008 
L 303.281118 103.886405 
L 307.209438 101.129949 
L 311.105292 98.396274 
L 315.033612 95.639819 
L 318.929467 92.906144 
L 322.857787 90.149688 
L 326.753641 87.416013 
L 330.681961 84.659558 
L 334.577816 81.925883 
L 338.506136 79.169427 
L 342.40199 76.435752 
L 346.33031 73.679297 
L 350.226165 70.945622 
L 354.154485 68.189166 
L 358.05034 65.455491 
L 361.97866 62.699036 
L 365.874514 59.965361 
L 369.802834 57.208905 
L 373.698689 54.47523 
L 377.627009 51.718775 
L 381.490398 49.00788 
" clip-path="url(#p3ba1605ee9)" style="fill: none; stroke: #000000; stroke-width: 1.5; stroke-linecap: square"/>
   </g>
   <g id="line2d_13">
    <defs>
     <path id="m6f6d770dec" d="M 0 1.5 
C 0.397805 1.5 0.77937 1.341951 1.06066 1.06066 
C 1.341951 0.77937 1.5 0.397805 1.5 0 
C 1.5 -0.397805 1.341951 -0.77937 1.06066 -1.06066 
C 0.77937 -1.341951 0.397805 -1.5 0 -1.5 
C -0.397805 -1.5 -0.77937 -1.341951 -1.06066 -1.06066 
C -1.341951 -0.77937 -1.5 -0.397805 -1.5 0 
C -1.5 0.397805 -1.341951 0.77937 -1.06066 1.06066 
C -0.77937 1.341951 -0.397805 1.5 0 1.5 
z
" style="stroke: #1f77b4"/>
    </defs>
    <g clip-path="url(#p3ba1605ee9)">
     <use xlink:href="#m6f6d770dec" x="56.835852" y="268.896404" style="fill: #1f77b4; stroke: #1f77b4"/>
     <use xlink:href="#m6f6d770dec" x="60.731707" y="273.409467" style="fill: #1f77b4; stroke: #1f77b4"/>
     <use xlink:href="#m6f6d770dec" x="64.660027" y="261.788331" style="fill: #1f77b4; stroke: #1f77b4"/>
     <use xlink:href="#m6f6d770dec" x="68.555881" y="249.151757" style="fill: #1f77b4; stroke: #1f77b4"/>
     <use xlink:href="#m6f6d770dec" x="72.484201" y="266.301394" style="fill: #1f77b4; stroke: #1f77b4"/>
     <use xlink:href="#m6f6d770dec" x="76.380056" y="263.593556" style="fill: #1f77b4; stroke: #1f77b4"/>
     <use xlink:href="#m6f6d770dec" x="80.308376" y="240.464112" style="fill: #1f77b4; stroke: #1f77b4"/>
     <use xlink:href="#m6f6d770dec" x="84.20423" y="246.895226" style="fill: #1f77b4; stroke: #1f77b4"/>
     <use xlink:href="#m6f6d770dec" x="88.13255" y="258.065055" style="fill: #1f77b4; stroke: #1f77b4"/>
     <use xlink:href="#m6f6d770dec" x="92.028405" y="243.961735" style="fill: #1f77b4; stroke: #1f77b4"/>
     <use xlink:href="#m6f6d770dec" x="95.956725" y="252.536554" style="fill: #1f77b4; stroke: #1f77b4"/>
     <use xlink:href="#m6f6d770dec" x="99.85258" y="249.941543" style="fill: #1f77b4; stroke: #1f77b4"/>
     <use xlink:href="#m6f6d770dec" x="103.7809" y="239.22302" style="fill: #1f77b4; stroke: #1f77b4"/>
     <use xlink:href="#m6f6d770dec" x="107.676754" y="260.772892" style="fill: #1f77b4; stroke: #1f77b4"/>
     <use xlink:href="#m6f6d770dec" x="111.605074" y="255.92135" style="fill: #1f77b4; stroke: #1f77b4"/>
     <use xlink:href="#m6f6d770dec" x="115.500929" y="240.125632" style="fill: #1f77b4; stroke: #1f77b4"/>
     <use xlink:href="#m6f6d770dec" x="119.429249" y="242.49499" style="fill: #1f77b4; stroke: #1f77b4"/>
     <use xlink:href="#m6f6d770dec" x="123.325103" y="224.781221" style="fill: #1f77b4; stroke: #1f77b4"/>
     <use xlink:href="#m6f6d770dec" x="127.253423" y="235.838223" style="fill: #1f77b4; stroke: #1f77b4"/>
     <use xlink:href="#m6f6d770dec" x="131.149278" y="238.771714" style="fill: #1f77b4; stroke: #1f77b4"/>
     <use xlink:href="#m6f6d770dec" x="135.077598" y="203.682654" style="fill: #1f77b4; stroke: #1f77b4"/>
     <use xlink:href="#m6f6d770dec" x="138.973452" y="220.042505" style="fill: #1f77b4; stroke: #1f77b4"/>
     <use xlink:href="#m6f6d770dec" x="142.901772" y="213.949871" style="fill: #1f77b4; stroke: #1f77b4"/>
     <use xlink:href="#m6f6d770dec" x="146.797627" y="228.053191" style="fill: #1f77b4; stroke: #1f77b4"/>
     <use xlink:href="#m6f6d770dec" x="150.725947" y="215.416616" style="fill: #1f77b4; stroke: #1f77b4"/>
     <use xlink:href="#m6f6d770dec" x="154.621801" y="205.262226" style="fill: #1f77b4; stroke: #1f77b4"/>
     <use xlink:href="#m6f6d770dec" x="158.550121" y="216.883362" style="fill: #1f77b4; stroke: #1f77b4"/>
     <use xlink:href="#m6f6d770dec" x="162.445976" y="196.913061" style="fill: #1f77b4; stroke: #1f77b4"/>
     <use xlink:href="#m6f6d770dec" x="166.374296" y="205.1494" style="fill: #1f77b4; stroke: #1f77b4"/>
     <use xlink:href="#m6f6d770dec" x="170.27015" y="198.943939" style="fill: #1f77b4; stroke: #1f77b4"/>
     <use xlink:href="#m6f6d770dec" x="174.19847" y="199.733725" style="fill: #1f77b4; stroke: #1f77b4"/>
     <use xlink:href="#m6f6d770dec" x="178.094325" y="169.383381" style="fill: #1f77b4; stroke: #1f77b4"/>
     <use xlink:href="#m6f6d770dec" x="182.022645" y="187.661283" style="fill: #1f77b4; stroke: #1f77b4"/>
     <use xlink:href="#m6f6d770dec" x="185.9185" y="196.800234" style="fill: #1f77b4; stroke: #1f77b4"/>
     <use xlink:href="#m6f6d770dec" x="189.84682" y="172.768178" style="fill: #1f77b4; stroke: #1f77b4"/>
     <use xlink:href="#m6f6d770dec" x="193.742674" y="193.189785" style="fill: #1f77b4; stroke: #1f77b4"/>
     <use xlink:href="#m6f6d770dec" x="197.670994" y="174.34775" style="fill: #1f77b4; stroke: #1f77b4"/>
     <use xlink:href="#m6f6d770dec" x="201.566849" y="196.010448" style="fill: #1f77b4; stroke: #1f77b4"/>
     <use xlink:href="#m6f6d770dec" x="205.495169" y="186.194538" style="fill: #1f77b4; stroke: #1f77b4"/>
     <use xlink:href="#m6f6d770dec" x="209.391023" y="166.337064" style="fill: #1f77b4; stroke: #1f77b4"/>
     <use xlink:href="#m6f6d770dec" x="213.319343" y="157.423766" style="fill: #1f77b4; stroke: #1f77b4"/>
     <use xlink:href="#m6f6d770dec" x="217.215198" y="161.147042" style="fill: #1f77b4; stroke: #1f77b4"/>
     <use xlink:href="#m6f6d770dec" x="221.143518" y="161.711175" style="fill: #1f77b4; stroke: #1f77b4"/>
     <use xlink:href="#m6f6d770dec" x="225.039372" y="161.034216" style="fill: #1f77b4; stroke: #1f77b4"/>
     <use xlink:href="#m6f6d770dec" x="228.967692" y="171.639912" style="fill: #1f77b4; stroke: #1f77b4"/>
     <use xlink:href="#m6f6d770dec" x="232.863547" y="160.357256" style="fill: #1f77b4; stroke: #1f77b4"/>
     <use xlink:href="#m6f6d770dec" x="236.791867" y="154.715929" style="fill: #1f77b4; stroke: #1f77b4"/>
     <use xlink:href="#m6f6d770dec" x="240.687721" y="134.858455" style="fill: #1f77b4; stroke: #1f77b4"/>
     <use xlink:href="#m6f6d770dec" x="244.616041" y="140.161303" style="fill: #1f77b4; stroke: #1f77b4"/>
     <use xlink:href="#m6f6d770dec" x="248.511896" y="161.259869" style="fill: #1f77b4; stroke: #1f77b4"/>
     <use xlink:href="#m6f6d770dec" x="252.440216" y="134.971281" style="fill: #1f77b4; stroke: #1f77b4"/>
     <use xlink:href="#m6f6d770dec" x="256.33607" y="140.274129" style="fill: #1f77b4; stroke: #1f77b4"/>
     <use xlink:href="#m6f6d770dec" x="260.26439" y="140.838262" style="fill: #1f77b4; stroke: #1f77b4"/>
     <use xlink:href="#m6f6d770dec" x="264.160245" y="123.575799" style="fill: #1f77b4; stroke: #1f77b4"/>
     <use xlink:href="#m6f6d770dec" x="268.088565" y="116.129246" style="fill: #1f77b4; stroke: #1f77b4"/>
     <use xlink:href="#m6f6d770dec" x="271.98442" y="114.549674" style="fill: #1f77b4; stroke: #1f77b4"/>
     <use xlink:href="#m6f6d770dec" x="275.91274" y="131.812138" style="fill: #1f77b4; stroke: #1f77b4"/>
     <use xlink:href="#m6f6d770dec" x="279.808594" y="123.011666" style="fill: #1f77b4; stroke: #1f77b4"/>
     <use xlink:href="#m6f6d770dec" x="283.736914" y="113.082929" style="fill: #1f77b4; stroke: #1f77b4"/>
     <use xlink:href="#m6f6d770dec" x="287.632769" y="103.154192" style="fill: #1f77b4; stroke: #1f77b4"/>
     <use xlink:href="#m6f6d770dec" x="291.561089" y="116.806205" style="fill: #1f77b4; stroke: #1f77b4"/>
     <use xlink:href="#m6f6d770dec" x="295.456943" y="110.826398" style="fill: #1f77b4; stroke: #1f77b4"/>
     <use xlink:href="#m6f6d770dec" x="299.385263" y="118.498604" style="fill: #1f77b4; stroke: #1f77b4"/>
     <use xlink:href="#m6f6d770dec" x="303.281118" y="116.806205" style="fill: #1f77b4; stroke: #1f77b4"/>
     <use xlink:href="#m6f6d770dec" x="307.209438" y="91.42023" style="fill: #1f77b4; stroke: #1f77b4"/>
     <use xlink:href="#m6f6d770dec" x="311.105292" y="82.506932" style="fill: #1f77b4; stroke: #1f77b4"/>
     <use xlink:href="#m6f6d770dec" x="315.033612" y="95.933292" style="fill: #1f77b4; stroke: #1f77b4"/>
     <use xlink:href="#m6f6d770dec" x="318.929467" y="81.040187" style="fill: #1f77b4; stroke: #1f77b4"/>
     <use xlink:href="#m6f6d770dec" x="322.857787" y="85.553249" style="fill: #1f77b4; stroke: #1f77b4"/>
     <use xlink:href="#m6f6d770dec" x="326.753641" y="94.240894" style="fill: #1f77b4; stroke: #1f77b4"/>
     <use xlink:href="#m6f6d770dec" x="330.681961" y="80.137574" style="fill: #1f77b4; stroke: #1f77b4"/>
     <use xlink:href="#m6f6d770dec" x="334.577816" y="64.116203" style="fill: #1f77b4; stroke: #1f77b4"/>
     <use xlink:href="#m6f6d770dec" x="338.506136" y="79.234962" style="fill: #1f77b4; stroke: #1f77b4"/>
     <use xlink:href="#m6f6d770dec" x="342.40199" y="58.362049" style="fill: #1f77b4; stroke: #1f77b4"/>
     <use xlink:href="#m6f6d770dec" x="346.33031" y="102.928539" style="fill: #1f77b4; stroke: #1f77b4"/>
     <use xlink:href="#m6f6d770dec" x="350.226165" y="61.408366" style="fill: #1f77b4; stroke: #1f77b4"/>
     <use xlink:href="#m6f6d770dec" x="354.154485" y="66.936867" style="fill: #1f77b4; stroke: #1f77b4"/>
     <use xlink:href="#m6f6d770dec" x="358.05034" y="68.516439" style="fill: #1f77b4; stroke: #1f77b4"/>
     <use xlink:href="#m6f6d770dec" x="361.97866" y="61.408366" style="fill: #1f77b4; stroke: #1f77b4"/>
     <use xlink:href="#m6f6d770dec" x="365.874514" y="82.168452" style="fill: #1f77b4; stroke: #1f77b4"/>
     <use xlink:href="#m6f6d770dec" x="369.802834" y="59.490314" style="fill: #1f77b4; stroke: #1f77b4"/>
     <use xlink:href="#m6f6d770dec" x="373.698689" y="50.238537" style="fill: #1f77b4; stroke: #1f77b4"/>
     <use xlink:href="#m6f6d770dec" x="377.627009" y="34.894125" style="fill: #1f77b4; stroke: #1f77b4"/>
     <use xlink:href="#m6f6d770dec" x="381.490398" y="54.751599" style="fill: #1f77b4; stroke: #1f77b4"/>
    </g>
   </g>
   <g id="patch_3">
    <path d="M 40.603125 288.910125 
L 40.603125 22.798125 
" style="fill: none; stroke: #000000; stroke-width: 0.8; stroke-linejoin: miter; stroke-linecap: square"/>
   </g>
   <g id="patch_4">
    <path d="M 397.723125 288.910125 
L 397.723125 22.798125 
" style="fill: none; stroke: #000000; stroke-width: 0.8; stroke-linejoin: miter; stroke-linecap: square"/>
   </g>
   <g id="patch_5">
    <path d="M 40.603125 288.910125 
L 397.723125 288.910125 
" style="fill: none; stroke: #000000; stroke-width: 0.8; stroke-linejoin: miter; stroke-linecap: square"/>
   </g>
   <g id="patch_6">
    <path d="M 40.603125 22.798125 
L 397.723125 22.798125 
" style="fill: none; stroke: #000000; stroke-width: 0.8; stroke-linejoin: miter; stroke-linecap: square"/>
   </g>
   <g id="text_14">
    <!-- y = β1x + β0 + e -->
    <g transform="translate(219.163125 195.559142) scale(0.1 -0.1)">
     <defs>
      <path id="DejaVuSans-79" d="M 2059 -325 
Q 1816 -950 1584 -1140 
Q 1353 -1331 966 -1331 
L 506 -1331 
L 506 -850 
L 844 -850 
Q 1081 -850 1212 -737 
Q 1344 -625 1503 -206 
L 1606 56 
L 191 3500 
L 800 3500 
L 1894 763 
L 2988 3500 
L 3597 3500 
L 2059 -325 
z
" transform="scale(0.015625)"/>
      <path id="DejaVuSans-3d" d="M 678 2906 
L 4684 2906 
L 4684 2381 
L 678 2381 
L 678 2906 
z
M 678 1631 
L 4684 1631 
L 4684 1100 
L 678 1100 
L 678 1631 
z
" transform="scale(0.015625)"/>
      <path id="DejaVuSans-3b2" d="M 1178 216 
L 1178 -1331 
L 600 -1331 
L 600 3478 
Q 600 4903 1931 4903 
Q 3288 4903 3288 3700 
Q 3288 2844 2750 2531 
Q 3625 2250 3625 1416 
Q 3625 -66 2119 -66 
Q 1456 -66 1178 216 
z
M 1178 966 
Q 1525 425 2141 425 
Q 3041 425 3041 1406 
Q 3041 2288 1591 2219 
L 1591 2750 
Q 2725 2750 2725 3750 
Q 2725 4434 1994 4434 
Q 1178 4434 1178 3459 
L 1178 966 
z
" transform="scale(0.015625)"/>
      <path id="DejaVuSans-78" d="M 3513 3500 
L 2247 1797 
L 3578 0 
L 2900 0 
L 1881 1375 
L 863 0 
L 184 0 
L 1544 1831 
L 300 3500 
L 978 3500 
L 1906 2253 
L 2834 3500 
L 3513 3500 
z
" transform="scale(0.015625)"/>
      <path id="DejaVuSans-2b" d="M 2944 4013 
L 2944 2272 
L 4684 2272 
L 4684 1741 
L 2944 1741 
L 2944 0 
L 2419 0 
L 2419 1741 
L 678 1741 
L 678 2272 
L 2419 2272 
L 2419 4013 
L 2944 4013 
z
" transform="scale(0.015625)"/>
      <path id="DejaVuSans-65" d="M 3597 1894 
L 3597 1613 
L 953 1613 
Q 991 1019 1311 708 
Q 1631 397 2203 397 
Q 2534 397 2845 478 
Q 3156 559 3463 722 
L 3463 178 
Q 3153 47 2828 -22 
Q 2503 -91 2169 -91 
Q 1331 -91 842 396 
Q 353 884 353 1716 
Q 353 2575 817 3079 
Q 1281 3584 2069 3584 
Q 2775 3584 3186 3129 
Q 3597 2675 3597 1894 
z
M 3022 2063 
Q 3016 2534 2758 2815 
Q 2500 3097 2075 3097 
Q 1594 3097 1305 2825 
Q 1016 2553 972 2059 
L 3022 2063 
z
" transform="scale(0.015625)"/>
     </defs>
     <use xlink:href="#DejaVuSans-79"/>
     <use xlink:href="#DejaVuSans-20" x="59.179688"/>
     <use xlink:href="#DejaVuSans-3d" x="90.966797"/>
     <use xlink:href="#DejaVuSans-20" x="174.755859"/>
     <use xlink:href="#DejaVuSans-3b2" x="206.542969"/>
     <use xlink:href="#DejaVuSans-31" x="270.361328"/>
     <use xlink:href="#DejaVuSans-78" x="333.984375"/>
     <use xlink:href="#DejaVuSans-20" x="393.164062"/>
     <use xlink:href="#DejaVuSans-2b" x="424.951172"/>
     <use xlink:href="#DejaVuSans-20" x="508.740234"/>
     <use xlink:href="#DejaVuSans-3b2" x="540.527344"/>
     <use xlink:href="#DejaVuSans-30" x="604.345703"/>
     <use xlink:href="#DejaVuSans-20" x="667.96875"/>
     <use xlink:href="#DejaVuSans-2b" x="699.755859"/>
     <use xlink:href="#DejaVuSans-20" x="783.544922"/>
     <use xlink:href="#DejaVuSans-65" x="815.332031"/>
    </g>
   </g>
   <g id="text_15">
    <!-- β1 ≃ 2.019 e β0 ≃ 2.798 -->
    <g transform="translate(219.163125 212.483126) scale(0.1 -0.1)">
     <defs>
      <path id="DejaVuSans-2243" d="M 4684 3163 
L 4684 2606 
Q 4356 2359 4076 2251 
Q 3797 2144 3494 2144 
Q 3150 2144 2694 2328 
L 2641 2350 
Q 2622 2356 2575 2375 
Q 2091 2566 1797 2566 
Q 1522 2566 1253 2447 
Q 984 2328 678 2069 
L 678 2625 
Q 1006 2869 1286 2976 
Q 1566 3084 1869 3084 
Q 2213 3084 2672 2900 
L 2719 2881 
L 2788 2853 
Q 3272 2663 3566 2663 
Q 3834 2663 4098 2780 
Q 4363 2897 4684 3163 
z
M 678 1631 
L 4684 1631 
L 4684 1100 
L 678 1100 
L 678 1631 
z
" transform="scale(0.015625)"/>
      <path id="DejaVuSans-2e" d="M 684 794 
L 1344 794 
L 1344 0 
L 684 0 
L 684 794 
z
" transform="scale(0.015625)"/>
      <path id="DejaVuSans-39" d="M 703 97 
L 703 672 
Q 941 559 1184 500 
Q 1428 441 1663 441 
Q 2288 441 2617 861 
Q 2947 1281 2994 2138 
Q 2813 1869 2534 1725 
Q 2256 1581 1919 1581 
Q 1219 1581 811 2004 
Q 403 2428 403 3163 
Q 403 3881 828 4315 
Q 1253 4750 1959 4750 
Q 2769 4750 3195 4129 
Q 3622 3509 3622 2328 
Q 3622 1225 3098 567 
Q 2575 -91 1691 -91 
Q 1453 -91 1209 -44 
Q 966 3 703 97 
z
M 1959 2075 
Q 2384 2075 2632 2365 
Q 2881 2656 2881 3163 
Q 2881 3666 2632 3958 
Q 2384 4250 1959 4250 
Q 1534 4250 1286 3958 
Q 1038 3666 1038 3163 
Q 1038 2656 1286 2365 
Q 1534 2075 1959 2075 
z
" transform="scale(0.015625)"/>
      <path id="DejaVuSans-37" d="M 525 4666 
L 3525 4666 
L 3525 4397 
L 1831 0 
L 1172 0 
L 2766 4134 
L 525 4134 
L 525 4666 
z
" transform="scale(0.015625)"/>
     </defs>
     <use xlink:href="#DejaVuSans-3b2"/>
     <use xlink:href="#DejaVuSans-31" x="63.818359"/>
     <use xlink:href="#DejaVuSans-20" x="127.441406"/>
     <use xlink:href="#DejaVuSans-2243" x="159.228516"/>
     <use xlink:href="#DejaVuSans-20" x="243.017578"/>
     <use xlink:href="#DejaVuSans-32" x="274.804688"/>
     <use xlink:href="#DejaVuSans-2e" x="338.427734"/>
     <use xlink:href="#DejaVuSans-30" x="370.214844"/>
     <use xlink:href="#DejaVuSans-31" x="433.837891"/>
     <use xlink:href="#DejaVuSans-39" x="497.460938"/>
     <use xlink:href="#DejaVuSans-20" x="561.083984"/>
     <use xlink:href="#DejaVuSans-65" x="592.871094"/>
     <use xlink:href="#DejaVuSans-20" x="654.394531"/>
     <use xlink:href="#DejaVuSans-3b2" x="686.181641"/>
     <use xlink:href="#DejaVuSans-30" x="750"/>
     <use xlink:href="#DejaVuSans-20" x="813.623047"/>
     <use xlink:href="#DejaVuSans-2243" x="845.410156"/>
     <use xlink:href="#DejaVuSans-20" x="929.199219"/>
     <use xlink:href="#DejaVuSans-32" x="960.986328"/>
     <use xlink:href="#DejaVuSans-2e" x="1024.609375"/>
     <use xlink:href="#DejaVuSans-37" x="1056.396484"/>
     <use xlink:href="#DejaVuSans-39" x="1120.019531"/>
     <use xlink:href="#DejaVuSans-38" x="1183.642578"/>
    </g>
   </g>
   <g id="text_16">
    <!-- Método dos Mínimos Quadráticos Fig.2 -->
    <g transform="translate(103.116563 16.798125) scale(0.12 -0.12)">
     <defs>
      <path id="DejaVuSans-4d" d="M 628 4666 
L 1569 4666 
L 2759 1491 
L 3956 4666 
L 4897 4666 
L 4897 0 
L 4281 0 
L 4281 4097 
L 3078 897 
L 2444 897 
L 1241 4097 
L 1241 0 
L 628 0 
L 628 4666 
z
" transform="scale(0.015625)"/>
      <path id="DejaVuSans-e9" d="M 3597 1894 
L 3597 1613 
L 953 1613 
Q 991 1019 1311 708 
Q 1631 397 2203 397 
Q 2534 397 2845 478 
Q 3156 559 3463 722 
L 3463 178 
Q 3153 47 2828 -22 
Q 2503 -91 2169 -91 
Q 1331 -91 842 396 
Q 353 884 353 1716 
Q 353 2575 817 3079 
Q 1281 3584 2069 3584 
Q 2775 3584 3186 3129 
Q 3597 2675 3597 1894 
z
M 3022 2063 
Q 3016 2534 2758 2815 
Q 2500 3097 2075 3097 
Q 1594 3097 1305 2825 
Q 1016 2553 972 2059 
L 3022 2063 
z
M 2466 5119 
L 3088 5119 
L 2070 3944 
L 1591 3944 
L 2466 5119 
z
" transform="scale(0.015625)"/>
      <path id="DejaVuSans-74" d="M 1172 4494 
L 1172 3500 
L 2356 3500 
L 2356 3053 
L 1172 3053 
L 1172 1153 
Q 1172 725 1289 603 
Q 1406 481 1766 481 
L 2356 481 
L 2356 0 
L 1766 0 
Q 1100 0 847 248 
Q 594 497 594 1153 
L 594 3053 
L 172 3053 
L 172 3500 
L 594 3500 
L 594 4494 
L 1172 4494 
z
" transform="scale(0.015625)"/>
      <path id="DejaVuSans-6f" d="M 1959 3097 
Q 1497 3097 1228 2736 
Q 959 2375 959 1747 
Q 959 1119 1226 758 
Q 1494 397 1959 397 
Q 2419 397 2687 759 
Q 2956 1122 2956 1747 
Q 2956 2369 2687 2733 
Q 2419 3097 1959 3097 
z
M 1959 3584 
Q 2709 3584 3137 3096 
Q 3566 2609 3566 1747 
Q 3566 888 3137 398 
Q 2709 -91 1959 -91 
Q 1206 -91 779 398 
Q 353 888 353 1747 
Q 353 2609 779 3096 
Q 1206 3584 1959 3584 
z
" transform="scale(0.015625)"/>
      <path id="DejaVuSans-64" d="M 2906 2969 
L 2906 4863 
L 3481 4863 
L 3481 0 
L 2906 0 
L 2906 525 
Q 2725 213 2448 61 
Q 2172 -91 1784 -91 
Q 1150 -91 751 415 
Q 353 922 353 1747 
Q 353 2572 751 3078 
Q 1150 3584 1784 3584 
Q 2172 3584 2448 3432 
Q 2725 3281 2906 2969 
z
M 947 1747 
Q 947 1113 1208 752 
Q 1469 391 1925 391 
Q 2381 391 2643 752 
Q 2906 1113 2906 1747 
Q 2906 2381 2643 2742 
Q 2381 3103 1925 3103 
Q 1469 3103 1208 2742 
Q 947 2381 947 1747 
z
" transform="scale(0.015625)"/>
      <path id="DejaVuSans-73" d="M 2834 3397 
L 2834 2853 
Q 2591 2978 2328 3040 
Q 2066 3103 1784 3103 
Q 1356 3103 1142 2972 
Q 928 2841 928 2578 
Q 928 2378 1081 2264 
Q 1234 2150 1697 2047 
L 1894 2003 
Q 2506 1872 2764 1633 
Q 3022 1394 3022 966 
Q 3022 478 2636 193 
Q 2250 -91 1575 -91 
Q 1294 -91 989 -36 
Q 684 19 347 128 
L 347 722 
Q 666 556 975 473 
Q 1284 391 1588 391 
Q 1994 391 2212 530 
Q 2431 669 2431 922 
Q 2431 1156 2273 1281 
Q 2116 1406 1581 1522 
L 1381 1569 
Q 847 1681 609 1914 
Q 372 2147 372 2553 
Q 372 3047 722 3315 
Q 1072 3584 1716 3584 
Q 2034 3584 2315 3537 
Q 2597 3491 2834 3397 
z
" transform="scale(0.015625)"/>
      <path id="DejaVuSans-ed" d="M 1322 5119 
L 1944 5119 
L 926 3944 
L 447 3944 
L 1322 5119 
z
M 603 3500 
L 1178 3500 
L 1178 0 
L 603 0 
L 603 3500 
z
M 891 3584 
L 891 3584 
z
" transform="scale(0.015625)"/>
      <path id="DejaVuSans-6e" d="M 3513 2113 
L 3513 0 
L 2938 0 
L 2938 2094 
Q 2938 2591 2744 2837 
Q 2550 3084 2163 3084 
Q 1697 3084 1428 2787 
Q 1159 2491 1159 1978 
L 1159 0 
L 581 0 
L 581 3500 
L 1159 3500 
L 1159 2956 
Q 1366 3272 1645 3428 
Q 1925 3584 2291 3584 
Q 2894 3584 3203 3211 
Q 3513 2838 3513 2113 
z
" transform="scale(0.015625)"/>
      <path id="DejaVuSans-69" d="M 603 3500 
L 1178 3500 
L 1178 0 
L 603 0 
L 603 3500 
z
M 603 4863 
L 1178 4863 
L 1178 4134 
L 603 4134 
L 603 4863 
z
" transform="scale(0.015625)"/>
      <path id="DejaVuSans-6d" d="M 3328 2828 
Q 3544 3216 3844 3400 
Q 4144 3584 4550 3584 
Q 5097 3584 5394 3201 
Q 5691 2819 5691 2113 
L 5691 0 
L 5113 0 
L 5113 2094 
Q 5113 2597 4934 2840 
Q 4756 3084 4391 3084 
Q 3944 3084 3684 2787 
Q 3425 2491 3425 1978 
L 3425 0 
L 2847 0 
L 2847 2094 
Q 2847 2600 2669 2842 
Q 2491 3084 2119 3084 
Q 1678 3084 1418 2786 
Q 1159 2488 1159 1978 
L 1159 0 
L 581 0 
L 581 3500 
L 1159 3500 
L 1159 2956 
Q 1356 3278 1631 3431 
Q 1906 3584 2284 3584 
Q 2666 3584 2933 3390 
Q 3200 3197 3328 2828 
z
" transform="scale(0.015625)"/>
      <path id="DejaVuSans-51" d="M 2522 4238 
Q 1834 4238 1429 3725 
Q 1025 3213 1025 2328 
Q 1025 1447 1429 934 
Q 1834 422 2522 422 
Q 3209 422 3611 934 
Q 4013 1447 4013 2328 
Q 4013 3213 3611 3725 
Q 3209 4238 2522 4238 
z
M 3406 84 
L 4238 -825 
L 3475 -825 
L 2784 -78 
Q 2681 -84 2626 -87 
Q 2572 -91 2522 -91 
Q 1538 -91 948 567 
Q 359 1225 359 2328 
Q 359 3434 948 4092 
Q 1538 4750 2522 4750 
Q 3503 4750 4090 4092 
Q 4678 3434 4678 2328 
Q 4678 1516 4351 937 
Q 4025 359 3406 84 
z
" transform="scale(0.015625)"/>
      <path id="DejaVuSans-75" d="M 544 1381 
L 544 3500 
L 1119 3500 
L 1119 1403 
Q 1119 906 1312 657 
Q 1506 409 1894 409 
Q 2359 409 2629 706 
Q 2900 1003 2900 1516 
L 2900 3500 
L 3475 3500 
L 3475 0 
L 2900 0 
L 2900 538 
Q 2691 219 2414 64 
Q 2138 -91 1772 -91 
Q 1169 -91 856 284 
Q 544 659 544 1381 
z
M 1991 3584 
L 1991 3584 
z
" transform="scale(0.015625)"/>
      <path id="DejaVuSans-61" d="M 2194 1759 
Q 1497 1759 1228 1600 
Q 959 1441 959 1056 
Q 959 750 1161 570 
Q 1363 391 1709 391 
Q 2188 391 2477 730 
Q 2766 1069 2766 1631 
L 2766 1759 
L 2194 1759 
z
M 3341 1997 
L 3341 0 
L 2766 0 
L 2766 531 
Q 2569 213 2275 61 
Q 1981 -91 1556 -91 
Q 1019 -91 701 211 
Q 384 513 384 1019 
Q 384 1609 779 1909 
Q 1175 2209 1959 2209 
L 2766 2209 
L 2766 2266 
Q 2766 2663 2505 2880 
Q 2244 3097 1772 3097 
Q 1472 3097 1187 3025 
Q 903 2953 641 2809 
L 641 3341 
Q 956 3463 1253 3523 
Q 1550 3584 1831 3584 
Q 2591 3584 2966 3190 
Q 3341 2797 3341 1997 
z
" transform="scale(0.015625)"/>
      <path id="DejaVuSans-72" d="M 2631 2963 
Q 2534 3019 2420 3045 
Q 2306 3072 2169 3072 
Q 1681 3072 1420 2755 
Q 1159 2438 1159 1844 
L 1159 0 
L 581 0 
L 581 3500 
L 1159 3500 
L 1159 2956 
Q 1341 3275 1631 3429 
Q 1922 3584 2338 3584 
Q 2397 3584 2469 3576 
Q 2541 3569 2628 3553 
L 2631 2963 
z
" transform="scale(0.015625)"/>
      <path id="DejaVuSans-e1" d="M 2194 1759 
Q 1497 1759 1228 1600 
Q 959 1441 959 1056 
Q 959 750 1161 570 
Q 1363 391 1709 391 
Q 2188 391 2477 730 
Q 2766 1069 2766 1631 
L 2766 1759 
L 2194 1759 
z
M 3341 1997 
L 3341 0 
L 2766 0 
L 2766 531 
Q 2569 213 2275 61 
Q 1981 -91 1556 -91 
Q 1019 -91 701 211 
Q 384 513 384 1019 
Q 384 1609 779 1909 
Q 1175 2209 1959 2209 
L 2766 2209 
L 2766 2266 
Q 2766 2663 2505 2880 
Q 2244 3097 1772 3097 
Q 1472 3097 1187 3025 
Q 903 2953 641 2809 
L 641 3341 
Q 956 3463 1253 3523 
Q 1550 3584 1831 3584 
Q 2591 3584 2966 3190 
Q 3341 2797 3341 1997 
z
M 2290 5119 
L 2912 5119 
L 1894 3944 
L 1415 3944 
L 2290 5119 
z
" transform="scale(0.015625)"/>
      <path id="DejaVuSans-63" d="M 3122 3366 
L 3122 2828 
Q 2878 2963 2633 3030 
Q 2388 3097 2138 3097 
Q 1578 3097 1268 2742 
Q 959 2388 959 1747 
Q 959 1106 1268 751 
Q 1578 397 2138 397 
Q 2388 397 2633 464 
Q 2878 531 3122 666 
L 3122 134 
Q 2881 22 2623 -34 
Q 2366 -91 2075 -91 
Q 1284 -91 818 406 
Q 353 903 353 1747 
Q 353 2603 823 3093 
Q 1294 3584 2113 3584 
Q 2378 3584 2631 3529 
Q 2884 3475 3122 3366 
z
" transform="scale(0.015625)"/>
      <path id="DejaVuSans-46" d="M 628 4666 
L 3309 4666 
L 3309 4134 
L 1259 4134 
L 1259 2759 
L 3109 2759 
L 3109 2228 
L 1259 2228 
L 1259 0 
L 628 0 
L 628 4666 
z
" transform="scale(0.015625)"/>
      <path id="DejaVuSans-67" d="M 2906 1791 
Q 2906 2416 2648 2759 
Q 2391 3103 1925 3103 
Q 1463 3103 1205 2759 
Q 947 2416 947 1791 
Q 947 1169 1205 825 
Q 1463 481 1925 481 
Q 2391 481 2648 825 
Q 2906 1169 2906 1791 
z
M 3481 434 
Q 3481 -459 3084 -895 
Q 2688 -1331 1869 -1331 
Q 1566 -1331 1297 -1286 
Q 1028 -1241 775 -1147 
L 775 -588 
Q 1028 -725 1275 -790 
Q 1522 -856 1778 -856 
Q 2344 -856 2625 -561 
Q 2906 -266 2906 331 
L 2906 616 
Q 2728 306 2450 153 
Q 2172 0 1784 0 
Q 1141 0 747 490 
Q 353 981 353 1791 
Q 353 2603 747 3093 
Q 1141 3584 1784 3584 
Q 2172 3584 2450 3431 
Q 2728 3278 2906 2969 
L 2906 3500 
L 3481 3500 
L 3481 434 
z
" transform="scale(0.015625)"/>
     </defs>
     <use xlink:href="#DejaVuSans-4d"/>
     <use xlink:href="#DejaVuSans-e9" x="86.279297"/>
     <use xlink:href="#DejaVuSans-74" x="147.802734"/>
     <use xlink:href="#DejaVuSans-6f" x="187.011719"/>
     <use xlink:href="#DejaVuSans-64" x="248.193359"/>
     <use xlink:href="#DejaVuSans-6f" x="311.669922"/>
     <use xlink:href="#DejaVuSans-20" x="372.851562"/>
     <use xlink:href="#DejaVuSans-64" x="404.638672"/>
     <use xlink:href="#DejaVuSans-6f" x="468.115234"/>
     <use xlink:href="#DejaVuSans-73" x="529.296875"/>
     <use xlink:href="#DejaVuSans-20" x="581.396484"/>
     <use xlink:href="#DejaVuSans-4d" x="613.183594"/>
     <use xlink:href="#DejaVuSans-ed" x="699.462891"/>
     <use xlink:href="#DejaVuSans-6e" x="727.246094"/>
     <use xlink:href="#DejaVuSans-69" x="790.625"/>
     <use xlink:href="#DejaVuSans-6d" x="818.408203"/>
     <use xlink:href="#DejaVuSans-6f" x="915.820312"/>
     <use xlink:href="#DejaVuSans-73" x="977.001953"/>
     <use xlink:href="#DejaVuSans-20" x="1029.101562"/>
     <use xlink:href="#DejaVuSans-51" x="1060.888672"/>
     <use xlink:href="#DejaVuSans-75" x="1139.599609"/>
     <use xlink:href="#DejaVuSans-61" x="1202.978516"/>
     <use xlink:href="#DejaVuSans-64" x="1264.257812"/>
     <use xlink:href="#DejaVuSans-72" x="1327.734375"/>
     <use xlink:href="#DejaVuSans-e1" x="1368.847656"/>
     <use xlink:href="#DejaVuSans-74" x="1430.126953"/>
     <use xlink:href="#DejaVuSans-69" x="1469.335938"/>
     <use xlink:href="#DejaVuSans-63" x="1497.119141"/>
     <use xlink:href="#DejaVuSans-6f" x="1552.099609"/>
     <use xlink:href="#DejaVuSans-73" x="1613.28125"/>
     <use xlink:href="#DejaVuSans-20" x="1665.380859"/>
     <use xlink:href="#DejaVuSans-46" x="1697.167969"/>
     <use xlink:href="#DejaVuSans-69" x="1747.4375"/>
     <use xlink:href="#DejaVuSans-67" x="1775.220703"/>
     <use xlink:href="#DejaVuSans-2e" x="1838.697266"/>
     <use xlink:href="#DejaVuSans-32" x="1870.484375"/>
    </g>
   </g>
   <g id="legend_1">
    <g id="patch_7">
     <path d="M 47.603125 60.154375 
L 193.632813 60.154375 
Q 195.632813 60.154375 195.632813 58.154375 
L 195.632813 29.798125 
Q 195.632813 27.798125 193.632813 27.798125 
L 47.603125 27.798125 
Q 45.603125 27.798125 45.603125 29.798125 
L 45.603125 58.154375 
Q 45.603125 60.154375 47.603125 60.154375 
z
" style="fill: #ffffff; opacity: 0.8; stroke: #cccccc; stroke-linejoin: miter"/>
    </g>
    <g id="line2d_14">
     <path d="M 49.603125 35.896562 
L 59.603125 35.896562 
L 69.603125 35.896562 
" style="fill: none; stroke: #000000; stroke-width: 1.5; stroke-linecap: square"/>
    </g>
    <g id="text_17">
     <!-- RETA DE AJUSTE  -->
     <g transform="translate(77.603125 39.396562) scale(0.1 -0.1)">
      <defs>
       <path id="DejaVuSans-44" d="M 1259 4147 
L 1259 519 
L 2022 519 
Q 2988 519 3436 956 
Q 3884 1394 3884 2338 
Q 3884 3275 3436 3711 
Q 2988 4147 2022 4147 
L 1259 4147 
z
M 628 4666 
L 1925 4666 
Q 3281 4666 3915 4102 
Q 4550 3538 4550 2338 
Q 4550 1131 3912 565 
Q 3275 0 1925 0 
L 628 0 
L 628 4666 
z
" transform="scale(0.015625)"/>
       <path id="DejaVuSans-4a" d="M 628 4666 
L 1259 4666 
L 1259 325 
Q 1259 -519 939 -900 
Q 619 -1281 -91 -1281 
L -331 -1281 
L -331 -750 
L -134 -750 
Q 284 -750 456 -515 
Q 628 -281 628 325 
L 628 4666 
z
" transform="scale(0.015625)"/>
       <path id="DejaVuSans-55" d="M 556 4666 
L 1191 4666 
L 1191 1831 
Q 1191 1081 1462 751 
Q 1734 422 2344 422 
Q 2950 422 3222 751 
Q 3494 1081 3494 1831 
L 3494 4666 
L 4128 4666 
L 4128 1753 
Q 4128 841 3676 375 
Q 3225 -91 2344 -91 
Q 1459 -91 1007 375 
Q 556 841 556 1753 
L 556 4666 
z
" transform="scale(0.015625)"/>
      </defs>
      <use xlink:href="#DejaVuSans-52"/>
      <use xlink:href="#DejaVuSans-45" x="69.482422"/>
      <use xlink:href="#DejaVuSans-54" x="132.666016"/>
      <use xlink:href="#DejaVuSans-41" x="186"/>
      <use xlink:href="#DejaVuSans-20" x="254.408203"/>
      <use xlink:href="#DejaVuSans-44" x="286.195312"/>
      <use xlink:href="#DejaVuSans-45" x="363.197266"/>
      <use xlink:href="#DejaVuSans-20" x="426.380859"/>
      <use xlink:href="#DejaVuSans-41" x="458.167969"/>
      <use xlink:href="#DejaVuSans-4a" x="526.576172"/>
      <use xlink:href="#DejaVuSans-55" x="556.068359"/>
      <use xlink:href="#DejaVuSans-53" x="629.261719"/>
      <use xlink:href="#DejaVuSans-54" x="692.738281"/>
      <use xlink:href="#DejaVuSans-45" x="753.822266"/>
      <use xlink:href="#DejaVuSans-20" x="817.005859"/>
     </g>
    </g>
    <g id="line2d_15">
     <g>
      <use xlink:href="#m6f6d770dec" x="59.603125" y="50.574687" style="fill: #1f77b4; stroke: #1f77b4"/>
     </g>
    </g>
    <g id="text_18">
     <!-- DADOS DE DISPERSÃO -->
     <g transform="translate(77.603125 54.074687) scale(0.1 -0.1)">
      <defs>
       <path id="DejaVuSans-49" d="M 628 4666 
L 1259 4666 
L 1259 0 
L 628 0 
L 628 4666 
z
" transform="scale(0.015625)"/>
       <path id="DejaVuSans-50" d="M 1259 4147 
L 1259 2394 
L 2053 2394 
Q 2494 2394 2734 2622 
Q 2975 2850 2975 3272 
Q 2975 3691 2734 3919 
Q 2494 4147 2053 4147 
L 1259 4147 
z
M 628 4666 
L 2053 4666 
Q 2838 4666 3239 4311 
Q 3641 3956 3641 3272 
Q 3641 2581 3239 2228 
Q 2838 1875 2053 1875 
L 1259 1875 
L 1259 0 
L 628 0 
L 628 4666 
z
" transform="scale(0.015625)"/>
      </defs>
      <use xlink:href="#DejaVuSans-44"/>
      <use xlink:href="#DejaVuSans-41" x="75.251953"/>
      <use xlink:href="#DejaVuSans-44" x="143.660156"/>
      <use xlink:href="#DejaVuSans-4f" x="220.662109"/>
      <use xlink:href="#DejaVuSans-53" x="299.373047"/>
      <use xlink:href="#DejaVuSans-20" x="362.849609"/>
      <use xlink:href="#DejaVuSans-44" x="394.636719"/>
      <use xlink:href="#DejaVuSans-45" x="471.638672"/>
      <use xlink:href="#DejaVuSans-20" x="534.822266"/>
      <use xlink:href="#DejaVuSans-44" x="566.609375"/>
      <use xlink:href="#DejaVuSans-49" x="643.611328"/>
      <use xlink:href="#DejaVuSans-53" x="673.103516"/>
      <use xlink:href="#DejaVuSans-50" x="736.580078"/>
      <use xlink:href="#DejaVuSans-45" x="796.882812"/>
      <use xlink:href="#DejaVuSans-52" x="860.066406"/>
      <use xlink:href="#DejaVuSans-53" x="929.548828"/>
      <use xlink:href="#DejaVuSans-c3" x="994.900391"/>
      <use xlink:href="#DejaVuSans-4f" x="1061.558594"/>
     </g>
    </g>
   </g>
  </g>
 </g>
 <defs>
  <clipPath id="p3ba1605ee9">
   <rect x="40.603125" y="22.798125" width="357.12" height="266.112"/>
  </clipPath>
 </defs>
</svg>
