<?xml version="1.0" encoding="utf-8" standalone="no"?>
<!DOCTYPE svg PUBLIC "-//W3C//DTD SVG 1.1//EN"
  "http://www.w3.org/Graphics/SVG/1.1/DTD/svg11.dtd">
<svg xmlns:xlink="http://www.w3.org/1999/xlink" width="404.923125pt" height="326.19075pt" viewBox="0 0 404.923125 326.19075" xmlns="http://www.w3.org/2000/svg" version="1.1">
 <metadata>
  <rdf:RDF xmlns:dc="http://purl.org/dc/elements/1.1/" xmlns:cc="http://creativecommons.org/ns#" xmlns:rdf="http://www.w3.org/1999/02/22-rdf-syntax-ns#">
   <cc:Work>
    <dc:type rdf:resource="http://purl.org/dc/dcmitype/StillImage"/>
    <dc:date>2024-10-30T03:05:08.371878</dc:date>
    <dc:format>image/svg+xml</dc:format>
    <dc:creator>
     <cc:Agent>
      <dc:title>Matplotlib v3.7.1, https://matplotlib.org/</dc:title>
     </cc:Agent>
    </dc:creator>
   </cc:Work>
  </rdf:RDF>
 </metadata>
 <defs>
  <style type="text/css">*{stroke-linejoin: round; stroke-linecap: butt}</style>
 </defs>
 <g id="figure_1">
  <g id="patch_1">
   <path d="M 0 326.19075 
L 404.923125 326.19075 
L 404.923125 0 
L 0 0 
z
" style="fill: #ffffff"/>
  </g>
  <g id="axes_1">
   <g id="patch_2">
    <path d="M 40.603125 288.6345 
L 397.723125 288.6345 
L 397.723125 22.5225 
L 40.603125 22.5225 
z
" style="fill: #ffffff"/>
   </g>
   <g id="matplotlib.axis_1">
    <g id="xtick_1">
     <g id="line2d_1">
      <defs>
       <path id="md06d59ad34" d="M 0 0 
L 0 3.5 
" style="stroke: #000000; stroke-width: 0.8"/>
      </defs>
      <g>
       <use xlink:href="#md06d59ad34" x="56.835852" y="288.6345" style="stroke: #000000; stroke-width: 0.8"/>
      </g>
     </g>
     <g id="text_1">
      <!-- 0 -->
      <g transform="translate(53.654602 303.232937) scale(0.1 -0.1)">
       <defs>
        <path id="DejaVuSans-30" d="M 2034 4250 
Q 1547 4250 1301 3770 
Q 1056 3291 1056 2328 
Q 1056 1369 1301 889 
Q 1547 409 2034 409 
Q 2525 409 2770 889 
Q 3016 1369 3016 2328 
Q 3016 3291 2770 3770 
Q 2525 4250 2034 4250 
z
M 2034 4750 
Q 2819 4750 3233 4129 
Q 3647 3509 3647 2328 
Q 3647 1150 3233 529 
Q 2819 -91 2034 -91 
Q 1250 -91 836 529 
Q 422 1150 422 2328 
Q 422 3509 836 4129 
Q 1250 4750 2034 4750 
z
" transform="scale(0.015625)"/>
       </defs>
       <use xlink:href="#DejaVuSans-30"/>
      </g>
     </g>
    </g>
    <g id="xtick_2">
     <g id="line2d_2">
      <g>
       <use xlink:href="#md06d59ad34" x="121.766761" y="288.6345" style="stroke: #000000; stroke-width: 0.8"/>
      </g>
     </g>
     <g id="text_2">
      <!-- 2 -->
      <g transform="translate(118.585511 303.232937) scale(0.1 -0.1)">
       <defs>
        <path id="DejaVuSans-32" d="M 1228 531 
L 3431 531 
L 3431 0 
L 469 0 
L 469 531 
Q 828 903 1448 1529 
Q 2069 2156 2228 2338 
Q 2531 2678 2651 2914 
Q 2772 3150 2772 3378 
Q 2772 3750 2511 3984 
Q 2250 4219 1831 4219 
Q 1534 4219 1204 4116 
Q 875 4013 500 3803 
L 500 4441 
Q 881 4594 1212 4672 
Q 1544 4750 1819 4750 
Q 2544 4750 2975 4387 
Q 3406 4025 3406 3419 
Q 3406 3131 3298 2873 
Q 3191 2616 2906 2266 
Q 2828 2175 2409 1742 
Q 1991 1309 1228 531 
z
" transform="scale(0.015625)"/>
       </defs>
       <use xlink:href="#DejaVuSans-32"/>
      </g>
     </g>
    </g>
    <g id="xtick_3">
     <g id="line2d_3">
      <g>
       <use xlink:href="#md06d59ad34" x="186.69767" y="288.6345" style="stroke: #000000; stroke-width: 0.8"/>
      </g>
     </g>
     <g id="text_3">
      <!-- 4 -->
      <g transform="translate(183.51642 303.232937) scale(0.1 -0.1)">
       <defs>
        <path id="DejaVuSans-34" d="M 2419 4116 
L 825 1625 
L 2419 1625 
L 2419 4116 
z
M 2253 4666 
L 3047 4666 
L 3047 1625 
L 3713 1625 
L 3713 1100 
L 3047 1100 
L 3047 0 
L 2419 0 
L 2419 1100 
L 313 1100 
L 313 1709 
L 2253 4666 
z
" transform="scale(0.015625)"/>
       </defs>
       <use xlink:href="#DejaVuSans-34"/>
      </g>
     </g>
    </g>
    <g id="xtick_4">
     <g id="line2d_4">
      <g>
       <use xlink:href="#md06d59ad34" x="251.62858" y="288.6345" style="stroke: #000000; stroke-width: 0.8"/>
      </g>
     </g>
     <g id="text_4">
      <!-- 6 -->
      <g transform="translate(248.44733 303.232937) scale(0.1 -0.1)">
       <defs>
        <path id="DejaVuSans-36" d="M 2113 2584 
Q 1688 2584 1439 2293 
Q 1191 2003 1191 1497 
Q 1191 994 1439 701 
Q 1688 409 2113 409 
Q 2538 409 2786 701 
Q 3034 994 3034 1497 
Q 3034 2003 2786 2293 
Q 2538 2584 2113 2584 
z
M 3366 4563 
L 3366 3988 
Q 3128 4100 2886 4159 
Q 2644 4219 2406 4219 
Q 1781 4219 1451 3797 
Q 1122 3375 1075 2522 
Q 1259 2794 1537 2939 
Q 1816 3084 2150 3084 
Q 2853 3084 3261 2657 
Q 3669 2231 3669 1497 
Q 3669 778 3244 343 
Q 2819 -91 2113 -91 
Q 1303 -91 875 529 
Q 447 1150 447 2328 
Q 447 3434 972 4092 
Q 1497 4750 2381 4750 
Q 2619 4750 2861 4703 
Q 3103 4656 3366 4563 
z
" transform="scale(0.015625)"/>
       </defs>
       <use xlink:href="#DejaVuSans-36"/>
      </g>
     </g>
    </g>
    <g id="xtick_5">
     <g id="line2d_5">
      <g>
       <use xlink:href="#md06d59ad34" x="316.559489" y="288.6345" style="stroke: #000000; stroke-width: 0.8"/>
      </g>
     </g>
     <g id="text_5">
      <!-- 8 -->
      <g transform="translate(313.378239 303.232937) scale(0.1 -0.1)">
       <defs>
        <path id="DejaVuSans-38" d="M 2034 2216 
Q 1584 2216 1326 1975 
Q 1069 1734 1069 1313 
Q 1069 891 1326 650 
Q 1584 409 2034 409 
Q 2484 409 2743 651 
Q 3003 894 3003 1313 
Q 3003 1734 2745 1975 
Q 2488 2216 2034 2216 
z
M 1403 2484 
Q 997 2584 770 2862 
Q 544 3141 544 3541 
Q 544 4100 942 4425 
Q 1341 4750 2034 4750 
Q 2731 4750 3128 4425 
Q 3525 4100 3525 3541 
Q 3525 3141 3298 2862 
Q 3072 2584 2669 2484 
Q 3125 2378 3379 2068 
Q 3634 1759 3634 1313 
Q 3634 634 3220 271 
Q 2806 -91 2034 -91 
Q 1263 -91 848 271 
Q 434 634 434 1313 
Q 434 1759 690 2068 
Q 947 2378 1403 2484 
z
M 1172 3481 
Q 1172 3119 1398 2916 
Q 1625 2713 2034 2713 
Q 2441 2713 2670 2916 
Q 2900 3119 2900 3481 
Q 2900 3844 2670 4047 
Q 2441 4250 2034 4250 
Q 1625 4250 1398 4047 
Q 1172 3844 1172 3481 
z
" transform="scale(0.015625)"/>
       </defs>
       <use xlink:href="#DejaVuSans-38"/>
      </g>
     </g>
    </g>
    <g id="xtick_6">
     <g id="line2d_6">
      <g>
       <use xlink:href="#md06d59ad34" x="381.490398" y="288.6345" style="stroke: #000000; stroke-width: 0.8"/>
      </g>
     </g>
     <g id="text_6">
      <!-- 10 -->
      <g transform="translate(375.127898 303.232937) scale(0.1 -0.1)">
       <defs>
        <path id="DejaVuSans-31" d="M 794 531 
L 1825 531 
L 1825 4091 
L 703 3866 
L 703 4441 
L 1819 4666 
L 2450 4666 
L 2450 531 
L 3481 531 
L 3481 0 
L 794 0 
L 794 531 
z
" transform="scale(0.015625)"/>
       </defs>
       <use xlink:href="#DejaVuSans-31"/>
       <use xlink:href="#DejaVuSans-30" x="63.623047"/>
      </g>
     </g>
    </g>
    <g id="text_7">
     <!-- Tensão (V) -->
     <g transform="translate(193.074844 316.911062) scale(0.1 -0.1)">
      <defs>
       <path id="DejaVuSans-54" d="M -19 4666 
L 3928 4666 
L 3928 4134 
L 2272 4134 
L 2272 0 
L 1638 0 
L 1638 4134 
L -19 4134 
L -19 4666 
z
" transform="scale(0.015625)"/>
       <path id="DejaVuSans-65" d="M 3597 1894 
L 3597 1613 
L 953 1613 
Q 991 1019 1311 708 
Q 1631 397 2203 397 
Q 2534 397 2845 478 
Q 3156 559 3463 722 
L 3463 178 
Q 3153 47 2828 -22 
Q 2503 -91 2169 -91 
Q 1331 -91 842 396 
Q 353 884 353 1716 
Q 353 2575 817 3079 
Q 1281 3584 2069 3584 
Q 2775 3584 3186 3129 
Q 3597 2675 3597 1894 
z
M 3022 2063 
Q 3016 2534 2758 2815 
Q 2500 3097 2075 3097 
Q 1594 3097 1305 2825 
Q 1016 2553 972 2059 
L 3022 2063 
z
" transform="scale(0.015625)"/>
       <path id="DejaVuSans-6e" d="M 3513 2113 
L 3513 0 
L 2938 0 
L 2938 2094 
Q 2938 2591 2744 2837 
Q 2550 3084 2163 3084 
Q 1697 3084 1428 2787 
Q 1159 2491 1159 1978 
L 1159 0 
L 581 0 
L 581 3500 
L 1159 3500 
L 1159 2956 
Q 1366 3272 1645 3428 
Q 1925 3584 2291 3584 
Q 2894 3584 3203 3211 
Q 3513 2838 3513 2113 
z
" transform="scale(0.015625)"/>
       <path id="DejaVuSans-73" d="M 2834 3397 
L 2834 2853 
Q 2591 2978 2328 3040 
Q 2066 3103 1784 3103 
Q 1356 3103 1142 2972 
Q 928 2841 928 2578 
Q 928 2378 1081 2264 
Q 1234 2150 1697 2047 
L 1894 2003 
Q 2506 1872 2764 1633 
Q 3022 1394 3022 966 
Q 3022 478 2636 193 
Q 2250 -91 1575 -91 
Q 1294 -91 989 -36 
Q 684 19 347 128 
L 347 722 
Q 666 556 975 473 
Q 1284 391 1588 391 
Q 1994 391 2212 530 
Q 2431 669 2431 922 
Q 2431 1156 2273 1281 
Q 2116 1406 1581 1522 
L 1381 1569 
Q 847 1681 609 1914 
Q 372 2147 372 2553 
Q 372 3047 722 3315 
Q 1072 3584 1716 3584 
Q 2034 3584 2315 3537 
Q 2597 3491 2834 3397 
z
" transform="scale(0.015625)"/>
       <path id="DejaVuSans-e3" d="M 2194 1759 
Q 1497 1759 1228 1600 
Q 959 1441 959 1056 
Q 959 750 1161 570 
Q 1363 391 1709 391 
Q 2188 391 2477 730 
Q 2766 1069 2766 1631 
L 2766 1759 
L 2194 1759 
z
M 3341 1997 
L 3341 0 
L 2766 0 
L 2766 531 
Q 2569 213 2275 61 
Q 1981 -91 1556 -91 
Q 1019 -91 701 211 
Q 384 513 384 1019 
Q 384 1609 779 1909 
Q 1175 2209 1959 2209 
L 2766 2209 
L 2766 2266 
Q 2766 2663 2505 2880 
Q 2244 3097 1772 3097 
Q 1472 3097 1187 3025 
Q 903 2953 641 2809 
L 641 3341 
Q 956 3463 1253 3523 
Q 1550 3584 1831 3584 
Q 2591 3584 2966 3190 
Q 3341 2797 3341 1997 
z
M 1844 4281 
L 1665 4453 
Q 1597 4516 1545 4545 
Q 1494 4575 1453 4575 
Q 1334 4575 1278 4461 
Q 1222 4347 1215 4091 
L 825 4091 
Q 831 4513 990 4742 
Q 1150 4972 1434 4972 
Q 1553 4972 1653 4928 
Q 1753 4884 1869 4781 
L 2047 4609 
Q 2115 4547 2167 4517 
Q 2219 4488 2259 4488 
Q 2378 4488 2434 4602 
Q 2490 4716 2497 4972 
L 2887 4972 
Q 2881 4550 2721 4320 
Q 2562 4091 2278 4091 
Q 2159 4091 2059 4134 
Q 1959 4178 1844 4281 
z
" transform="scale(0.015625)"/>
       <path id="DejaVuSans-6f" d="M 1959 3097 
Q 1497 3097 1228 2736 
Q 959 2375 959 1747 
Q 959 1119 1226 758 
Q 1494 397 1959 397 
Q 2419 397 2687 759 
Q 2956 1122 2956 1747 
Q 2956 2369 2687 2733 
Q 2419 3097 1959 3097 
z
M 1959 3584 
Q 2709 3584 3137 3096 
Q 3566 2609 3566 1747 
Q 3566 888 3137 398 
Q 2709 -91 1959 -91 
Q 1206 -91 779 398 
Q 353 888 353 1747 
Q 353 2609 779 3096 
Q 1206 3584 1959 3584 
z
" transform="scale(0.015625)"/>
       <path id="DejaVuSans-20" transform="scale(0.015625)"/>
       <path id="DejaVuSans-28" d="M 1984 4856 
Q 1566 4138 1362 3434 
Q 1159 2731 1159 2009 
Q 1159 1288 1364 580 
Q 1569 -128 1984 -844 
L 1484 -844 
Q 1016 -109 783 600 
Q 550 1309 550 2009 
Q 550 2706 781 3412 
Q 1013 4119 1484 4856 
L 1984 4856 
z
" transform="scale(0.015625)"/>
       <path id="DejaVuSans-56" d="M 1831 0 
L 50 4666 
L 709 4666 
L 2188 738 
L 3669 4666 
L 4325 4666 
L 2547 0 
L 1831 0 
z
" transform="scale(0.015625)"/>
       <path id="DejaVuSans-29" d="M 513 4856 
L 1013 4856 
Q 1481 4119 1714 3412 
Q 1947 2706 1947 2009 
Q 1947 1309 1714 600 
Q 1481 -109 1013 -844 
L 513 -844 
Q 928 -128 1133 580 
Q 1338 1288 1338 2009 
Q 1338 2731 1133 3434 
Q 928 4138 513 4856 
z
" transform="scale(0.015625)"/>
      </defs>
      <use xlink:href="#DejaVuSans-54"/>
      <use xlink:href="#DejaVuSans-65" x="44.083984"/>
      <use xlink:href="#DejaVuSans-6e" x="105.607422"/>
      <use xlink:href="#DejaVuSans-73" x="168.986328"/>
      <use xlink:href="#DejaVuSans-e3" x="221.085938"/>
      <use xlink:href="#DejaVuSans-6f" x="282.365234"/>
      <use xlink:href="#DejaVuSans-20" x="343.546875"/>
      <use xlink:href="#DejaVuSans-28" x="375.333984"/>
      <use xlink:href="#DejaVuSans-56" x="414.347656"/>
      <use xlink:href="#DejaVuSans-29" x="482.755859"/>
     </g>
    </g>
   </g>
   <g id="matplotlib.axis_2">
    <g id="ytick_1">
     <g id="line2d_7">
      <defs>
       <path id="m838cbd77f8" d="M 0 0 
L -3.5 0 
" style="stroke: #000000; stroke-width: 0.8"/>
      </defs>
      <g>
       <use xlink:href="#m838cbd77f8" x="40.603125" y="251.696796" style="stroke: #000000; stroke-width: 0.8"/>
      </g>
     </g>
     <g id="text_8">
      <!-- 5 -->
      <g transform="translate(27.240625 255.496015) scale(0.1 -0.1)">
       <defs>
        <path id="DejaVuSans-35" d="M 691 4666 
L 3169 4666 
L 3169 4134 
L 1269 4134 
L 1269 2991 
Q 1406 3038 1543 3061 
Q 1681 3084 1819 3084 
Q 2600 3084 3056 2656 
Q 3513 2228 3513 1497 
Q 3513 744 3044 326 
Q 2575 -91 1722 -91 
Q 1428 -91 1123 -41 
Q 819 9 494 109 
L 494 744 
Q 775 591 1075 516 
Q 1375 441 1709 441 
Q 2250 441 2565 725 
Q 2881 1009 2881 1497 
Q 2881 1984 2565 2268 
Q 2250 2553 1709 2553 
Q 1456 2553 1204 2497 
Q 953 2441 691 2322 
L 691 4666 
z
" transform="scale(0.015625)"/>
       </defs>
       <use xlink:href="#DejaVuSans-35"/>
      </g>
     </g>
    </g>
    <g id="ytick_2">
     <g id="line2d_8">
      <g>
       <use xlink:href="#m838cbd77f8" x="40.603125" y="195.283517" style="stroke: #000000; stroke-width: 0.8"/>
      </g>
     </g>
     <g id="text_9">
      <!-- 10 -->
      <g transform="translate(20.878125 199.082736) scale(0.1 -0.1)">
       <use xlink:href="#DejaVuSans-31"/>
       <use xlink:href="#DejaVuSans-30" x="63.623047"/>
      </g>
     </g>
    </g>
    <g id="ytick_3">
     <g id="line2d_9">
      <g>
       <use xlink:href="#m838cbd77f8" x="40.603125" y="138.870239" style="stroke: #000000; stroke-width: 0.8"/>
      </g>
     </g>
     <g id="text_10">
      <!-- 15 -->
      <g transform="translate(20.878125 142.669457) scale(0.1 -0.1)">
       <use xlink:href="#DejaVuSans-31"/>
       <use xlink:href="#DejaVuSans-35" x="63.623047"/>
      </g>
     </g>
    </g>
    <g id="ytick_4">
     <g id="line2d_10">
      <g>
       <use xlink:href="#m838cbd77f8" x="40.603125" y="82.45696" style="stroke: #000000; stroke-width: 0.8"/>
      </g>
     </g>
     <g id="text_11">
      <!-- 20 -->
      <g transform="translate(20.878125 86.256179) scale(0.1 -0.1)">
       <use xlink:href="#DejaVuSans-32"/>
       <use xlink:href="#DejaVuSans-30" x="63.623047"/>
      </g>
     </g>
    </g>
    <g id="ytick_5">
     <g id="line2d_11">
      <g>
       <use xlink:href="#m838cbd77f8" x="40.603125" y="26.043682" style="stroke: #000000; stroke-width: 0.8"/>
      </g>
     </g>
     <g id="text_12">
      <!-- 25 -->
      <g transform="translate(20.878125 29.8429) scale(0.1 -0.1)">
       <use xlink:href="#DejaVuSans-32"/>
       <use xlink:href="#DejaVuSans-35" x="63.623047"/>
      </g>
     </g>
    </g>
    <g id="text_13">
     <!-- Corrente (A) -->
     <g transform="translate(14.798438 186.233187) rotate(-90) scale(0.1 -0.1)">
      <defs>
       <path id="DejaVuSans-43" d="M 4122 4306 
L 4122 3641 
Q 3803 3938 3442 4084 
Q 3081 4231 2675 4231 
Q 1875 4231 1450 3742 
Q 1025 3253 1025 2328 
Q 1025 1406 1450 917 
Q 1875 428 2675 428 
Q 3081 428 3442 575 
Q 3803 722 4122 1019 
L 4122 359 
Q 3791 134 3420 21 
Q 3050 -91 2638 -91 
Q 1578 -91 968 557 
Q 359 1206 359 2328 
Q 359 3453 968 4101 
Q 1578 4750 2638 4750 
Q 3056 4750 3426 4639 
Q 3797 4528 4122 4306 
z
" transform="scale(0.015625)"/>
       <path id="DejaVuSans-72" d="M 2631 2963 
Q 2534 3019 2420 3045 
Q 2306 3072 2169 3072 
Q 1681 3072 1420 2755 
Q 1159 2438 1159 1844 
L 1159 0 
L 581 0 
L 581 3500 
L 1159 3500 
L 1159 2956 
Q 1341 3275 1631 3429 
Q 1922 3584 2338 3584 
Q 2397 3584 2469 3576 
Q 2541 3569 2628 3553 
L 2631 2963 
z
" transform="scale(0.015625)"/>
       <path id="DejaVuSans-74" d="M 1172 4494 
L 1172 3500 
L 2356 3500 
L 2356 3053 
L 1172 3053 
L 1172 1153 
Q 1172 725 1289 603 
Q 1406 481 1766 481 
L 2356 481 
L 2356 0 
L 1766 0 
Q 1100 0 847 248 
Q 594 497 594 1153 
L 594 3053 
L 172 3053 
L 172 3500 
L 594 3500 
L 594 4494 
L 1172 4494 
z
" transform="scale(0.015625)"/>
       <path id="DejaVuSans-41" d="M 2188 4044 
L 1331 1722 
L 3047 1722 
L 2188 4044 
z
M 1831 4666 
L 2547 4666 
L 4325 0 
L 3669 0 
L 3244 1197 
L 1141 1197 
L 716 0 
L 50 0 
L 1831 4666 
z
" transform="scale(0.015625)"/>
      </defs>
      <use xlink:href="#DejaVuSans-43"/>
      <use xlink:href="#DejaVuSans-6f" x="69.824219"/>
      <use xlink:href="#DejaVuSans-72" x="131.005859"/>
      <use xlink:href="#DejaVuSans-72" x="170.369141"/>
      <use xlink:href="#DejaVuSans-65" x="209.232422"/>
      <use xlink:href="#DejaVuSans-6e" x="270.755859"/>
      <use xlink:href="#DejaVuSans-74" x="334.134766"/>
      <use xlink:href="#DejaVuSans-65" x="373.34375"/>
      <use xlink:href="#DejaVuSans-20" x="434.867188"/>
      <use xlink:href="#DejaVuSans-28" x="466.654297"/>
      <use xlink:href="#DejaVuSans-41" x="505.667969"/>
      <use xlink:href="#DejaVuSans-29" x="574.076172"/>
     </g>
    </g>
   </g>
   <g id="line2d_12">
    <path d="M 56.835852 260.239378 
L 60.731707 260.239378 
L 64.660027 260.239378 
L 68.555881 260.239378 
L 72.484201 257.096352 
L 76.380056 254.904294 
L 80.308376 252.357637 
L 84.20423 252.841179 
L 88.13255 250.504058 
L 92.028405 247.022553 
L 95.956725 249.923807 
L 99.85258 251.213253 
L 103.7809 248.650479 
L 107.676754 248.440944 
L 111.605074 244.475896 
L 115.500929 242.461136 
L 119.429249 242.396664 
L 123.325103 234.240916 
L 127.253423 229.115366 
L 131.149278 225.375972 
L 135.077598 223.312858 
L 138.973452 221.975057 
L 142.901772 217.607057 
L 146.797627 214.48015 
L 150.725947 213.513065 
L 154.621801 211.385479 
L 158.550121 209.241774 
L 162.445976 205.196136 
L 166.374296 198.61996 
L 170.27015 196.105539 
L 174.19847 193.236521 
L 178.094325 189.787252 
L 182.022645 188.078736 
L 185.9185 184.564994 
L 189.84682 184.033098 
L 193.742674 186.434692 
L 197.670994 183.388375 
L 201.566849 177.763165 
L 205.495169 176.103003 
L 209.391023 171.606058 
L 213.319343 169.704125 
L 217.215198 166.22262 
L 221.143518 162.53158 
L 225.039372 160.871417 
L 228.967692 157.647801 
L 232.863547 154.649839 
L 236.791867 154.585366 
L 240.687721 150.86209 
L 244.616041 146.381264 
L 248.511896 143.592836 
L 252.440216 139.144246 
L 256.33607 136.468645 
L 260.26439 132.809841 
L 264.160245 128.603022 
L 268.088565 126.894506 
L 271.98442 123.010048 
L 275.91274 117.62661 
L 279.808594 116.659525 
L 283.736914 115.901975 
L 287.632769 116.466108 
L 291.561089 114.322404 
L 295.456943 109.809341 
L 299.385263 105.441342 
L 303.281118 104.409785 
L 307.209438 99.300353 
L 311.105292 95.689904 
L 315.033612 92.224516 
L 318.929467 86.986141 
L 322.857787 83.085565 
L 326.753641 82.618141 
L 330.681961 77.25082 
L 334.577816 80.377728 
L 338.506136 76.928459 
L 342.40199 73.027884 
L 346.33031 71.367721 
L 350.226165 70.980888 
L 354.154485 71.399958 
L 358.05034 71.561138 
L 361.97866 64.033995 
L 365.874514 60.246247 
L 369.802834 58.505494 
L 373.698689 58.505494 
L 377.627009 58.505494 
L 381.490398 58.505494 
" clip-path="url(#p7b99413755)" style="fill: none; stroke: #ff0000; stroke-width: 1.5; stroke-linecap: square"/>
   </g>
   <g id="line2d_13">
    <path d="M 56.835852 276.5385 
L 60.731707 273.804825 
L 64.660027 271.04837 
L 68.555881 268.314695 
L 72.484201 265.558239 
L 76.380056 262.824564 
L 80.308376 260.068109 
L 84.20423 257.334434 
L 88.13255 254.577978 
L 92.028405 251.844303 
L 95.956725 249.087848 
L 99.85258 246.354173 
L 103.7809 243.597717 
L 107.676754 240.864042 
L 111.605074 238.107587 
L 115.500929 235.373912 
L 119.429249 232.617456 
L 123.325103 229.883781 
L 127.253423 227.127326 
L 131.149278 224.393651 
L 135.077598 221.637195 
L 138.973452 218.90352 
L 142.901772 216.147065 
L 146.797627 213.41339 
L 150.725947 210.656934 
L 154.621801 207.923259 
L 158.550121 205.166804 
L 162.445976 202.433129 
L 166.374296 199.676673 
L 170.27015 196.942998 
L 174.19847 194.186543 
L 178.094325 191.452868 
L 182.022645 188.696412 
L 185.9185 185.962737 
L 189.84682 183.206282 
L 193.742674 180.472607 
L 197.670994 177.716151 
L 201.566849 174.982476 
L 205.495169 172.226021 
L 209.391023 169.492346 
L 213.319343 166.73589 
L 217.215198 164.002215 
L 221.143518 161.24576 
L 225.039372 158.512085 
L 228.967692 155.755629 
L 232.863547 153.021954 
L 236.791867 150.265499 
L 240.687721 147.531824 
L 244.616041 144.775368 
L 248.511896 142.041693 
L 252.440216 139.285238 
L 256.33607 136.551563 
L 260.26439 133.795107 
L 264.160245 131.061432 
L 268.088565 128.304977 
L 271.98442 125.571302 
L 275.91274 122.814846 
L 279.808594 120.081171 
L 283.736914 117.324716 
L 287.632769 114.591041 
L 291.561089 111.834585 
L 295.456943 109.10091 
L 299.385263 106.344455 
L 303.281118 103.61078 
L 307.209438 100.854324 
L 311.105292 98.120649 
L 315.033612 95.364194 
L 318.929467 92.630519 
L 322.857787 89.874063 
L 326.753641 87.140388 
L 330.681961 84.383933 
L 334.577816 81.650258 
L 338.506136 78.893802 
L 342.40199 76.160127 
L 346.33031 73.403672 
L 350.226165 70.669997 
L 354.154485 67.913541 
L 358.05034 65.179866 
L 361.97866 62.423411 
L 365.874514 59.689736 
L 369.802834 56.93328 
L 373.698689 54.199605 
L 377.627009 51.44315 
L 381.490398 48.732255 
" clip-path="url(#p7b99413755)" style="fill: none; stroke: #000000; stroke-width: 1.5; stroke-linecap: square"/>
   </g>
   <g id="line2d_14">
    <defs>
     <path id="m2dee901b3f" d="M 0 1.5 
C 0.397805 1.5 0.77937 1.341951 1.06066 1.06066 
C 1.341951 0.77937 1.5 0.397805 1.5 0 
C 1.5 -0.397805 1.341951 -0.77937 1.06066 -1.06066 
C 0.77937 -1.341951 0.397805 -1.5 0 -1.5 
C -0.397805 -1.5 -0.77937 -1.341951 -1.06066 -1.06066 
C -1.341951 -0.77937 -1.5 -0.397805 -1.5 0 
C -1.5 0.397805 -1.341951 0.77937 -1.06066 1.06066 
C -0.77937 1.341951 -0.397805 1.5 0 1.5 
z
" style="stroke: #1f77b4"/>
    </defs>
    <g clip-path="url(#p7b99413755)">
     <use xlink:href="#m2dee901b3f" x="56.835852" y="268.620779" style="fill: #1f77b4; stroke: #1f77b4"/>
     <use xlink:href="#m2dee901b3f" x="60.731707" y="273.133842" style="fill: #1f77b4; stroke: #1f77b4"/>
     <use xlink:href="#m2dee901b3f" x="64.660027" y="261.512706" style="fill: #1f77b4; stroke: #1f77b4"/>
     <use xlink:href="#m2dee901b3f" x="68.555881" y="248.876132" style="fill: #1f77b4; stroke: #1f77b4"/>
     <use xlink:href="#m2dee901b3f" x="72.484201" y="266.025769" style="fill: #1f77b4; stroke: #1f77b4"/>
     <use xlink:href="#m2dee901b3f" x="76.380056" y="263.317931" style="fill: #1f77b4; stroke: #1f77b4"/>
     <use xlink:href="#m2dee901b3f" x="80.308376" y="240.188487" style="fill: #1f77b4; stroke: #1f77b4"/>
     <use xlink:href="#m2dee901b3f" x="84.20423" y="246.619601" style="fill: #1f77b4; stroke: #1f77b4"/>
     <use xlink:href="#m2dee901b3f" x="88.13255" y="257.78943" style="fill: #1f77b4; stroke: #1f77b4"/>
     <use xlink:href="#m2dee901b3f" x="92.028405" y="243.68611" style="fill: #1f77b4; stroke: #1f77b4"/>
     <use xlink:href="#m2dee901b3f" x="95.956725" y="252.260929" style="fill: #1f77b4; stroke: #1f77b4"/>
     <use xlink:href="#m2dee901b3f" x="99.85258" y="249.665918" style="fill: #1f77b4; stroke: #1f77b4"/>
     <use xlink:href="#m2dee901b3f" x="103.7809" y="238.947395" style="fill: #1f77b4; stroke: #1f77b4"/>
     <use xlink:href="#m2dee901b3f" x="107.676754" y="260.497267" style="fill: #1f77b4; stroke: #1f77b4"/>
     <use xlink:href="#m2dee901b3f" x="111.605074" y="255.645725" style="fill: #1f77b4; stroke: #1f77b4"/>
     <use xlink:href="#m2dee901b3f" x="115.500929" y="239.850007" style="fill: #1f77b4; stroke: #1f77b4"/>
     <use xlink:href="#m2dee901b3f" x="119.429249" y="242.219365" style="fill: #1f77b4; stroke: #1f77b4"/>
     <use xlink:href="#m2dee901b3f" x="123.325103" y="224.505596" style="fill: #1f77b4; stroke: #1f77b4"/>
     <use xlink:href="#m2dee901b3f" x="127.253423" y="235.562598" style="fill: #1f77b4; stroke: #1f77b4"/>
     <use xlink:href="#m2dee901b3f" x="131.149278" y="238.496089" style="fill: #1f77b4; stroke: #1f77b4"/>
     <use xlink:href="#m2dee901b3f" x="135.077598" y="203.407029" style="fill: #1f77b4; stroke: #1f77b4"/>
     <use xlink:href="#m2dee901b3f" x="138.973452" y="219.76688" style="fill: #1f77b4; stroke: #1f77b4"/>
     <use xlink:href="#m2dee901b3f" x="142.901772" y="213.674246" style="fill: #1f77b4; stroke: #1f77b4"/>
     <use xlink:href="#m2dee901b3f" x="146.797627" y="227.777566" style="fill: #1f77b4; stroke: #1f77b4"/>
     <use xlink:href="#m2dee901b3f" x="150.725947" y="215.140991" style="fill: #1f77b4; stroke: #1f77b4"/>
     <use xlink:href="#m2dee901b3f" x="154.621801" y="204.986601" style="fill: #1f77b4; stroke: #1f77b4"/>
     <use xlink:href="#m2dee901b3f" x="158.550121" y="216.607737" style="fill: #1f77b4; stroke: #1f77b4"/>
     <use xlink:href="#m2dee901b3f" x="162.445976" y="196.637436" style="fill: #1f77b4; stroke: #1f77b4"/>
     <use xlink:href="#m2dee901b3f" x="166.374296" y="204.873775" style="fill: #1f77b4; stroke: #1f77b4"/>
     <use xlink:href="#m2dee901b3f" x="170.27015" y="198.668314" style="fill: #1f77b4; stroke: #1f77b4"/>
     <use xlink:href="#m2dee901b3f" x="174.19847" y="199.4581" style="fill: #1f77b4; stroke: #1f77b4"/>
     <use xlink:href="#m2dee901b3f" x="178.094325" y="169.107756" style="fill: #1f77b4; stroke: #1f77b4"/>
     <use xlink:href="#m2dee901b3f" x="182.022645" y="187.385658" style="fill: #1f77b4; stroke: #1f77b4"/>
     <use xlink:href="#m2dee901b3f" x="185.9185" y="196.524609" style="fill: #1f77b4; stroke: #1f77b4"/>
     <use xlink:href="#m2dee901b3f" x="189.84682" y="172.492553" style="fill: #1f77b4; stroke: #1f77b4"/>
     <use xlink:href="#m2dee901b3f" x="193.742674" y="192.91416" style="fill: #1f77b4; stroke: #1f77b4"/>
     <use xlink:href="#m2dee901b3f" x="197.670994" y="174.072125" style="fill: #1f77b4; stroke: #1f77b4"/>
     <use xlink:href="#m2dee901b3f" x="201.566849" y="195.734823" style="fill: #1f77b4; stroke: #1f77b4"/>
     <use xlink:href="#m2dee901b3f" x="205.495169" y="185.918913" style="fill: #1f77b4; stroke: #1f77b4"/>
     <use xlink:href="#m2dee901b3f" x="209.391023" y="166.061439" style="fill: #1f77b4; stroke: #1f77b4"/>
     <use xlink:href="#m2dee901b3f" x="213.319343" y="157.148141" style="fill: #1f77b4; stroke: #1f77b4"/>
     <use xlink:href="#m2dee901b3f" x="217.215198" y="160.871417" style="fill: #1f77b4; stroke: #1f77b4"/>
     <use xlink:href="#m2dee901b3f" x="221.143518" y="161.43555" style="fill: #1f77b4; stroke: #1f77b4"/>
     <use xlink:href="#m2dee901b3f" x="225.039372" y="160.758591" style="fill: #1f77b4; stroke: #1f77b4"/>
     <use xlink:href="#m2dee901b3f" x="228.967692" y="171.364287" style="fill: #1f77b4; stroke: #1f77b4"/>
     <use xlink:href="#m2dee901b3f" x="232.863547" y="160.081631" style="fill: #1f77b4; stroke: #1f77b4"/>
     <use xlink:href="#m2dee901b3f" x="236.791867" y="154.440304" style="fill: #1f77b4; stroke: #1f77b4"/>
     <use xlink:href="#m2dee901b3f" x="240.687721" y="134.58283" style="fill: #1f77b4; stroke: #1f77b4"/>
     <use xlink:href="#m2dee901b3f" x="244.616041" y="139.885678" style="fill: #1f77b4; stroke: #1f77b4"/>
     <use xlink:href="#m2dee901b3f" x="248.511896" y="160.984244" style="fill: #1f77b4; stroke: #1f77b4"/>
     <use xlink:href="#m2dee901b3f" x="252.440216" y="134.695656" style="fill: #1f77b4; stroke: #1f77b4"/>
     <use xlink:href="#m2dee901b3f" x="256.33607" y="139.998504" style="fill: #1f77b4; stroke: #1f77b4"/>
     <use xlink:href="#m2dee901b3f" x="260.26439" y="140.562637" style="fill: #1f77b4; stroke: #1f77b4"/>
     <use xlink:href="#m2dee901b3f" x="264.160245" y="123.300174" style="fill: #1f77b4; stroke: #1f77b4"/>
     <use xlink:href="#m2dee901b3f" x="268.088565" y="115.853621" style="fill: #1f77b4; stroke: #1f77b4"/>
     <use xlink:href="#m2dee901b3f" x="271.98442" y="114.274049" style="fill: #1f77b4; stroke: #1f77b4"/>
     <use xlink:href="#m2dee901b3f" x="275.91274" y="131.536513" style="fill: #1f77b4; stroke: #1f77b4"/>
     <use xlink:href="#m2dee901b3f" x="279.808594" y="122.736041" style="fill: #1f77b4; stroke: #1f77b4"/>
     <use xlink:href="#m2dee901b3f" x="283.736914" y="112.807304" style="fill: #1f77b4; stroke: #1f77b4"/>
     <use xlink:href="#m2dee901b3f" x="287.632769" y="102.878567" style="fill: #1f77b4; stroke: #1f77b4"/>
     <use xlink:href="#m2dee901b3f" x="291.561089" y="116.53058" style="fill: #1f77b4; stroke: #1f77b4"/>
     <use xlink:href="#m2dee901b3f" x="295.456943" y="110.550773" style="fill: #1f77b4; stroke: #1f77b4"/>
     <use xlink:href="#m2dee901b3f" x="299.385263" y="118.222979" style="fill: #1f77b4; stroke: #1f77b4"/>
     <use xlink:href="#m2dee901b3f" x="303.281118" y="116.53058" style="fill: #1f77b4; stroke: #1f77b4"/>
     <use xlink:href="#m2dee901b3f" x="307.209438" y="91.144605" style="fill: #1f77b4; stroke: #1f77b4"/>
     <use xlink:href="#m2dee901b3f" x="311.105292" y="82.231307" style="fill: #1f77b4; stroke: #1f77b4"/>
     <use xlink:href="#m2dee901b3f" x="315.033612" y="95.657667" style="fill: #1f77b4; stroke: #1f77b4"/>
     <use xlink:href="#m2dee901b3f" x="318.929467" y="80.764562" style="fill: #1f77b4; stroke: #1f77b4"/>
     <use xlink:href="#m2dee901b3f" x="322.857787" y="85.277624" style="fill: #1f77b4; stroke: #1f77b4"/>
     <use xlink:href="#m2dee901b3f" x="326.753641" y="93.965269" style="fill: #1f77b4; stroke: #1f77b4"/>
     <use xlink:href="#m2dee901b3f" x="330.681961" y="79.861949" style="fill: #1f77b4; stroke: #1f77b4"/>
     <use xlink:href="#m2dee901b3f" x="334.577816" y="63.840578" style="fill: #1f77b4; stroke: #1f77b4"/>
     <use xlink:href="#m2dee901b3f" x="338.506136" y="78.959337" style="fill: #1f77b4; stroke: #1f77b4"/>
     <use xlink:href="#m2dee901b3f" x="342.40199" y="58.086424" style="fill: #1f77b4; stroke: #1f77b4"/>
     <use xlink:href="#m2dee901b3f" x="346.33031" y="102.652914" style="fill: #1f77b4; stroke: #1f77b4"/>
     <use xlink:href="#m2dee901b3f" x="350.226165" y="61.132741" style="fill: #1f77b4; stroke: #1f77b4"/>
     <use xlink:href="#m2dee901b3f" x="354.154485" y="66.661242" style="fill: #1f77b4; stroke: #1f77b4"/>
     <use xlink:href="#m2dee901b3f" x="358.05034" y="68.240814" style="fill: #1f77b4; stroke: #1f77b4"/>
     <use xlink:href="#m2dee901b3f" x="361.97866" y="61.132741" style="fill: #1f77b4; stroke: #1f77b4"/>
     <use xlink:href="#m2dee901b3f" x="365.874514" y="81.892827" style="fill: #1f77b4; stroke: #1f77b4"/>
     <use xlink:href="#m2dee901b3f" x="369.802834" y="59.214689" style="fill: #1f77b4; stroke: #1f77b4"/>
     <use xlink:href="#m2dee901b3f" x="373.698689" y="49.962912" style="fill: #1f77b4; stroke: #1f77b4"/>
     <use xlink:href="#m2dee901b3f" x="377.627009" y="34.6185" style="fill: #1f77b4; stroke: #1f77b4"/>
     <use xlink:href="#m2dee901b3f" x="381.490398" y="54.475974" style="fill: #1f77b4; stroke: #1f77b4"/>
    </g>
   </g>
   <g id="patch_3">
    <path d="M 40.603125 288.6345 
L 40.603125 22.5225 
" style="fill: none; stroke: #000000; stroke-width: 0.8; stroke-linejoin: miter; stroke-linecap: square"/>
   </g>
   <g id="patch_4">
    <path d="M 397.723125 288.6345 
L 397.723125 22.5225 
" style="fill: none; stroke: #000000; stroke-width: 0.8; stroke-linejoin: miter; stroke-linecap: square"/>
   </g>
   <g id="patch_5">
    <path d="M 40.603125 288.6345 
L 397.723125 288.6345 
" style="fill: none; stroke: #000000; stroke-width: 0.8; stroke-linejoin: miter; stroke-linecap: square"/>
   </g>
   <g id="patch_6">
    <path d="M 40.603125 22.5225 
L 397.723125 22.5225 
" style="fill: none; stroke: #000000; stroke-width: 0.8; stroke-linejoin: miter; stroke-linecap: square"/>
   </g>
   <g id="text_14">
    <!-- y = β1x + β0 + e -->
    <g transform="translate(154.232216 251.696796) scale(0.1 -0.1)">
     <defs>
      <path id="DejaVuSans-79" d="M 2059 -325 
Q 1816 -950 1584 -1140 
Q 1353 -1331 966 -1331 
L 506 -1331 
L 506 -850 
L 844 -850 
Q 1081 -850 1212 -737 
Q 1344 -625 1503 -206 
L 1606 56 
L 191 3500 
L 800 3500 
L 1894 763 
L 2988 3500 
L 3597 3500 
L 2059 -325 
z
" transform="scale(0.015625)"/>
      <path id="DejaVuSans-3d" d="M 678 2906 
L 4684 2906 
L 4684 2381 
L 678 2381 
L 678 2906 
z
M 678 1631 
L 4684 1631 
L 4684 1100 
L 678 1100 
L 678 1631 
z
" transform="scale(0.015625)"/>
      <path id="DejaVuSans-3b2" d="M 1178 216 
L 1178 -1331 
L 600 -1331 
L 600 3478 
Q 600 4903 1931 4903 
Q 3288 4903 3288 3700 
Q 3288 2844 2750 2531 
Q 3625 2250 3625 1416 
Q 3625 -66 2119 -66 
Q 1456 -66 1178 216 
z
M 1178 966 
Q 1525 425 2141 425 
Q 3041 425 3041 1406 
Q 3041 2288 1591 2219 
L 1591 2750 
Q 2725 2750 2725 3750 
Q 2725 4434 1994 4434 
Q 1178 4434 1178 3459 
L 1178 966 
z
" transform="scale(0.015625)"/>
      <path id="DejaVuSans-78" d="M 3513 3500 
L 2247 1797 
L 3578 0 
L 2900 0 
L 1881 1375 
L 863 0 
L 184 0 
L 1544 1831 
L 300 3500 
L 978 3500 
L 1906 2253 
L 2834 3500 
L 3513 3500 
z
" transform="scale(0.015625)"/>
      <path id="DejaVuSans-2b" d="M 2944 4013 
L 2944 2272 
L 4684 2272 
L 4684 1741 
L 2944 1741 
L 2944 0 
L 2419 0 
L 2419 1741 
L 678 1741 
L 678 2272 
L 2419 2272 
L 2419 4013 
L 2944 4013 
z
" transform="scale(0.015625)"/>
     </defs>
     <use xlink:href="#DejaVuSans-79"/>
     <use xlink:href="#DejaVuSans-20" x="59.179688"/>
     <use xlink:href="#DejaVuSans-3d" x="90.966797"/>
     <use xlink:href="#DejaVuSans-20" x="174.755859"/>
     <use xlink:href="#DejaVuSans-3b2" x="206.542969"/>
     <use xlink:href="#DejaVuSans-31" x="270.361328"/>
     <use xlink:href="#DejaVuSans-78" x="333.984375"/>
     <use xlink:href="#DejaVuSans-20" x="393.164062"/>
     <use xlink:href="#DejaVuSans-2b" x="424.951172"/>
     <use xlink:href="#DejaVuSans-20" x="508.740234"/>
     <use xlink:href="#DejaVuSans-3b2" x="540.527344"/>
     <use xlink:href="#DejaVuSans-30" x="604.345703"/>
     <use xlink:href="#DejaVuSans-20" x="667.96875"/>
     <use xlink:href="#DejaVuSans-2b" x="699.755859"/>
     <use xlink:href="#DejaVuSans-20" x="783.544922"/>
     <use xlink:href="#DejaVuSans-65" x="815.332031"/>
    </g>
   </g>
   <g id="text_15">
    <!-- β1 ≃ 2.019083544516072  β0 ≃ 2.798239629499106 -->
    <g transform="translate(121.766761 274.262107) scale(0.1 -0.1)">
     <defs>
      <path id="DejaVuSans-2243" d="M 4684 3163 
L 4684 2606 
Q 4356 2359 4076 2251 
Q 3797 2144 3494 2144 
Q 3150 2144 2694 2328 
L 2641 2350 
Q 2622 2356 2575 2375 
Q 2091 2566 1797 2566 
Q 1522 2566 1253 2447 
Q 984 2328 678 2069 
L 678 2625 
Q 1006 2869 1286 2976 
Q 1566 3084 1869 3084 
Q 2213 3084 2672 2900 
L 2719 2881 
L 2788 2853 
Q 3272 2663 3566 2663 
Q 3834 2663 4098 2780 
Q 4363 2897 4684 3163 
z
M 678 1631 
L 4684 1631 
L 4684 1100 
L 678 1100 
L 678 1631 
z
" transform="scale(0.015625)"/>
      <path id="DejaVuSans-2e" d="M 684 794 
L 1344 794 
L 1344 0 
L 684 0 
L 684 794 
z
" transform="scale(0.015625)"/>
      <path id="DejaVuSans-39" d="M 703 97 
L 703 672 
Q 941 559 1184 500 
Q 1428 441 1663 441 
Q 2288 441 2617 861 
Q 2947 1281 2994 2138 
Q 2813 1869 2534 1725 
Q 2256 1581 1919 1581 
Q 1219 1581 811 2004 
Q 403 2428 403 3163 
Q 403 3881 828 4315 
Q 1253 4750 1959 4750 
Q 2769 4750 3195 4129 
Q 3622 3509 3622 2328 
Q 3622 1225 3098 567 
Q 2575 -91 1691 -91 
Q 1453 -91 1209 -44 
Q 966 3 703 97 
z
M 1959 2075 
Q 2384 2075 2632 2365 
Q 2881 2656 2881 3163 
Q 2881 3666 2632 3958 
Q 2384 4250 1959 4250 
Q 1534 4250 1286 3958 
Q 1038 3666 1038 3163 
Q 1038 2656 1286 2365 
Q 1534 2075 1959 2075 
z
" transform="scale(0.015625)"/>
      <path id="DejaVuSans-33" d="M 2597 2516 
Q 3050 2419 3304 2112 
Q 3559 1806 3559 1356 
Q 3559 666 3084 287 
Q 2609 -91 1734 -91 
Q 1441 -91 1130 -33 
Q 819 25 488 141 
L 488 750 
Q 750 597 1062 519 
Q 1375 441 1716 441 
Q 2309 441 2620 675 
Q 2931 909 2931 1356 
Q 2931 1769 2642 2001 
Q 2353 2234 1838 2234 
L 1294 2234 
L 1294 2753 
L 1863 2753 
Q 2328 2753 2575 2939 
Q 2822 3125 2822 3475 
Q 2822 3834 2567 4026 
Q 2313 4219 1838 4219 
Q 1578 4219 1281 4162 
Q 984 4106 628 3988 
L 628 4550 
Q 988 4650 1302 4700 
Q 1616 4750 1894 4750 
Q 2613 4750 3031 4423 
Q 3450 4097 3450 3541 
Q 3450 3153 3228 2886 
Q 3006 2619 2597 2516 
z
" transform="scale(0.015625)"/>
      <path id="DejaVuSans-37" d="M 525 4666 
L 3525 4666 
L 3525 4397 
L 1831 0 
L 1172 0 
L 2766 4134 
L 525 4134 
L 525 4666 
z
" transform="scale(0.015625)"/>
     </defs>
     <use xlink:href="#DejaVuSans-3b2"/>
     <use xlink:href="#DejaVuSans-31" x="63.818359"/>
     <use xlink:href="#DejaVuSans-20" x="127.441406"/>
     <use xlink:href="#DejaVuSans-2243" x="159.228516"/>
     <use xlink:href="#DejaVuSans-20" x="243.017578"/>
     <use xlink:href="#DejaVuSans-32" x="274.804688"/>
     <use xlink:href="#DejaVuSans-2e" x="338.427734"/>
     <use xlink:href="#DejaVuSans-30" x="370.214844"/>
     <use xlink:href="#DejaVuSans-31" x="433.837891"/>
     <use xlink:href="#DejaVuSans-39" x="497.460938"/>
     <use xlink:href="#DejaVuSans-30" x="561.083984"/>
     <use xlink:href="#DejaVuSans-38" x="624.707031"/>
     <use xlink:href="#DejaVuSans-33" x="688.330078"/>
     <use xlink:href="#DejaVuSans-35" x="751.953125"/>
     <use xlink:href="#DejaVuSans-34" x="815.576172"/>
     <use xlink:href="#DejaVuSans-34" x="879.199219"/>
     <use xlink:href="#DejaVuSans-35" x="942.822266"/>
     <use xlink:href="#DejaVuSans-31" x="1006.445312"/>
     <use xlink:href="#DejaVuSans-36" x="1070.068359"/>
     <use xlink:href="#DejaVuSans-30" x="1133.691406"/>
     <use xlink:href="#DejaVuSans-37" x="1197.314453"/>
     <use xlink:href="#DejaVuSans-32" x="1260.9375"/>
     <use xlink:href="#DejaVuSans-20" x="1324.560547"/>
     <use xlink:href="#DejaVuSans-20" x="1356.347656"/>
     <use xlink:href="#DejaVuSans-3b2" x="1388.134766"/>
     <use xlink:href="#DejaVuSans-30" x="1451.953125"/>
     <use xlink:href="#DejaVuSans-20" x="1515.576172"/>
     <use xlink:href="#DejaVuSans-2243" x="1547.363281"/>
     <use xlink:href="#DejaVuSans-20" x="1631.152344"/>
     <use xlink:href="#DejaVuSans-32" x="1662.939453"/>
     <use xlink:href="#DejaVuSans-2e" x="1726.5625"/>
     <use xlink:href="#DejaVuSans-37" x="1758.349609"/>
     <use xlink:href="#DejaVuSans-39" x="1821.972656"/>
     <use xlink:href="#DejaVuSans-38" x="1885.595703"/>
     <use xlink:href="#DejaVuSans-32" x="1949.21875"/>
     <use xlink:href="#DejaVuSans-33" x="2012.841797"/>
     <use xlink:href="#DejaVuSans-39" x="2076.464844"/>
     <use xlink:href="#DejaVuSans-36" x="2140.087891"/>
     <use xlink:href="#DejaVuSans-32" x="2203.710938"/>
     <use xlink:href="#DejaVuSans-39" x="2267.333984"/>
     <use xlink:href="#DejaVuSans-34" x="2330.957031"/>
     <use xlink:href="#DejaVuSans-39" x="2394.580078"/>
     <use xlink:href="#DejaVuSans-39" x="2458.203125"/>
     <use xlink:href="#DejaVuSans-31" x="2521.826172"/>
     <use xlink:href="#DejaVuSans-30" x="2585.449219"/>
     <use xlink:href="#DejaVuSans-36" x="2649.072266"/>
    </g>
   </g>
   <g id="text_16">
    <!-- KNN Comparação -->
    <g transform="translate(166.362188 16.5225) scale(0.12 -0.12)">
     <defs>
      <path id="DejaVuSans-4b" d="M 628 4666 
L 1259 4666 
L 1259 2694 
L 3353 4666 
L 4166 4666 
L 1850 2491 
L 4331 0 
L 3500 0 
L 1259 2247 
L 1259 0 
L 628 0 
L 628 4666 
z
" transform="scale(0.015625)"/>
      <path id="DejaVuSans-4e" d="M 628 4666 
L 1478 4666 
L 3547 763 
L 3547 4666 
L 4159 4666 
L 4159 0 
L 3309 0 
L 1241 3903 
L 1241 0 
L 628 0 
L 628 4666 
z
" transform="scale(0.015625)"/>
      <path id="DejaVuSans-6d" d="M 3328 2828 
Q 3544 3216 3844 3400 
Q 4144 3584 4550 3584 
Q 5097 3584 5394 3201 
Q 5691 2819 5691 2113 
L 5691 0 
L 5113 0 
L 5113 2094 
Q 5113 2597 4934 2840 
Q 4756 3084 4391 3084 
Q 3944 3084 3684 2787 
Q 3425 2491 3425 1978 
L 3425 0 
L 2847 0 
L 2847 2094 
Q 2847 2600 2669 2842 
Q 2491 3084 2119 3084 
Q 1678 3084 1418 2786 
Q 1159 2488 1159 1978 
L 1159 0 
L 581 0 
L 581 3500 
L 1159 3500 
L 1159 2956 
Q 1356 3278 1631 3431 
Q 1906 3584 2284 3584 
Q 2666 3584 2933 3390 
Q 3200 3197 3328 2828 
z
" transform="scale(0.015625)"/>
      <path id="DejaVuSans-70" d="M 1159 525 
L 1159 -1331 
L 581 -1331 
L 581 3500 
L 1159 3500 
L 1159 2969 
Q 1341 3281 1617 3432 
Q 1894 3584 2278 3584 
Q 2916 3584 3314 3078 
Q 3713 2572 3713 1747 
Q 3713 922 3314 415 
Q 2916 -91 2278 -91 
Q 1894 -91 1617 61 
Q 1341 213 1159 525 
z
M 3116 1747 
Q 3116 2381 2855 2742 
Q 2594 3103 2138 3103 
Q 1681 3103 1420 2742 
Q 1159 2381 1159 1747 
Q 1159 1113 1420 752 
Q 1681 391 2138 391 
Q 2594 391 2855 752 
Q 3116 1113 3116 1747 
z
" transform="scale(0.015625)"/>
      <path id="DejaVuSans-61" d="M 2194 1759 
Q 1497 1759 1228 1600 
Q 959 1441 959 1056 
Q 959 750 1161 570 
Q 1363 391 1709 391 
Q 2188 391 2477 730 
Q 2766 1069 2766 1631 
L 2766 1759 
L 2194 1759 
z
M 3341 1997 
L 3341 0 
L 2766 0 
L 2766 531 
Q 2569 213 2275 61 
Q 1981 -91 1556 -91 
Q 1019 -91 701 211 
Q 384 513 384 1019 
Q 384 1609 779 1909 
Q 1175 2209 1959 2209 
L 2766 2209 
L 2766 2266 
Q 2766 2663 2505 2880 
Q 2244 3097 1772 3097 
Q 1472 3097 1187 3025 
Q 903 2953 641 2809 
L 641 3341 
Q 956 3463 1253 3523 
Q 1550 3584 1831 3584 
Q 2591 3584 2966 3190 
Q 3341 2797 3341 1997 
z
" transform="scale(0.015625)"/>
      <path id="DejaVuSans-e7" d="M 3122 3366 
L 3122 2828 
Q 2878 2963 2633 3030 
Q 2388 3097 2138 3097 
Q 1578 3097 1268 2742 
Q 959 2388 959 1747 
Q 959 1106 1268 751 
Q 1578 397 2138 397 
Q 2388 397 2633 464 
Q 2878 531 3122 666 
L 3122 134 
Q 2881 22 2623 -34 
Q 2366 -91 2075 -91 
Q 1284 -91 818 406 
Q 353 903 353 1747 
Q 353 2603 823 3093 
Q 1294 3584 2113 3584 
Q 2378 3584 2631 3529 
Q 2884 3475 3122 3366 
z
M 2311 0 
Q 2482 -194 2566 -358 
Q 2651 -522 2651 -672 
Q 2651 -950 2463 -1092 
Q 2276 -1234 1907 -1234 
Q 1764 -1234 1628 -1215 
Q 1492 -1197 1357 -1159 
L 1357 -750 
Q 1464 -803 1579 -826 
Q 1695 -850 1842 -850 
Q 2026 -850 2120 -775 
Q 2214 -700 2214 -556 
Q 2214 -463 2146 -327 
Q 2079 -191 1939 0 
L 2311 0 
z
" transform="scale(0.015625)"/>
     </defs>
     <use xlink:href="#DejaVuSans-4b"/>
     <use xlink:href="#DejaVuSans-4e" x="65.576172"/>
     <use xlink:href="#DejaVuSans-4e" x="140.380859"/>
     <use xlink:href="#DejaVuSans-20" x="215.185547"/>
     <use xlink:href="#DejaVuSans-43" x="246.972656"/>
     <use xlink:href="#DejaVuSans-6f" x="316.796875"/>
     <use xlink:href="#DejaVuSans-6d" x="377.978516"/>
     <use xlink:href="#DejaVuSans-70" x="475.390625"/>
     <use xlink:href="#DejaVuSans-61" x="538.867188"/>
     <use xlink:href="#DejaVuSans-72" x="600.146484"/>
     <use xlink:href="#DejaVuSans-61" x="641.259766"/>
     <use xlink:href="#DejaVuSans-e7" x="702.539062"/>
     <use xlink:href="#DejaVuSans-e3" x="757.519531"/>
     <use xlink:href="#DejaVuSans-6f" x="818.798828"/>
    </g>
   </g>
   <g id="legend_1">
    <g id="patch_7">
     <path d="M 47.603125 74.835 
L 193.632813 74.835 
Q 195.632813 74.835 195.632813 72.835 
L 195.632813 29.5225 
Q 195.632813 27.5225 193.632813 27.5225 
L 47.603125 27.5225 
Q 45.603125 27.5225 45.603125 29.5225 
L 45.603125 72.835 
Q 45.603125 74.835 47.603125 74.835 
z
" style="fill: #ffffff; opacity: 0.8; stroke: #cccccc; stroke-linejoin: miter"/>
    </g>
    <g id="line2d_15">
     <path d="M 49.603125 35.620937 
L 59.603125 35.620937 
L 69.603125 35.620937 
" style="fill: none; stroke: #ff0000; stroke-width: 1.5; stroke-linecap: square"/>
    </g>
    <g id="text_17">
     <!-- KNN n = 7 -->
     <g transform="translate(77.603125 39.120937) scale(0.1 -0.1)">
      <use xlink:href="#DejaVuSans-4b"/>
      <use xlink:href="#DejaVuSans-4e" x="65.576172"/>
      <use xlink:href="#DejaVuSans-4e" x="140.380859"/>
      <use xlink:href="#DejaVuSans-20" x="215.185547"/>
      <use xlink:href="#DejaVuSans-6e" x="246.972656"/>
      <use xlink:href="#DejaVuSans-20" x="310.351562"/>
      <use xlink:href="#DejaVuSans-3d" x="342.138672"/>
      <use xlink:href="#DejaVuSans-20" x="425.927734"/>
      <use xlink:href="#DejaVuSans-37" x="457.714844"/>
     </g>
    </g>
    <g id="line2d_16">
     <path d="M 49.603125 50.299062 
L 59.603125 50.299062 
L 69.603125 50.299062 
" style="fill: none; stroke: #000000; stroke-width: 1.5; stroke-linecap: square"/>
    </g>
    <g id="text_18">
     <!-- model.linear_model() -->
     <g transform="translate(77.603125 53.799062) scale(0.1 -0.1)">
      <defs>
       <path id="DejaVuSans-64" d="M 2906 2969 
L 2906 4863 
L 3481 4863 
L 3481 0 
L 2906 0 
L 2906 525 
Q 2725 213 2448 61 
Q 2172 -91 1784 -91 
Q 1150 -91 751 415 
Q 353 922 353 1747 
Q 353 2572 751 3078 
Q 1150 3584 1784 3584 
Q 2172 3584 2448 3432 
Q 2725 3281 2906 2969 
z
M 947 1747 
Q 947 1113 1208 752 
Q 1469 391 1925 391 
Q 2381 391 2643 752 
Q 2906 1113 2906 1747 
Q 2906 2381 2643 2742 
Q 2381 3103 1925 3103 
Q 1469 3103 1208 2742 
Q 947 2381 947 1747 
z
" transform="scale(0.015625)"/>
       <path id="DejaVuSans-6c" d="M 603 4863 
L 1178 4863 
L 1178 0 
L 603 0 
L 603 4863 
z
" transform="scale(0.015625)"/>
       <path id="DejaVuSans-69" d="M 603 3500 
L 1178 3500 
L 1178 0 
L 603 0 
L 603 3500 
z
M 603 4863 
L 1178 4863 
L 1178 4134 
L 603 4134 
L 603 4863 
z
" transform="scale(0.015625)"/>
       <path id="DejaVuSans-5f" d="M 3263 -1063 
L 3263 -1509 
L -63 -1509 
L -63 -1063 
L 3263 -1063 
z
" transform="scale(0.015625)"/>
      </defs>
      <use xlink:href="#DejaVuSans-6d"/>
      <use xlink:href="#DejaVuSans-6f" x="97.412109"/>
      <use xlink:href="#DejaVuSans-64" x="158.59375"/>
      <use xlink:href="#DejaVuSans-65" x="222.070312"/>
      <use xlink:href="#DejaVuSans-6c" x="283.59375"/>
      <use xlink:href="#DejaVuSans-2e" x="311.376953"/>
      <use xlink:href="#DejaVuSans-6c" x="343.164062"/>
      <use xlink:href="#DejaVuSans-69" x="370.947266"/>
      <use xlink:href="#DejaVuSans-6e" x="398.730469"/>
      <use xlink:href="#DejaVuSans-65" x="462.109375"/>
      <use xlink:href="#DejaVuSans-61" x="523.632812"/>
      <use xlink:href="#DejaVuSans-72" x="584.912109"/>
      <use xlink:href="#DejaVuSans-5f" x="626.025391"/>
      <use xlink:href="#DejaVuSans-6d" x="676.025391"/>
      <use xlink:href="#DejaVuSans-6f" x="773.4375"/>
      <use xlink:href="#DejaVuSans-64" x="834.619141"/>
      <use xlink:href="#DejaVuSans-65" x="898.095703"/>
      <use xlink:href="#DejaVuSans-6c" x="959.619141"/>
      <use xlink:href="#DejaVuSans-28" x="987.402344"/>
      <use xlink:href="#DejaVuSans-29" x="1026.416016"/>
     </g>
    </g>
    <g id="line2d_17">
     <g>
      <use xlink:href="#m2dee901b3f" x="59.603125" y="65.255312" style="fill: #1f77b4; stroke: #1f77b4"/>
     </g>
    </g>
    <g id="text_19">
     <!-- DADOS DE DISPERSÃO -->
     <g transform="translate(77.603125 68.755312) scale(0.1 -0.1)">
      <defs>
       <path id="DejaVuSans-44" d="M 1259 4147 
L 1259 519 
L 2022 519 
Q 2988 519 3436 956 
Q 3884 1394 3884 2338 
Q 3884 3275 3436 3711 
Q 2988 4147 2022 4147 
L 1259 4147 
z
M 628 4666 
L 1925 4666 
Q 3281 4666 3915 4102 
Q 4550 3538 4550 2338 
Q 4550 1131 3912 565 
Q 3275 0 1925 0 
L 628 0 
L 628 4666 
z
" transform="scale(0.015625)"/>
       <path id="DejaVuSans-4f" d="M 2522 4238 
Q 1834 4238 1429 3725 
Q 1025 3213 1025 2328 
Q 1025 1447 1429 934 
Q 1834 422 2522 422 
Q 3209 422 3611 934 
Q 4013 1447 4013 2328 
Q 4013 3213 3611 3725 
Q 3209 4238 2522 4238 
z
M 2522 4750 
Q 3503 4750 4090 4092 
Q 4678 3434 4678 2328 
Q 4678 1225 4090 567 
Q 3503 -91 2522 -91 
Q 1538 -91 948 565 
Q 359 1222 359 2328 
Q 359 3434 948 4092 
Q 1538 4750 2522 4750 
z
" transform="scale(0.015625)"/>
       <path id="DejaVuSans-53" d="M 3425 4513 
L 3425 3897 
Q 3066 4069 2747 4153 
Q 2428 4238 2131 4238 
Q 1616 4238 1336 4038 
Q 1056 3838 1056 3469 
Q 1056 3159 1242 3001 
Q 1428 2844 1947 2747 
L 2328 2669 
Q 3034 2534 3370 2195 
Q 3706 1856 3706 1288 
Q 3706 609 3251 259 
Q 2797 -91 1919 -91 
Q 1588 -91 1214 -16 
Q 841 59 441 206 
L 441 856 
Q 825 641 1194 531 
Q 1563 422 1919 422 
Q 2459 422 2753 634 
Q 3047 847 3047 1241 
Q 3047 1584 2836 1778 
Q 2625 1972 2144 2069 
L 1759 2144 
Q 1053 2284 737 2584 
Q 422 2884 422 3419 
Q 422 4038 858 4394 
Q 1294 4750 2059 4750 
Q 2388 4750 2728 4690 
Q 3069 4631 3425 4513 
z
" transform="scale(0.015625)"/>
       <path id="DejaVuSans-45" d="M 628 4666 
L 3578 4666 
L 3578 4134 
L 1259 4134 
L 1259 2753 
L 3481 2753 
L 3481 2222 
L 1259 2222 
L 1259 531 
L 3634 531 
L 3634 0 
L 628 0 
L 628 4666 
z
" transform="scale(0.015625)"/>
       <path id="DejaVuSans-49" d="M 628 4666 
L 1259 4666 
L 1259 0 
L 628 0 
L 628 4666 
z
" transform="scale(0.015625)"/>
       <path id="DejaVuSans-50" d="M 1259 4147 
L 1259 2394 
L 2053 2394 
Q 2494 2394 2734 2622 
Q 2975 2850 2975 3272 
Q 2975 3691 2734 3919 
Q 2494 4147 2053 4147 
L 1259 4147 
z
M 628 4666 
L 2053 4666 
Q 2838 4666 3239 4311 
Q 3641 3956 3641 3272 
Q 3641 2581 3239 2228 
Q 2838 1875 2053 1875 
L 1259 1875 
L 1259 0 
L 628 0 
L 628 4666 
z
" transform="scale(0.015625)"/>
       <path id="DejaVuSans-52" d="M 2841 2188 
Q 3044 2119 3236 1894 
Q 3428 1669 3622 1275 
L 4263 0 
L 3584 0 
L 2988 1197 
Q 2756 1666 2539 1819 
Q 2322 1972 1947 1972 
L 1259 1972 
L 1259 0 
L 628 0 
L 628 4666 
L 2053 4666 
Q 2853 4666 3247 4331 
Q 3641 3997 3641 3322 
Q 3641 2881 3436 2590 
Q 3231 2300 2841 2188 
z
M 1259 4147 
L 1259 2491 
L 2053 2491 
Q 2509 2491 2742 2702 
Q 2975 2913 2975 3322 
Q 2975 3731 2742 3939 
Q 2509 4147 2053 4147 
L 1259 4147 
z
" transform="scale(0.015625)"/>
       <path id="DejaVuSans-c3" d="M 2188 4044 
L 1331 1722 
L 3047 1722 
L 2188 4044 
z
M 1831 4666 
L 2547 4666 
L 4325 0 
L 3669 0 
L 3244 1197 
L 1141 1197 
L 716 0 
L 50 0 
L 1831 4666 
z
M 2172 5330 
L 1993 5433 
Q 1915 5477 1866 5494 
Q 1818 5511 1781 5511 
Q 1668 5511 1605 5433 
Q 1543 5355 1543 5215 
L 1543 5196 
L 1153 5196 
Q 1153 5511 1314 5695 
Q 1475 5880 1743 5880 
Q 1856 5880 1951 5855 
Q 2047 5830 2197 5746 
L 2375 5652 
Q 2447 5611 2500 5592 
Q 2553 5574 2600 5574 
Q 2700 5574 2762 5653 
Q 2825 5733 2825 5861 
L 2825 5880 
L 3215 5880 
Q 3209 5568 3048 5382 
Q 2887 5196 2625 5196 
Q 2518 5196 2426 5221 
Q 2334 5246 2172 5330 
z
" transform="scale(0.015625)"/>
      </defs>
      <use xlink:href="#DejaVuSans-44"/>
      <use xlink:href="#DejaVuSans-41" x="75.251953"/>
      <use xlink:href="#DejaVuSans-44" x="143.660156"/>
      <use xlink:href="#DejaVuSans-4f" x="220.662109"/>
      <use xlink:href="#DejaVuSans-53" x="299.373047"/>
      <use xlink:href="#DejaVuSans-20" x="362.849609"/>
      <use xlink:href="#DejaVuSans-44" x="394.636719"/>
      <use xlink:href="#DejaVuSans-45" x="471.638672"/>
      <use xlink:href="#DejaVuSans-20" x="534.822266"/>
      <use xlink:href="#DejaVuSans-44" x="566.609375"/>
      <use xlink:href="#DejaVuSans-49" x="643.611328"/>
      <use xlink:href="#DejaVuSans-53" x="673.103516"/>
      <use xlink:href="#DejaVuSans-50" x="736.580078"/>
      <use xlink:href="#DejaVuSans-45" x="796.882812"/>
      <use xlink:href="#DejaVuSans-52" x="860.066406"/>
      <use xlink:href="#DejaVuSans-53" x="929.548828"/>
      <use xlink:href="#DejaVuSans-c3" x="994.900391"/>
      <use xlink:href="#DejaVuSans-4f" x="1061.558594"/>
     </g>
    </g>
   </g>
  </g>
 </g>
 <defs>
  <clipPath id="p7b99413755">
   <rect x="40.603125" y="22.5225" width="357.12" height="266.112"/>
  </clipPath>
 </defs>
</svg>
