<?xml version="1.0" encoding="utf-8" standalone="no"?>
<!DOCTYPE svg PUBLIC "-//W3C//DTD SVG 1.1//EN"
  "http://www.w3.org/Graphics/SVG/1.1/DTD/svg11.dtd">
<svg xmlns:xlink="http://www.w3.org/1999/xlink" width="404.923125pt" height="326.466375pt" viewBox="0 0 404.923125 326.466375" xmlns="http://www.w3.org/2000/svg" version="1.1">
 <metadata>
  <rdf:RDF xmlns:dc="http://purl.org/dc/elements/1.1/" xmlns:cc="http://creativecommons.org/ns#" xmlns:rdf="http://www.w3.org/1999/02/22-rdf-syntax-ns#">
   <cc:Work>
    <dc:type rdf:resource="http://purl.org/dc/dcmitype/StillImage"/>
    <dc:date>2024-10-30T04:59:13.198180</dc:date>
    <dc:format>image/svg+xml</dc:format>
    <dc:creator>
     <cc:Agent>
      <dc:title>Matplotlib v3.7.1, https://matplotlib.org/</dc:title>
     </cc:Agent>
    </dc:creator>
   </cc:Work>
  </rdf:RDF>
 </metadata>
 <defs>
  <style type="text/css">*{stroke-linejoin: round; stroke-linecap: butt}</style>
 </defs>
 <g id="figure_1">
  <g id="patch_1">
   <path d="M 0 326.466375 
L 404.923125 326.466375 
L 404.923125 0 
L 0 0 
z
" style="fill: #ffffff"/>
  </g>
  <g id="axes_1">
   <g id="patch_2">
    <path d="M 40.603125 288.910125 
L 397.723125 288.910125 
L 397.723125 22.798125 
L 40.603125 22.798125 
z
" style="fill: #ffffff"/>
   </g>
   <g id="matplotlib.axis_1">
    <g id="xtick_1">
     <g id="line2d_1">
      <defs>
       <path id="m2da1a17669" d="M 0 0 
L 0 3.5 
" style="stroke: #000000; stroke-width: 0.8"/>
      </defs>
      <g>
       <use xlink:href="#m2da1a17669" x="56.835852" y="288.910125" style="stroke: #000000; stroke-width: 0.8"/>
      </g>
     </g>
     <g id="text_1">
      <!-- 0 -->
      <g transform="translate(53.654602 303.508562) scale(0.1 -0.1)">
       <defs>
        <path id="DejaVuSans-30" d="M 2034 4250 
Q 1547 4250 1301 3770 
Q 1056 3291 1056 2328 
Q 1056 1369 1301 889 
Q 1547 409 2034 409 
Q 2525 409 2770 889 
Q 3016 1369 3016 2328 
Q 3016 3291 2770 3770 
Q 2525 4250 2034 4250 
z
M 2034 4750 
Q 2819 4750 3233 4129 
Q 3647 3509 3647 2328 
Q 3647 1150 3233 529 
Q 2819 -91 2034 -91 
Q 1250 -91 836 529 
Q 422 1150 422 2328 
Q 422 3509 836 4129 
Q 1250 4750 2034 4750 
z
" transform="scale(0.015625)"/>
       </defs>
       <use xlink:href="#DejaVuSans-30"/>
      </g>
     </g>
    </g>
    <g id="xtick_2">
     <g id="line2d_2">
      <g>
       <use xlink:href="#m2da1a17669" x="121.766761" y="288.910125" style="stroke: #000000; stroke-width: 0.8"/>
      </g>
     </g>
     <g id="text_2">
      <!-- 2 -->
      <g transform="translate(118.585511 303.508562) scale(0.1 -0.1)">
       <defs>
        <path id="DejaVuSans-32" d="M 1228 531 
L 3431 531 
L 3431 0 
L 469 0 
L 469 531 
Q 828 903 1448 1529 
Q 2069 2156 2228 2338 
Q 2531 2678 2651 2914 
Q 2772 3150 2772 3378 
Q 2772 3750 2511 3984 
Q 2250 4219 1831 4219 
Q 1534 4219 1204 4116 
Q 875 4013 500 3803 
L 500 4441 
Q 881 4594 1212 4672 
Q 1544 4750 1819 4750 
Q 2544 4750 2975 4387 
Q 3406 4025 3406 3419 
Q 3406 3131 3298 2873 
Q 3191 2616 2906 2266 
Q 2828 2175 2409 1742 
Q 1991 1309 1228 531 
z
" transform="scale(0.015625)"/>
       </defs>
       <use xlink:href="#DejaVuSans-32"/>
      </g>
     </g>
    </g>
    <g id="xtick_3">
     <g id="line2d_3">
      <g>
       <use xlink:href="#m2da1a17669" x="186.69767" y="288.910125" style="stroke: #000000; stroke-width: 0.8"/>
      </g>
     </g>
     <g id="text_3">
      <!-- 4 -->
      <g transform="translate(183.51642 303.508562) scale(0.1 -0.1)">
       <defs>
        <path id="DejaVuSans-34" d="M 2419 4116 
L 825 1625 
L 2419 1625 
L 2419 4116 
z
M 2253 4666 
L 3047 4666 
L 3047 1625 
L 3713 1625 
L 3713 1100 
L 3047 1100 
L 3047 0 
L 2419 0 
L 2419 1100 
L 313 1100 
L 313 1709 
L 2253 4666 
z
" transform="scale(0.015625)"/>
       </defs>
       <use xlink:href="#DejaVuSans-34"/>
      </g>
     </g>
    </g>
    <g id="xtick_4">
     <g id="line2d_4">
      <g>
       <use xlink:href="#m2da1a17669" x="251.62858" y="288.910125" style="stroke: #000000; stroke-width: 0.8"/>
      </g>
     </g>
     <g id="text_4">
      <!-- 6 -->
      <g transform="translate(248.44733 303.508562) scale(0.1 -0.1)">
       <defs>
        <path id="DejaVuSans-36" d="M 2113 2584 
Q 1688 2584 1439 2293 
Q 1191 2003 1191 1497 
Q 1191 994 1439 701 
Q 1688 409 2113 409 
Q 2538 409 2786 701 
Q 3034 994 3034 1497 
Q 3034 2003 2786 2293 
Q 2538 2584 2113 2584 
z
M 3366 4563 
L 3366 3988 
Q 3128 4100 2886 4159 
Q 2644 4219 2406 4219 
Q 1781 4219 1451 3797 
Q 1122 3375 1075 2522 
Q 1259 2794 1537 2939 
Q 1816 3084 2150 3084 
Q 2853 3084 3261 2657 
Q 3669 2231 3669 1497 
Q 3669 778 3244 343 
Q 2819 -91 2113 -91 
Q 1303 -91 875 529 
Q 447 1150 447 2328 
Q 447 3434 972 4092 
Q 1497 4750 2381 4750 
Q 2619 4750 2861 4703 
Q 3103 4656 3366 4563 
z
" transform="scale(0.015625)"/>
       </defs>
       <use xlink:href="#DejaVuSans-36"/>
      </g>
     </g>
    </g>
    <g id="xtick_5">
     <g id="line2d_5">
      <g>
       <use xlink:href="#m2da1a17669" x="316.559489" y="288.910125" style="stroke: #000000; stroke-width: 0.8"/>
      </g>
     </g>
     <g id="text_5">
      <!-- 8 -->
      <g transform="translate(313.378239 303.508562) scale(0.1 -0.1)">
       <defs>
        <path id="DejaVuSans-38" d="M 2034 2216 
Q 1584 2216 1326 1975 
Q 1069 1734 1069 1313 
Q 1069 891 1326 650 
Q 1584 409 2034 409 
Q 2484 409 2743 651 
Q 3003 894 3003 1313 
Q 3003 1734 2745 1975 
Q 2488 2216 2034 2216 
z
M 1403 2484 
Q 997 2584 770 2862 
Q 544 3141 544 3541 
Q 544 4100 942 4425 
Q 1341 4750 2034 4750 
Q 2731 4750 3128 4425 
Q 3525 4100 3525 3541 
Q 3525 3141 3298 2862 
Q 3072 2584 2669 2484 
Q 3125 2378 3379 2068 
Q 3634 1759 3634 1313 
Q 3634 634 3220 271 
Q 2806 -91 2034 -91 
Q 1263 -91 848 271 
Q 434 634 434 1313 
Q 434 1759 690 2068 
Q 947 2378 1403 2484 
z
M 1172 3481 
Q 1172 3119 1398 2916 
Q 1625 2713 2034 2713 
Q 2441 2713 2670 2916 
Q 2900 3119 2900 3481 
Q 2900 3844 2670 4047 
Q 2441 4250 2034 4250 
Q 1625 4250 1398 4047 
Q 1172 3844 1172 3481 
z
" transform="scale(0.015625)"/>
       </defs>
       <use xlink:href="#DejaVuSans-38"/>
      </g>
     </g>
    </g>
    <g id="xtick_6">
     <g id="line2d_6">
      <g>
       <use xlink:href="#m2da1a17669" x="381.490398" y="288.910125" style="stroke: #000000; stroke-width: 0.8"/>
      </g>
     </g>
     <g id="text_6">
      <!-- 10 -->
      <g transform="translate(375.127898 303.508562) scale(0.1 -0.1)">
       <defs>
        <path id="DejaVuSans-31" d="M 794 531 
L 1825 531 
L 1825 4091 
L 703 3866 
L 703 4441 
L 1819 4666 
L 2450 4666 
L 2450 531 
L 3481 531 
L 3481 0 
L 794 0 
L 794 531 
z
" transform="scale(0.015625)"/>
       </defs>
       <use xlink:href="#DejaVuSans-31"/>
       <use xlink:href="#DejaVuSans-30" x="63.623047"/>
      </g>
     </g>
    </g>
    <g id="text_7">
     <!-- Tensão (V) -->
     <g transform="translate(193.074844 317.186687) scale(0.1 -0.1)">
      <defs>
       <path id="DejaVuSans-54" d="M -19 4666 
L 3928 4666 
L 3928 4134 
L 2272 4134 
L 2272 0 
L 1638 0 
L 1638 4134 
L -19 4134 
L -19 4666 
z
" transform="scale(0.015625)"/>
       <path id="DejaVuSans-65" d="M 3597 1894 
L 3597 1613 
L 953 1613 
Q 991 1019 1311 708 
Q 1631 397 2203 397 
Q 2534 397 2845 478 
Q 3156 559 3463 722 
L 3463 178 
Q 3153 47 2828 -22 
Q 2503 -91 2169 -91 
Q 1331 -91 842 396 
Q 353 884 353 1716 
Q 353 2575 817 3079 
Q 1281 3584 2069 3584 
Q 2775 3584 3186 3129 
Q 3597 2675 3597 1894 
z
M 3022 2063 
Q 3016 2534 2758 2815 
Q 2500 3097 2075 3097 
Q 1594 3097 1305 2825 
Q 1016 2553 972 2059 
L 3022 2063 
z
" transform="scale(0.015625)"/>
       <path id="DejaVuSans-6e" d="M 3513 2113 
L 3513 0 
L 2938 0 
L 2938 2094 
Q 2938 2591 2744 2837 
Q 2550 3084 2163 3084 
Q 1697 3084 1428 2787 
Q 1159 2491 1159 1978 
L 1159 0 
L 581 0 
L 581 3500 
L 1159 3500 
L 1159 2956 
Q 1366 3272 1645 3428 
Q 1925 3584 2291 3584 
Q 2894 3584 3203 3211 
Q 3513 2838 3513 2113 
z
" transform="scale(0.015625)"/>
       <path id="DejaVuSans-73" d="M 2834 3397 
L 2834 2853 
Q 2591 2978 2328 3040 
Q 2066 3103 1784 3103 
Q 1356 3103 1142 2972 
Q 928 2841 928 2578 
Q 928 2378 1081 2264 
Q 1234 2150 1697 2047 
L 1894 2003 
Q 2506 1872 2764 1633 
Q 3022 1394 3022 966 
Q 3022 478 2636 193 
Q 2250 -91 1575 -91 
Q 1294 -91 989 -36 
Q 684 19 347 128 
L 347 722 
Q 666 556 975 473 
Q 1284 391 1588 391 
Q 1994 391 2212 530 
Q 2431 669 2431 922 
Q 2431 1156 2273 1281 
Q 2116 1406 1581 1522 
L 1381 1569 
Q 847 1681 609 1914 
Q 372 2147 372 2553 
Q 372 3047 722 3315 
Q 1072 3584 1716 3584 
Q 2034 3584 2315 3537 
Q 2597 3491 2834 3397 
z
" transform="scale(0.015625)"/>
       <path id="DejaVuSans-e3" d="M 2194 1759 
Q 1497 1759 1228 1600 
Q 959 1441 959 1056 
Q 959 750 1161 570 
Q 1363 391 1709 391 
Q 2188 391 2477 730 
Q 2766 1069 2766 1631 
L 2766 1759 
L 2194 1759 
z
M 3341 1997 
L 3341 0 
L 2766 0 
L 2766 531 
Q 2569 213 2275 61 
Q 1981 -91 1556 -91 
Q 1019 -91 701 211 
Q 384 513 384 1019 
Q 384 1609 779 1909 
Q 1175 2209 1959 2209 
L 2766 2209 
L 2766 2266 
Q 2766 2663 2505 2880 
Q 2244 3097 1772 3097 
Q 1472 3097 1187 3025 
Q 903 2953 641 2809 
L 641 3341 
Q 956 3463 1253 3523 
Q 1550 3584 1831 3584 
Q 2591 3584 2966 3190 
Q 3341 2797 3341 1997 
z
M 1844 4281 
L 1665 4453 
Q 1597 4516 1545 4545 
Q 1494 4575 1453 4575 
Q 1334 4575 1278 4461 
Q 1222 4347 1215 4091 
L 825 4091 
Q 831 4513 990 4742 
Q 1150 4972 1434 4972 
Q 1553 4972 1653 4928 
Q 1753 4884 1869 4781 
L 2047 4609 
Q 2115 4547 2167 4517 
Q 2219 4488 2259 4488 
Q 2378 4488 2434 4602 
Q 2490 4716 2497 4972 
L 2887 4972 
Q 2881 4550 2721 4320 
Q 2562 4091 2278 4091 
Q 2159 4091 2059 4134 
Q 1959 4178 1844 4281 
z
" transform="scale(0.015625)"/>
       <path id="DejaVuSans-6f" d="M 1959 3097 
Q 1497 3097 1228 2736 
Q 959 2375 959 1747 
Q 959 1119 1226 758 
Q 1494 397 1959 397 
Q 2419 397 2687 759 
Q 2956 1122 2956 1747 
Q 2956 2369 2687 2733 
Q 2419 3097 1959 3097 
z
M 1959 3584 
Q 2709 3584 3137 3096 
Q 3566 2609 3566 1747 
Q 3566 888 3137 398 
Q 2709 -91 1959 -91 
Q 1206 -91 779 398 
Q 353 888 353 1747 
Q 353 2609 779 3096 
Q 1206 3584 1959 3584 
z
" transform="scale(0.015625)"/>
       <path id="DejaVuSans-20" transform="scale(0.015625)"/>
       <path id="DejaVuSans-28" d="M 1984 4856 
Q 1566 4138 1362 3434 
Q 1159 2731 1159 2009 
Q 1159 1288 1364 580 
Q 1569 -128 1984 -844 
L 1484 -844 
Q 1016 -109 783 600 
Q 550 1309 550 2009 
Q 550 2706 781 3412 
Q 1013 4119 1484 4856 
L 1984 4856 
z
" transform="scale(0.015625)"/>
       <path id="DejaVuSans-56" d="M 1831 0 
L 50 4666 
L 709 4666 
L 2188 738 
L 3669 4666 
L 4325 4666 
L 2547 0 
L 1831 0 
z
" transform="scale(0.015625)"/>
       <path id="DejaVuSans-29" d="M 513 4856 
L 1013 4856 
Q 1481 4119 1714 3412 
Q 1947 2706 1947 2009 
Q 1947 1309 1714 600 
Q 1481 -109 1013 -844 
L 513 -844 
Q 928 -128 1133 580 
Q 1338 1288 1338 2009 
Q 1338 2731 1133 3434 
Q 928 4138 513 4856 
z
" transform="scale(0.015625)"/>
      </defs>
      <use xlink:href="#DejaVuSans-54"/>
      <use xlink:href="#DejaVuSans-65" x="44.083984"/>
      <use xlink:href="#DejaVuSans-6e" x="105.607422"/>
      <use xlink:href="#DejaVuSans-73" x="168.986328"/>
      <use xlink:href="#DejaVuSans-e3" x="221.085938"/>
      <use xlink:href="#DejaVuSans-6f" x="282.365234"/>
      <use xlink:href="#DejaVuSans-20" x="343.546875"/>
      <use xlink:href="#DejaVuSans-28" x="375.333984"/>
      <use xlink:href="#DejaVuSans-56" x="414.347656"/>
      <use xlink:href="#DejaVuSans-29" x="482.755859"/>
     </g>
    </g>
   </g>
   <g id="matplotlib.axis_2">
    <g id="ytick_1">
     <g id="line2d_7">
      <defs>
       <path id="m888db95f7f" d="M 0 0 
L -3.5 0 
" style="stroke: #000000; stroke-width: 0.8"/>
      </defs>
      <g>
       <use xlink:href="#m888db95f7f" x="40.603125" y="255.071079" style="stroke: #000000; stroke-width: 0.8"/>
      </g>
     </g>
     <g id="text_8">
      <!-- 5 -->
      <g transform="translate(27.240625 258.870297) scale(0.1 -0.1)">
       <defs>
        <path id="DejaVuSans-35" d="M 691 4666 
L 3169 4666 
L 3169 4134 
L 1269 4134 
L 1269 2991 
Q 1406 3038 1543 3061 
Q 1681 3084 1819 3084 
Q 2600 3084 3056 2656 
Q 3513 2228 3513 1497 
Q 3513 744 3044 326 
Q 2575 -91 1722 -91 
Q 1428 -91 1123 -41 
Q 819 9 494 109 
L 494 744 
Q 775 591 1075 516 
Q 1375 441 1709 441 
Q 2250 441 2565 725 
Q 2881 1009 2881 1497 
Q 2881 1984 2565 2268 
Q 2250 2553 1709 2553 
Q 1456 2553 1204 2497 
Q 953 2441 691 2322 
L 691 4666 
z
" transform="scale(0.015625)"/>
       </defs>
       <use xlink:href="#DejaVuSans-35"/>
      </g>
     </g>
    </g>
    <g id="ytick_2">
     <g id="line2d_8">
      <g>
       <use xlink:href="#m888db95f7f" x="40.603125" y="197.852536" style="stroke: #000000; stroke-width: 0.8"/>
      </g>
     </g>
     <g id="text_9">
      <!-- 10 -->
      <g transform="translate(20.878125 201.651754) scale(0.1 -0.1)">
       <use xlink:href="#DejaVuSans-31"/>
       <use xlink:href="#DejaVuSans-30" x="63.623047"/>
      </g>
     </g>
    </g>
    <g id="ytick_3">
     <g id="line2d_9">
      <g>
       <use xlink:href="#m888db95f7f" x="40.603125" y="140.633993" style="stroke: #000000; stroke-width: 0.8"/>
      </g>
     </g>
     <g id="text_10">
      <!-- 15 -->
      <g transform="translate(20.878125 144.433211) scale(0.1 -0.1)">
       <use xlink:href="#DejaVuSans-31"/>
       <use xlink:href="#DejaVuSans-35" x="63.623047"/>
      </g>
     </g>
    </g>
    <g id="ytick_4">
     <g id="line2d_10">
      <g>
       <use xlink:href="#m888db95f7f" x="40.603125" y="83.41545" style="stroke: #000000; stroke-width: 0.8"/>
      </g>
     </g>
     <g id="text_11">
      <!-- 20 -->
      <g transform="translate(20.878125 87.214668) scale(0.1 -0.1)">
       <use xlink:href="#DejaVuSans-32"/>
       <use xlink:href="#DejaVuSans-30" x="63.623047"/>
      </g>
     </g>
    </g>
    <g id="ytick_5">
     <g id="line2d_11">
      <g>
       <use xlink:href="#m888db95f7f" x="40.603125" y="26.196906" style="stroke: #000000; stroke-width: 0.8"/>
      </g>
     </g>
     <g id="text_12">
      <!-- 25 -->
      <g transform="translate(20.878125 29.996125) scale(0.1 -0.1)">
       <use xlink:href="#DejaVuSans-32"/>
       <use xlink:href="#DejaVuSans-35" x="63.623047"/>
      </g>
     </g>
    </g>
    <g id="text_13">
     <!-- Corrente (A) -->
     <g transform="translate(14.798438 186.508812) rotate(-90) scale(0.1 -0.1)">
      <defs>
       <path id="DejaVuSans-43" d="M 4122 4306 
L 4122 3641 
Q 3803 3938 3442 4084 
Q 3081 4231 2675 4231 
Q 1875 4231 1450 3742 
Q 1025 3253 1025 2328 
Q 1025 1406 1450 917 
Q 1875 428 2675 428 
Q 3081 428 3442 575 
Q 3803 722 4122 1019 
L 4122 359 
Q 3791 134 3420 21 
Q 3050 -91 2638 -91 
Q 1578 -91 968 557 
Q 359 1206 359 2328 
Q 359 3453 968 4101 
Q 1578 4750 2638 4750 
Q 3056 4750 3426 4639 
Q 3797 4528 4122 4306 
z
" transform="scale(0.015625)"/>
       <path id="DejaVuSans-72" d="M 2631 2963 
Q 2534 3019 2420 3045 
Q 2306 3072 2169 3072 
Q 1681 3072 1420 2755 
Q 1159 2438 1159 1844 
L 1159 0 
L 581 0 
L 581 3500 
L 1159 3500 
L 1159 2956 
Q 1341 3275 1631 3429 
Q 1922 3584 2338 3584 
Q 2397 3584 2469 3576 
Q 2541 3569 2628 3553 
L 2631 2963 
z
" transform="scale(0.015625)"/>
       <path id="DejaVuSans-74" d="M 1172 4494 
L 1172 3500 
L 2356 3500 
L 2356 3053 
L 1172 3053 
L 1172 1153 
Q 1172 725 1289 603 
Q 1406 481 1766 481 
L 2356 481 
L 2356 0 
L 1766 0 
Q 1100 0 847 248 
Q 594 497 594 1153 
L 594 3053 
L 172 3053 
L 172 3500 
L 594 3500 
L 594 4494 
L 1172 4494 
z
" transform="scale(0.015625)"/>
       <path id="DejaVuSans-41" d="M 2188 4044 
L 1331 1722 
L 3047 1722 
L 2188 4044 
z
M 1831 4666 
L 2547 4666 
L 4325 0 
L 3669 0 
L 3244 1197 
L 1141 1197 
L 716 0 
L 50 0 
L 1831 4666 
z
" transform="scale(0.015625)"/>
      </defs>
      <use xlink:href="#DejaVuSans-43"/>
      <use xlink:href="#DejaVuSans-6f" x="69.824219"/>
      <use xlink:href="#DejaVuSans-72" x="131.005859"/>
      <use xlink:href="#DejaVuSans-72" x="170.369141"/>
      <use xlink:href="#DejaVuSans-65" x="209.232422"/>
      <use xlink:href="#DejaVuSans-6e" x="270.755859"/>
      <use xlink:href="#DejaVuSans-74" x="334.134766"/>
      <use xlink:href="#DejaVuSans-65" x="373.34375"/>
      <use xlink:href="#DejaVuSans-20" x="434.867188"/>
      <use xlink:href="#DejaVuSans-28" x="466.654297"/>
      <use xlink:href="#DejaVuSans-41" x="505.667969"/>
      <use xlink:href="#DejaVuSans-29" x="574.076172"/>
     </g>
    </g>
   </g>
   <g id="line2d_12">
    <path d="M 56.835852 272.236642 
L 60.731707 276.814125 
L 64.660027 265.027105 
L 68.555881 252.210151 
L 72.484201 269.604589 
L 76.380056 266.858099 
L 80.308376 243.398496 
L 84.20423 249.92141 
L 88.13255 261.250681 
L 92.028405 246.946046 
L 95.956725 255.643264 
L 99.85258 253.011211 
L 103.7809 242.139688 
L 107.676754 263.997171 
L 111.605074 259.076377 
L 115.500929 243.055185 
L 119.429249 245.458363 
L 123.325103 227.491741 
L 127.253423 238.706575 
L 131.149278 241.68194 
L 135.077598 206.092006 
L 138.973452 222.685383 
L 142.901772 216.505781 
L 146.797627 230.810416 
L 150.725947 217.993463 
L 154.621801 207.694125 
L 158.550121 219.481145 
L 162.445976 199.225781 
L 166.374296 207.579688 
L 170.27015 201.285648 
L 174.19847 202.086708 
L 178.094325 171.303132 
L 182.022645 189.84194 
L 185.9185 199.111344 
L 189.84682 174.736244 
L 193.742674 195.449357 
L 197.670994 176.338363 
L 201.566849 198.310284 
L 205.495169 188.354257 
L 209.391023 168.21333 
L 213.319343 159.1728 
L 217.215198 162.949224 
L 221.143518 163.52141 
L 225.039372 162.834787 
L 228.967692 173.591873 
L 232.863547 162.148165 
L 236.791867 156.42631 
L 240.687721 136.285383 
L 244.616041 141.663926 
L 248.511896 163.063661 
L 252.440216 136.39982 
L 256.33607 141.778363 
L 260.26439 142.350549 
L 264.160245 124.841675 
L 268.088565 117.288827 
L 271.98442 115.686708 
L 275.91274 133.195582 
L 279.808594 124.269489 
L 283.736914 114.199026 
L 287.632769 104.128562 
L 291.561089 117.97545 
L 295.456943 111.910284 
L 299.385263 119.692006 
L 303.281118 117.97545 
L 307.209438 92.227105 
L 311.105292 83.186575 
L 315.033612 96.804589 
L 318.929467 81.698893 
L 322.857787 86.276377 
L 326.753641 95.088032 
L 330.681961 80.783397 
L 334.577816 64.53333 
L 338.506136 79.8679 
L 342.40199 58.697039 
L 346.33031 103.899688 
L 350.226165 61.78684 
L 354.154485 67.394257 
L 358.05034 68.996377 
L 361.97866 61.78684 
L 365.874514 82.843264 
L 369.802834 59.84141 
L 373.698689 50.457569 
L 377.627009 34.894125 
L 381.490398 55.035052 
" clip-path="url(#p4c4857212a)" style="fill: none; stroke: #1f77b4; stroke-linecap: square"/>
   </g>
   <g id="line2d_13">
    <path d="M 56.835852 274.525383 
L 60.731707 274.525383 
L 64.660027 258.618628 
L 68.555881 258.618628 
L 72.484201 268.231344 
L 76.380056 268.231344 
L 80.308376 246.659953 
L 84.20423 246.659953 
L 88.13255 254.098363 
L 92.028405 254.098363 
L 95.956725 254.327238 
L 99.85258 254.327238 
L 103.7809 253.06843 
L 107.676754 253.06843 
L 111.605074 251.065781 
L 115.500929 251.065781 
L 119.429249 236.475052 
L 123.325103 236.475052 
L 127.253423 240.194257 
L 131.149278 240.194257 
L 135.077598 214.388695 
L 138.973452 214.388695 
L 142.901772 223.658099 
L 146.797627 223.658099 
L 150.725947 212.843794 
L 154.621801 212.843794 
L 158.550121 209.353463 
L 162.445976 209.353463 
L 166.374296 204.432668 
L 170.27015 204.432668 
L 174.19847 186.69492 
L 178.094325 186.69492 
L 182.022645 194.476642 
L 185.9185 194.476642 
L 189.84682 185.0928 
L 193.742674 185.0928 
L 197.670994 187.324324 
L 201.566849 187.324324 
L 205.495169 178.283794 
L 209.391023 178.283794 
L 213.319343 161.061012 
L 217.215198 161.061012 
L 221.143518 163.178099 
L 225.039372 163.178099 
L 228.967692 167.870019 
L 232.863547 167.870019 
L 236.791867 146.355847 
L 240.687721 146.355847 
L 244.616041 152.363794 
L 248.511896 152.363794 
L 252.440216 139.089092 
L 256.33607 139.089092 
L 260.26439 133.596112 
L 264.160245 133.596112 
L 268.088565 116.487767 
L 271.98442 116.487767 
L 275.91274 128.732536 
L 279.808594 128.732536 
L 283.736914 109.163794 
L 287.632769 109.163794 
L 291.561089 114.942867 
L 295.456943 114.942867 
L 299.385263 118.833728 
L 303.281118 118.833728 
L 307.209438 87.70684 
L 311.105292 87.70684 
L 315.033612 89.251741 
L 318.929467 89.251741 
L 322.857787 90.682204 
L 326.753641 90.682204 
L 330.681961 72.658363 
L 334.577816 72.658363 
L 338.506136 69.282469 
L 342.40199 69.282469 
L 346.33031 82.843264 
L 350.226165 82.843264 
L 354.154485 68.195317 
L 358.05034 68.195317 
L 361.97866 72.315052 
L 365.874514 72.315052 
L 369.802834 55.149489 
L 373.698689 55.149489 
L 377.627009 44.964589 
L 381.490398 44.964589 
" clip-path="url(#p4c4857212a)" style="fill: none; stroke: #ff7f0e; stroke-linecap: square"/>
   </g>
   <g id="line2d_14">
    <path d="M 56.835852 271.359291 
L 60.731707 271.359291 
L 64.660027 264.683794 
L 68.555881 262.280615 
L 72.484201 262.890946 
L 76.380056 259.953728 
L 80.308376 253.392668 
L 84.20423 251.523529 
L 88.13255 252.706046 
L 92.028405 254.61333 
L 95.956725 251.86684 
L 99.85258 250.264721 
L 103.7809 253.049357 
L 107.676754 255.071079 
L 111.605074 255.376244 
L 115.500929 249.196642 
L 119.429249 238.66843 
L 123.325103 237.218893 
L 127.253423 235.960085 
L 131.149278 228.82684 
L 135.077598 223.486443 
L 138.973452 215.09439 
L 142.901772 223.33386 
L 146.797627 221.769887 
L 150.725947 218.832668 
L 154.621801 215.056244 
L 158.550121 208.80035 
L 162.445976 208.762204 
L 166.374296 202.697039 
L 170.27015 203.650681 
L 174.19847 191.558496 
L 178.094325 187.743926 
L 182.022645 186.752138 
L 185.9185 187.896509 
L 189.84682 189.765648 
L 193.742674 182.174655 
L 197.670994 190.032668 
L 201.566849 187.667635 
L 205.495169 184.959291 
L 209.391023 171.913463 
L 213.319343 163.445118 
L 217.215198 161.881145 
L 221.143518 163.101807 
L 225.039372 166.649357 
L 228.967692 166.191608 
L 232.863547 164.05545 
L 236.791867 151.619953 
L 240.687721 144.791873 
L 244.616041 147.004324 
L 248.511896 147.042469 
L 252.440216 147.080615 
L 256.33607 140.176244 
L 260.26439 136.323529 
L 264.160245 128.16035 
L 268.088565 119.272403 
L 271.98442 122.057039 
L 275.91274 124.383926 
L 279.808594 123.888032 
L 283.736914 114.199026 
L 287.632769 112.101012 
L 291.561089 111.338099 
L 295.456943 116.525913 
L 299.385263 116.525913 
L 303.281118 109.964853 
L 307.209438 97.796377 
L 311.105292 90.739423 
L 315.033612 87.230019 
L 318.929467 88.259953 
L 322.857787 87.687767 
L 326.753641 87.382602 
L 330.681961 80.13492 
L 334.577816 75.061542 
L 338.506136 67.699423 
L 342.40199 80.821542 
L 346.33031 74.794522 
L 350.226165 77.693595 
L 354.154485 66.059158 
L 358.05034 66.059158 
L 361.97866 71.208827 
L 365.874514 68.157171 
L 369.802834 64.380748 
L 373.698689 48.397701 
L 377.627009 46.795582 
L 381.490398 46.795582 
" clip-path="url(#p4c4857212a)" style="fill: none; stroke: #2ca02c; stroke-linecap: square"/>
   </g>
   <g id="line2d_15">
    <path d="M 56.835852 266.572006 
L 60.731707 266.572006 
L 64.660027 266.572006 
L 68.555881 265.913993 
L 72.484201 258.017834 
L 76.380056 258.017834 
L 80.308376 257.445648 
L 84.20423 255.357171 
L 88.13255 250.379158 
L 92.028405 254.2128 
L 95.956725 249.435052 
L 99.85258 249.435052 
L 103.7809 253.697834 
L 107.676754 252.067105 
L 111.605074 252.896774 
L 115.500929 252.896774 
L 119.429249 243.770416 
L 123.325103 238.677966 
L 127.253423 238.334655 
L 131.149278 227.291476 
L 135.077598 221.741277 
L 138.973452 221.741277 
L 142.901772 219.023397 
L 146.797627 221.998761 
L 150.725947 218.250946 
L 154.621801 211.098628 
L 158.550121 211.098628 
L 162.445976 208.495185 
L 166.374296 206.893065 
L 170.27015 195.563794 
L 174.19847 191.129357 
L 178.094325 191.129357 
L 182.022645 190.585781 
L 185.9185 189.784721 
L 189.84682 186.408827 
L 193.742674 186.408827 
L 197.670994 189.613065 
L 201.566849 182.804059 
L 205.495169 182.804059 
L 209.391023 178.512668 
L 213.319343 163.464191 
L 217.215198 162.119555 
L 221.143518 165.724324 
L 225.039372 165.524059 
L 228.967692 165.524059 
L 232.863547 163.750284 
L 236.791867 149.130946 
L 240.687721 149.35982 
L 244.616041 149.35982 
L 248.511896 144.353198 
L 252.440216 145.898099 
L 256.33607 145.898099 
L 260.26439 136.342602 
L 264.160245 125.04194 
L 268.088565 125.04194 
L 271.98442 122.753198 
L 275.91274 121.837701 
L 279.808594 118.948165 
L 283.736914 118.948165 
L 287.632769 115.143132 
L 291.561089 113.426575 
L 295.456943 113.426575 
L 299.385263 116.888297 
L 303.281118 103.270284 
L 307.209438 103.270284 
L 311.105292 97.54843 
L 315.033612 88.479291 
L 318.929467 89.966973 
L 322.857787 85.961675 
L 326.753641 85.961675 
L 330.681961 81.670284 
L 334.577816 80.068165 
L 338.506136 70.970416 
L 342.40199 76.749489 
L 346.33031 76.062867 
L 350.226165 75.519291 
L 354.154485 75.519291 
L 358.05034 64.991079 
L 361.97866 70.255185 
L 365.874514 68.366973 
L 369.802834 57.009092 
L 373.698689 50.057039 
L 377.627009 50.057039 
L 381.490398 50.057039 
" clip-path="url(#p4c4857212a)" style="fill: none; stroke: #d62728; stroke-linecap: square"/>
   </g>
   <g id="line2d_16">
    <path d="M 56.835852 267.178522 
L 60.731707 267.178522 
L 64.660027 267.178522 
L 68.555881 266.102814 
L 72.484201 259.419688 
L 76.380056 256.398549 
L 80.308376 258.206655 
L 84.20423 253.674946 
L 88.13255 251.431979 
L 92.028405 253.354522 
L 95.956725 251.798178 
L 99.85258 252.347476 
L 103.7809 254.773542 
L 107.676754 252.255926 
L 111.605074 250.745357 
L 115.500929 247.815767 
L 119.429249 242.757648 
L 123.325103 239.278761 
L 127.253423 231.886125 
L 131.149278 227.331529 
L 135.077598 225.134337 
L 138.973452 223.555105 
L 142.901772 218.81741 
L 146.797627 219.137834 
L 150.725947 218.496986 
L 154.621801 215.040986 
L 158.550121 210.39484 
L 162.445976 207.053277 
L 166.374296 205.931794 
L 170.27015 196.296191 
L 174.19847 194.419423 
L 178.094325 192.725754 
L 182.022645 187.415873 
L 185.9185 186.088403 
L 189.84682 187.09545 
L 193.742674 188.789118 
L 197.670994 186.637701 
L 201.566849 185.333118 
L 205.495169 178.077807 
L 209.391023 175.399979 
L 213.319343 168.442204 
L 217.215198 163.33831 
L 221.143518 164.414019 
L 225.039372 165.009092 
L 228.967692 163.704509 
L 232.863547 158.257304 
L 236.791867 154.023132 
L 240.687721 151.917489 
L 244.616041 146.76782 
L 248.511896 143.838231 
L 252.440216 145.051264 
L 256.33607 141.686814 
L 260.26439 132.531847 
L 264.160245 128.389224 
L 268.088565 126.672668 
L 271.98442 123.056456 
L 275.91274 120.927926 
L 279.808594 118.295873 
L 283.736914 118.753622 
L 287.632769 114.496562 
L 291.561089 113.581065 
L 295.456943 114.33635 
L 299.385263 111.956059 
L 303.281118 104.998284 
L 307.209438 101.977145 
L 311.105292 94.378522 
L 315.033612 88.038708 
L 318.929467 88.610893 
L 322.857787 88.130257 
L 326.753641 81.676006 
L 330.681961 81.309807 
L 334.577816 75.79394 
L 338.506136 77.556271 
L 342.40199 73.756959 
L 346.33031 74.329145 
L 350.226165 72.15484 
L 354.154485 72.7728 
L 358.05034 68.561516 
L 361.97866 68.17243 
L 365.874514 64.785092 
L 369.802834 57.964642 
L 373.698689 56.614284 
L 377.627009 56.614284 
L 381.490398 56.614284 
" clip-path="url(#p4c4857212a)" style="fill: none; stroke: #9467bd; stroke-linecap: square"/>
   </g>
   <g id="line2d_17">
    <path d="M 56.835852 267.125118 
L 60.731707 267.125118 
L 64.660027 267.125118 
L 68.555881 267.125118 
L 72.484201 257.836642 
L 76.380056 257.836642 
L 80.308376 256.329887 
L 84.20423 256.329887 
L 88.13255 251.695185 
L 92.028405 251.695185 
L 95.956725 253.831344 
L 99.85258 253.831344 
L 103.7809 252.820483 
L 107.676754 252.820483 
L 111.605074 246.869754 
L 115.500929 246.869754 
L 119.429249 242.578363 
L 123.325103 242.578363 
L 127.253423 230.352668 
L 131.149278 230.352668 
L 135.077598 226.08035 
L 138.973452 226.08035 
L 142.901772 216.963529 
L 146.797627 216.963529 
L 150.725947 215.285118 
L 154.621801 215.285118 
L 158.550121 208.876642 
L 162.445976 208.876642 
L 166.374296 200.16035 
L 170.27015 200.16035 
L 174.19847 195.20141 
L 178.094325 195.20141 
L 182.022645 188.754787 
L 185.9185 188.754787 
L 189.84682 188.964589 
L 193.742674 188.964589 
L 197.670994 183.566973 
L 201.566849 183.566973 
L 205.495169 175.556377 
L 209.391023 175.556377 
L 213.319343 167.507635 
L 217.215198 167.507635 
L 221.143518 164.036377 
L 225.039372 164.036377 
L 228.967692 159.134655 
L 232.863547 159.134655 
L 236.791867 155.529887 
L 240.687721 155.529887 
L 244.616041 145.936244 
L 248.511896 145.936244 
L 252.440216 141.682999 
L 256.33607 141.682999 
L 260.26439 129.724324 
L 264.160245 129.724324 
L 268.088565 126.272138 
L 271.98442 126.272138 
L 275.91274 118.128032 
L 279.808594 118.128032 
L 283.736914 117.613065 
L 287.632769 117.613065 
L 291.561089 114.313463 
L 295.456943 114.313463 
L 299.385263 107.161145 
L 303.281118 107.161145 
L 307.209438 98.597436 
L 311.105292 98.597436 
L 315.033612 89.213595 
L 318.929467 89.213595 
L 322.857787 84.197436 
L 326.753641 84.197436 
L 330.681961 77.541012 
L 334.577816 77.541012 
L 338.506136 74.928032 
L 342.40199 74.928032 
L 346.33031 73.44035 
L 350.226165 73.44035 
L 354.154485 74.451211 
L 358.05034 74.451211 
L 361.97866 65.219953 
L 365.874514 65.219953 
L 369.802834 57.476377 
L 373.698689 57.476377 
L 377.627009 57.476377 
L 381.490398 57.476377 
" clip-path="url(#p4c4857212a)" style="fill: none; stroke: #8c564b; stroke-linecap: square"/>
   </g>
   <g id="line2d_18">
    <defs>
     <path id="mca25d91d87" d="M 0 1.5 
C 0.397805 1.5 0.77937 1.341951 1.06066 1.06066 
C 1.341951 0.77937 1.5 0.397805 1.5 0 
C 1.5 -0.397805 1.341951 -0.77937 1.06066 -1.06066 
C 0.77937 -1.341951 0.397805 -1.5 0 -1.5 
C -0.397805 -1.5 -0.77937 -1.341951 -1.06066 -1.06066 
C -1.341951 -0.77937 -1.5 -0.397805 -1.5 0 
C -1.5 0.397805 -1.341951 0.77937 -1.06066 1.06066 
C -0.77937 1.341951 -0.397805 1.5 0 1.5 
z
" style="stroke: #e377c2"/>
    </defs>
    <g clip-path="url(#p4c4857212a)">
     <use xlink:href="#mca25d91d87" x="56.835852" y="272.236642" style="fill: #e377c2; stroke: #e377c2"/>
     <use xlink:href="#mca25d91d87" x="60.731707" y="276.814125" style="fill: #e377c2; stroke: #e377c2"/>
     <use xlink:href="#mca25d91d87" x="64.660027" y="265.027105" style="fill: #e377c2; stroke: #e377c2"/>
     <use xlink:href="#mca25d91d87" x="68.555881" y="252.210151" style="fill: #e377c2; stroke: #e377c2"/>
     <use xlink:href="#mca25d91d87" x="72.484201" y="269.604589" style="fill: #e377c2; stroke: #e377c2"/>
     <use xlink:href="#mca25d91d87" x="76.380056" y="266.858099" style="fill: #e377c2; stroke: #e377c2"/>
     <use xlink:href="#mca25d91d87" x="80.308376" y="243.398496" style="fill: #e377c2; stroke: #e377c2"/>
     <use xlink:href="#mca25d91d87" x="84.20423" y="249.92141" style="fill: #e377c2; stroke: #e377c2"/>
     <use xlink:href="#mca25d91d87" x="88.13255" y="261.250681" style="fill: #e377c2; stroke: #e377c2"/>
     <use xlink:href="#mca25d91d87" x="92.028405" y="246.946046" style="fill: #e377c2; stroke: #e377c2"/>
     <use xlink:href="#mca25d91d87" x="95.956725" y="255.643264" style="fill: #e377c2; stroke: #e377c2"/>
     <use xlink:href="#mca25d91d87" x="99.85258" y="253.011211" style="fill: #e377c2; stroke: #e377c2"/>
     <use xlink:href="#mca25d91d87" x="103.7809" y="242.139688" style="fill: #e377c2; stroke: #e377c2"/>
     <use xlink:href="#mca25d91d87" x="107.676754" y="263.997171" style="fill: #e377c2; stroke: #e377c2"/>
     <use xlink:href="#mca25d91d87" x="111.605074" y="259.076377" style="fill: #e377c2; stroke: #e377c2"/>
     <use xlink:href="#mca25d91d87" x="115.500929" y="243.055185" style="fill: #e377c2; stroke: #e377c2"/>
     <use xlink:href="#mca25d91d87" x="119.429249" y="245.458363" style="fill: #e377c2; stroke: #e377c2"/>
     <use xlink:href="#mca25d91d87" x="123.325103" y="227.491741" style="fill: #e377c2; stroke: #e377c2"/>
     <use xlink:href="#mca25d91d87" x="127.253423" y="238.706575" style="fill: #e377c2; stroke: #e377c2"/>
     <use xlink:href="#mca25d91d87" x="131.149278" y="241.68194" style="fill: #e377c2; stroke: #e377c2"/>
     <use xlink:href="#mca25d91d87" x="135.077598" y="206.092006" style="fill: #e377c2; stroke: #e377c2"/>
     <use xlink:href="#mca25d91d87" x="138.973452" y="222.685383" style="fill: #e377c2; stroke: #e377c2"/>
     <use xlink:href="#mca25d91d87" x="142.901772" y="216.505781" style="fill: #e377c2; stroke: #e377c2"/>
     <use xlink:href="#mca25d91d87" x="146.797627" y="230.810416" style="fill: #e377c2; stroke: #e377c2"/>
     <use xlink:href="#mca25d91d87" x="150.725947" y="217.993463" style="fill: #e377c2; stroke: #e377c2"/>
     <use xlink:href="#mca25d91d87" x="154.621801" y="207.694125" style="fill: #e377c2; stroke: #e377c2"/>
     <use xlink:href="#mca25d91d87" x="158.550121" y="219.481145" style="fill: #e377c2; stroke: #e377c2"/>
     <use xlink:href="#mca25d91d87" x="162.445976" y="199.225781" style="fill: #e377c2; stroke: #e377c2"/>
     <use xlink:href="#mca25d91d87" x="166.374296" y="207.579688" style="fill: #e377c2; stroke: #e377c2"/>
     <use xlink:href="#mca25d91d87" x="170.27015" y="201.285648" style="fill: #e377c2; stroke: #e377c2"/>
     <use xlink:href="#mca25d91d87" x="174.19847" y="202.086708" style="fill: #e377c2; stroke: #e377c2"/>
     <use xlink:href="#mca25d91d87" x="178.094325" y="171.303132" style="fill: #e377c2; stroke: #e377c2"/>
     <use xlink:href="#mca25d91d87" x="182.022645" y="189.84194" style="fill: #e377c2; stroke: #e377c2"/>
     <use xlink:href="#mca25d91d87" x="185.9185" y="199.111344" style="fill: #e377c2; stroke: #e377c2"/>
     <use xlink:href="#mca25d91d87" x="189.84682" y="174.736244" style="fill: #e377c2; stroke: #e377c2"/>
     <use xlink:href="#mca25d91d87" x="193.742674" y="195.449357" style="fill: #e377c2; stroke: #e377c2"/>
     <use xlink:href="#mca25d91d87" x="197.670994" y="176.338363" style="fill: #e377c2; stroke: #e377c2"/>
     <use xlink:href="#mca25d91d87" x="201.566849" y="198.310284" style="fill: #e377c2; stroke: #e377c2"/>
     <use xlink:href="#mca25d91d87" x="205.495169" y="188.354257" style="fill: #e377c2; stroke: #e377c2"/>
     <use xlink:href="#mca25d91d87" x="209.391023" y="168.21333" style="fill: #e377c2; stroke: #e377c2"/>
     <use xlink:href="#mca25d91d87" x="213.319343" y="159.1728" style="fill: #e377c2; stroke: #e377c2"/>
     <use xlink:href="#mca25d91d87" x="217.215198" y="162.949224" style="fill: #e377c2; stroke: #e377c2"/>
     <use xlink:href="#mca25d91d87" x="221.143518" y="163.52141" style="fill: #e377c2; stroke: #e377c2"/>
     <use xlink:href="#mca25d91d87" x="225.039372" y="162.834787" style="fill: #e377c2; stroke: #e377c2"/>
     <use xlink:href="#mca25d91d87" x="228.967692" y="173.591873" style="fill: #e377c2; stroke: #e377c2"/>
     <use xlink:href="#mca25d91d87" x="232.863547" y="162.148165" style="fill: #e377c2; stroke: #e377c2"/>
     <use xlink:href="#mca25d91d87" x="236.791867" y="156.42631" style="fill: #e377c2; stroke: #e377c2"/>
     <use xlink:href="#mca25d91d87" x="240.687721" y="136.285383" style="fill: #e377c2; stroke: #e377c2"/>
     <use xlink:href="#mca25d91d87" x="244.616041" y="141.663926" style="fill: #e377c2; stroke: #e377c2"/>
     <use xlink:href="#mca25d91d87" x="248.511896" y="163.063661" style="fill: #e377c2; stroke: #e377c2"/>
     <use xlink:href="#mca25d91d87" x="252.440216" y="136.39982" style="fill: #e377c2; stroke: #e377c2"/>
     <use xlink:href="#mca25d91d87" x="256.33607" y="141.778363" style="fill: #e377c2; stroke: #e377c2"/>
     <use xlink:href="#mca25d91d87" x="260.26439" y="142.350549" style="fill: #e377c2; stroke: #e377c2"/>
     <use xlink:href="#mca25d91d87" x="264.160245" y="124.841675" style="fill: #e377c2; stroke: #e377c2"/>
     <use xlink:href="#mca25d91d87" x="268.088565" y="117.288827" style="fill: #e377c2; stroke: #e377c2"/>
     <use xlink:href="#mca25d91d87" x="271.98442" y="115.686708" style="fill: #e377c2; stroke: #e377c2"/>
     <use xlink:href="#mca25d91d87" x="275.91274" y="133.195582" style="fill: #e377c2; stroke: #e377c2"/>
     <use xlink:href="#mca25d91d87" x="279.808594" y="124.269489" style="fill: #e377c2; stroke: #e377c2"/>
     <use xlink:href="#mca25d91d87" x="283.736914" y="114.199026" style="fill: #e377c2; stroke: #e377c2"/>
     <use xlink:href="#mca25d91d87" x="287.632769" y="104.128562" style="fill: #e377c2; stroke: #e377c2"/>
     <use xlink:href="#mca25d91d87" x="291.561089" y="117.97545" style="fill: #e377c2; stroke: #e377c2"/>
     <use xlink:href="#mca25d91d87" x="295.456943" y="111.910284" style="fill: #e377c2; stroke: #e377c2"/>
     <use xlink:href="#mca25d91d87" x="299.385263" y="119.692006" style="fill: #e377c2; stroke: #e377c2"/>
     <use xlink:href="#mca25d91d87" x="303.281118" y="117.97545" style="fill: #e377c2; stroke: #e377c2"/>
     <use xlink:href="#mca25d91d87" x="307.209438" y="92.227105" style="fill: #e377c2; stroke: #e377c2"/>
     <use xlink:href="#mca25d91d87" x="311.105292" y="83.186575" style="fill: #e377c2; stroke: #e377c2"/>
     <use xlink:href="#mca25d91d87" x="315.033612" y="96.804589" style="fill: #e377c2; stroke: #e377c2"/>
     <use xlink:href="#mca25d91d87" x="318.929467" y="81.698893" style="fill: #e377c2; stroke: #e377c2"/>
     <use xlink:href="#mca25d91d87" x="322.857787" y="86.276377" style="fill: #e377c2; stroke: #e377c2"/>
     <use xlink:href="#mca25d91d87" x="326.753641" y="95.088032" style="fill: #e377c2; stroke: #e377c2"/>
     <use xlink:href="#mca25d91d87" x="330.681961" y="80.783397" style="fill: #e377c2; stroke: #e377c2"/>
     <use xlink:href="#mca25d91d87" x="334.577816" y="64.53333" style="fill: #e377c2; stroke: #e377c2"/>
     <use xlink:href="#mca25d91d87" x="338.506136" y="79.8679" style="fill: #e377c2; stroke: #e377c2"/>
     <use xlink:href="#mca25d91d87" x="342.40199" y="58.697039" style="fill: #e377c2; stroke: #e377c2"/>
     <use xlink:href="#mca25d91d87" x="346.33031" y="103.899688" style="fill: #e377c2; stroke: #e377c2"/>
     <use xlink:href="#mca25d91d87" x="350.226165" y="61.78684" style="fill: #e377c2; stroke: #e377c2"/>
     <use xlink:href="#mca25d91d87" x="354.154485" y="67.394257" style="fill: #e377c2; stroke: #e377c2"/>
     <use xlink:href="#mca25d91d87" x="358.05034" y="68.996377" style="fill: #e377c2; stroke: #e377c2"/>
     <use xlink:href="#mca25d91d87" x="361.97866" y="61.78684" style="fill: #e377c2; stroke: #e377c2"/>
     <use xlink:href="#mca25d91d87" x="365.874514" y="82.843264" style="fill: #e377c2; stroke: #e377c2"/>
     <use xlink:href="#mca25d91d87" x="369.802834" y="59.84141" style="fill: #e377c2; stroke: #e377c2"/>
     <use xlink:href="#mca25d91d87" x="373.698689" y="50.457569" style="fill: #e377c2; stroke: #e377c2"/>
     <use xlink:href="#mca25d91d87" x="377.627009" y="34.894125" style="fill: #e377c2; stroke: #e377c2"/>
     <use xlink:href="#mca25d91d87" x="381.490398" y="55.035052" style="fill: #e377c2; stroke: #e377c2"/>
    </g>
   </g>
   <g id="patch_3">
    <path d="M 40.603125 288.910125 
L 40.603125 22.798125 
" style="fill: none; stroke: #000000; stroke-width: 0.8; stroke-linejoin: miter; stroke-linecap: square"/>
   </g>
   <g id="patch_4">
    <path d="M 397.723125 288.910125 
L 397.723125 22.798125 
" style="fill: none; stroke: #000000; stroke-width: 0.8; stroke-linejoin: miter; stroke-linecap: square"/>
   </g>
   <g id="patch_5">
    <path d="M 40.603125 288.910125 
L 397.723125 288.910125 
" style="fill: none; stroke: #000000; stroke-width: 0.8; stroke-linejoin: miter; stroke-linecap: square"/>
   </g>
   <g id="patch_6">
    <path d="M 40.603125 22.798125 
L 397.723125 22.798125 
" style="fill: none; stroke: #000000; stroke-width: 0.8; stroke-linejoin: miter; stroke-linecap: square"/>
   </g>
   <g id="text_14">
    <!-- Testes de modelo KNN para vários valores de n -->
    <g transform="translate(77.701875 16.798125) scale(0.12 -0.12)">
     <defs>
      <path id="DejaVuSans-64" d="M 2906 2969 
L 2906 4863 
L 3481 4863 
L 3481 0 
L 2906 0 
L 2906 525 
Q 2725 213 2448 61 
Q 2172 -91 1784 -91 
Q 1150 -91 751 415 
Q 353 922 353 1747 
Q 353 2572 751 3078 
Q 1150 3584 1784 3584 
Q 2172 3584 2448 3432 
Q 2725 3281 2906 2969 
z
M 947 1747 
Q 947 1113 1208 752 
Q 1469 391 1925 391 
Q 2381 391 2643 752 
Q 2906 1113 2906 1747 
Q 2906 2381 2643 2742 
Q 2381 3103 1925 3103 
Q 1469 3103 1208 2742 
Q 947 2381 947 1747 
z
" transform="scale(0.015625)"/>
      <path id="DejaVuSans-6d" d="M 3328 2828 
Q 3544 3216 3844 3400 
Q 4144 3584 4550 3584 
Q 5097 3584 5394 3201 
Q 5691 2819 5691 2113 
L 5691 0 
L 5113 0 
L 5113 2094 
Q 5113 2597 4934 2840 
Q 4756 3084 4391 3084 
Q 3944 3084 3684 2787 
Q 3425 2491 3425 1978 
L 3425 0 
L 2847 0 
L 2847 2094 
Q 2847 2600 2669 2842 
Q 2491 3084 2119 3084 
Q 1678 3084 1418 2786 
Q 1159 2488 1159 1978 
L 1159 0 
L 581 0 
L 581 3500 
L 1159 3500 
L 1159 2956 
Q 1356 3278 1631 3431 
Q 1906 3584 2284 3584 
Q 2666 3584 2933 3390 
Q 3200 3197 3328 2828 
z
" transform="scale(0.015625)"/>
      <path id="DejaVuSans-6c" d="M 603 4863 
L 1178 4863 
L 1178 0 
L 603 0 
L 603 4863 
z
" transform="scale(0.015625)"/>
      <path id="DejaVuSans-4b" d="M 628 4666 
L 1259 4666 
L 1259 2694 
L 3353 4666 
L 4166 4666 
L 1850 2491 
L 4331 0 
L 3500 0 
L 1259 2247 
L 1259 0 
L 628 0 
L 628 4666 
z
" transform="scale(0.015625)"/>
      <path id="DejaVuSans-4e" d="M 628 4666 
L 1478 4666 
L 3547 763 
L 3547 4666 
L 4159 4666 
L 4159 0 
L 3309 0 
L 1241 3903 
L 1241 0 
L 628 0 
L 628 4666 
z
" transform="scale(0.015625)"/>
      <path id="DejaVuSans-70" d="M 1159 525 
L 1159 -1331 
L 581 -1331 
L 581 3500 
L 1159 3500 
L 1159 2969 
Q 1341 3281 1617 3432 
Q 1894 3584 2278 3584 
Q 2916 3584 3314 3078 
Q 3713 2572 3713 1747 
Q 3713 922 3314 415 
Q 2916 -91 2278 -91 
Q 1894 -91 1617 61 
Q 1341 213 1159 525 
z
M 3116 1747 
Q 3116 2381 2855 2742 
Q 2594 3103 2138 3103 
Q 1681 3103 1420 2742 
Q 1159 2381 1159 1747 
Q 1159 1113 1420 752 
Q 1681 391 2138 391 
Q 2594 391 2855 752 
Q 3116 1113 3116 1747 
z
" transform="scale(0.015625)"/>
      <path id="DejaVuSans-61" d="M 2194 1759 
Q 1497 1759 1228 1600 
Q 959 1441 959 1056 
Q 959 750 1161 570 
Q 1363 391 1709 391 
Q 2188 391 2477 730 
Q 2766 1069 2766 1631 
L 2766 1759 
L 2194 1759 
z
M 3341 1997 
L 3341 0 
L 2766 0 
L 2766 531 
Q 2569 213 2275 61 
Q 1981 -91 1556 -91 
Q 1019 -91 701 211 
Q 384 513 384 1019 
Q 384 1609 779 1909 
Q 1175 2209 1959 2209 
L 2766 2209 
L 2766 2266 
Q 2766 2663 2505 2880 
Q 2244 3097 1772 3097 
Q 1472 3097 1187 3025 
Q 903 2953 641 2809 
L 641 3341 
Q 956 3463 1253 3523 
Q 1550 3584 1831 3584 
Q 2591 3584 2966 3190 
Q 3341 2797 3341 1997 
z
" transform="scale(0.015625)"/>
      <path id="DejaVuSans-76" d="M 191 3500 
L 800 3500 
L 1894 563 
L 2988 3500 
L 3597 3500 
L 2284 0 
L 1503 0 
L 191 3500 
z
" transform="scale(0.015625)"/>
      <path id="DejaVuSans-e1" d="M 2194 1759 
Q 1497 1759 1228 1600 
Q 959 1441 959 1056 
Q 959 750 1161 570 
Q 1363 391 1709 391 
Q 2188 391 2477 730 
Q 2766 1069 2766 1631 
L 2766 1759 
L 2194 1759 
z
M 3341 1997 
L 3341 0 
L 2766 0 
L 2766 531 
Q 2569 213 2275 61 
Q 1981 -91 1556 -91 
Q 1019 -91 701 211 
Q 384 513 384 1019 
Q 384 1609 779 1909 
Q 1175 2209 1959 2209 
L 2766 2209 
L 2766 2266 
Q 2766 2663 2505 2880 
Q 2244 3097 1772 3097 
Q 1472 3097 1187 3025 
Q 903 2953 641 2809 
L 641 3341 
Q 956 3463 1253 3523 
Q 1550 3584 1831 3584 
Q 2591 3584 2966 3190 
Q 3341 2797 3341 1997 
z
M 2290 5119 
L 2912 5119 
L 1894 3944 
L 1415 3944 
L 2290 5119 
z
" transform="scale(0.015625)"/>
      <path id="DejaVuSans-69" d="M 603 3500 
L 1178 3500 
L 1178 0 
L 603 0 
L 603 3500 
z
M 603 4863 
L 1178 4863 
L 1178 4134 
L 603 4134 
L 603 4863 
z
" transform="scale(0.015625)"/>
     </defs>
     <use xlink:href="#DejaVuSans-54"/>
     <use xlink:href="#DejaVuSans-65" x="44.083984"/>
     <use xlink:href="#DejaVuSans-73" x="105.607422"/>
     <use xlink:href="#DejaVuSans-74" x="157.707031"/>
     <use xlink:href="#DejaVuSans-65" x="196.916016"/>
     <use xlink:href="#DejaVuSans-73" x="258.439453"/>
     <use xlink:href="#DejaVuSans-20" x="310.539062"/>
     <use xlink:href="#DejaVuSans-64" x="342.326172"/>
     <use xlink:href="#DejaVuSans-65" x="405.802734"/>
     <use xlink:href="#DejaVuSans-20" x="467.326172"/>
     <use xlink:href="#DejaVuSans-6d" x="499.113281"/>
     <use xlink:href="#DejaVuSans-6f" x="596.525391"/>
     <use xlink:href="#DejaVuSans-64" x="657.707031"/>
     <use xlink:href="#DejaVuSans-65" x="721.183594"/>
     <use xlink:href="#DejaVuSans-6c" x="782.707031"/>
     <use xlink:href="#DejaVuSans-6f" x="810.490234"/>
     <use xlink:href="#DejaVuSans-20" x="871.671875"/>
     <use xlink:href="#DejaVuSans-4b" x="903.458984"/>
     <use xlink:href="#DejaVuSans-4e" x="969.035156"/>
     <use xlink:href="#DejaVuSans-4e" x="1043.839844"/>
     <use xlink:href="#DejaVuSans-20" x="1118.644531"/>
     <use xlink:href="#DejaVuSans-70" x="1150.431641"/>
     <use xlink:href="#DejaVuSans-61" x="1213.908203"/>
     <use xlink:href="#DejaVuSans-72" x="1275.1875"/>
     <use xlink:href="#DejaVuSans-61" x="1316.300781"/>
     <use xlink:href="#DejaVuSans-20" x="1377.580078"/>
     <use xlink:href="#DejaVuSans-76" x="1409.367188"/>
     <use xlink:href="#DejaVuSans-e1" x="1468.546875"/>
     <use xlink:href="#DejaVuSans-72" x="1529.826172"/>
     <use xlink:href="#DejaVuSans-69" x="1570.939453"/>
     <use xlink:href="#DejaVuSans-6f" x="1598.722656"/>
     <use xlink:href="#DejaVuSans-73" x="1659.904297"/>
     <use xlink:href="#DejaVuSans-20" x="1712.003906"/>
     <use xlink:href="#DejaVuSans-76" x="1743.791016"/>
     <use xlink:href="#DejaVuSans-61" x="1802.970703"/>
     <use xlink:href="#DejaVuSans-6c" x="1864.25"/>
     <use xlink:href="#DejaVuSans-6f" x="1892.033203"/>
     <use xlink:href="#DejaVuSans-72" x="1953.214844"/>
     <use xlink:href="#DejaVuSans-65" x="1992.078125"/>
     <use xlink:href="#DejaVuSans-73" x="2053.601562"/>
     <use xlink:href="#DejaVuSans-20" x="2105.701172"/>
     <use xlink:href="#DejaVuSans-64" x="2137.488281"/>
     <use xlink:href="#DejaVuSans-65" x="2200.964844"/>
     <use xlink:href="#DejaVuSans-20" x="2262.488281"/>
     <use xlink:href="#DejaVuSans-6e" x="2294.275391"/>
    </g>
   </g>
   <g id="legend_1">
    <g id="patch_7">
     <path d="M 47.603125 133.715312 
L 129.423438 133.715312 
Q 131.423438 133.715312 131.423438 131.715312 
L 131.423438 29.798125 
Q 131.423438 27.798125 129.423438 27.798125 
L 47.603125 27.798125 
Q 45.603125 27.798125 45.603125 29.798125 
L 45.603125 131.715312 
Q 45.603125 133.715312 47.603125 133.715312 
z
" style="fill: #ffffff; opacity: 0.8; stroke: #cccccc; stroke-linejoin: miter"/>
    </g>
    <g id="line2d_19">
     <path d="M 49.603125 35.896562 
L 59.603125 35.896562 
L 69.603125 35.896562 
" style="fill: none; stroke: #1f77b4; stroke-linecap: square"/>
    </g>
    <g id="text_15">
     <!-- n =1 -->
     <g transform="translate(77.603125 39.396562) scale(0.1 -0.1)">
      <defs>
       <path id="DejaVuSans-3d" d="M 678 2906 
L 4684 2906 
L 4684 2381 
L 678 2381 
L 678 2906 
z
M 678 1631 
L 4684 1631 
L 4684 1100 
L 678 1100 
L 678 1631 
z
" transform="scale(0.015625)"/>
      </defs>
      <use xlink:href="#DejaVuSans-6e"/>
      <use xlink:href="#DejaVuSans-20" x="63.378906"/>
      <use xlink:href="#DejaVuSans-3d" x="95.166016"/>
      <use xlink:href="#DejaVuSans-31" x="178.955078"/>
     </g>
    </g>
    <g id="line2d_20">
     <path d="M 49.603125 50.574687 
L 59.603125 50.574687 
L 69.603125 50.574687 
" style="fill: none; stroke: #ff7f0e; stroke-linecap: square"/>
    </g>
    <g id="text_16">
     <!-- n =2 -->
     <g transform="translate(77.603125 54.074687) scale(0.1 -0.1)">
      <use xlink:href="#DejaVuSans-6e"/>
      <use xlink:href="#DejaVuSans-20" x="63.378906"/>
      <use xlink:href="#DejaVuSans-3d" x="95.166016"/>
      <use xlink:href="#DejaVuSans-32" x="178.955078"/>
     </g>
    </g>
    <g id="line2d_21">
     <path d="M 49.603125 65.252812 
L 59.603125 65.252812 
L 69.603125 65.252812 
" style="fill: none; stroke: #2ca02c; stroke-linecap: square"/>
    </g>
    <g id="text_17">
     <!-- n =3 -->
     <g transform="translate(77.603125 68.752812) scale(0.1 -0.1)">
      <defs>
       <path id="DejaVuSans-33" d="M 2597 2516 
Q 3050 2419 3304 2112 
Q 3559 1806 3559 1356 
Q 3559 666 3084 287 
Q 2609 -91 1734 -91 
Q 1441 -91 1130 -33 
Q 819 25 488 141 
L 488 750 
Q 750 597 1062 519 
Q 1375 441 1716 441 
Q 2309 441 2620 675 
Q 2931 909 2931 1356 
Q 2931 1769 2642 2001 
Q 2353 2234 1838 2234 
L 1294 2234 
L 1294 2753 
L 1863 2753 
Q 2328 2753 2575 2939 
Q 2822 3125 2822 3475 
Q 2822 3834 2567 4026 
Q 2313 4219 1838 4219 
Q 1578 4219 1281 4162 
Q 984 4106 628 3988 
L 628 4550 
Q 988 4650 1302 4700 
Q 1616 4750 1894 4750 
Q 2613 4750 3031 4423 
Q 3450 4097 3450 3541 
Q 3450 3153 3228 2886 
Q 3006 2619 2597 2516 
z
" transform="scale(0.015625)"/>
      </defs>
      <use xlink:href="#DejaVuSans-6e"/>
      <use xlink:href="#DejaVuSans-20" x="63.378906"/>
      <use xlink:href="#DejaVuSans-3d" x="95.166016"/>
      <use xlink:href="#DejaVuSans-33" x="178.955078"/>
     </g>
    </g>
    <g id="line2d_22">
     <path d="M 49.603125 79.930937 
L 59.603125 79.930937 
L 69.603125 79.930937 
" style="fill: none; stroke: #d62728; stroke-linecap: square"/>
    </g>
    <g id="text_18">
     <!-- n =4 -->
     <g transform="translate(77.603125 83.430937) scale(0.1 -0.1)">
      <use xlink:href="#DejaVuSans-6e"/>
      <use xlink:href="#DejaVuSans-20" x="63.378906"/>
      <use xlink:href="#DejaVuSans-3d" x="95.166016"/>
      <use xlink:href="#DejaVuSans-34" x="178.955078"/>
     </g>
    </g>
    <g id="line2d_23">
     <path d="M 49.603125 94.609062 
L 59.603125 94.609062 
L 69.603125 94.609062 
" style="fill: none; stroke: #9467bd; stroke-linecap: square"/>
    </g>
    <g id="text_19">
     <!-- n =5 -->
     <g transform="translate(77.603125 98.109062) scale(0.1 -0.1)">
      <use xlink:href="#DejaVuSans-6e"/>
      <use xlink:href="#DejaVuSans-20" x="63.378906"/>
      <use xlink:href="#DejaVuSans-3d" x="95.166016"/>
      <use xlink:href="#DejaVuSans-35" x="178.955078"/>
     </g>
    </g>
    <g id="line2d_24">
     <path d="M 49.603125 109.287187 
L 59.603125 109.287187 
L 69.603125 109.287187 
" style="fill: none; stroke: #8c564b; stroke-linecap: square"/>
    </g>
    <g id="text_20">
     <!-- n =6 -->
     <g transform="translate(77.603125 112.787187) scale(0.1 -0.1)">
      <use xlink:href="#DejaVuSans-6e"/>
      <use xlink:href="#DejaVuSans-20" x="63.378906"/>
      <use xlink:href="#DejaVuSans-3d" x="95.166016"/>
      <use xlink:href="#DejaVuSans-36" x="178.955078"/>
     </g>
    </g>
    <g id="line2d_25">
     <g>
      <use xlink:href="#mca25d91d87" x="59.603125" y="124.135625" style="fill: #e377c2; stroke: #e377c2"/>
     </g>
    </g>
    <g id="text_21">
     <!-- Disperção -->
     <g transform="translate(77.603125 127.635625) scale(0.1 -0.1)">
      <defs>
       <path id="DejaVuSans-44" d="M 1259 4147 
L 1259 519 
L 2022 519 
Q 2988 519 3436 956 
Q 3884 1394 3884 2338 
Q 3884 3275 3436 3711 
Q 2988 4147 2022 4147 
L 1259 4147 
z
M 628 4666 
L 1925 4666 
Q 3281 4666 3915 4102 
Q 4550 3538 4550 2338 
Q 4550 1131 3912 565 
Q 3275 0 1925 0 
L 628 0 
L 628 4666 
z
" transform="scale(0.015625)"/>
       <path id="DejaVuSans-e7" d="M 3122 3366 
L 3122 2828 
Q 2878 2963 2633 3030 
Q 2388 3097 2138 3097 
Q 1578 3097 1268 2742 
Q 959 2388 959 1747 
Q 959 1106 1268 751 
Q 1578 397 2138 397 
Q 2388 397 2633 464 
Q 2878 531 3122 666 
L 3122 134 
Q 2881 22 2623 -34 
Q 2366 -91 2075 -91 
Q 1284 -91 818 406 
Q 353 903 353 1747 
Q 353 2603 823 3093 
Q 1294 3584 2113 3584 
Q 2378 3584 2631 3529 
Q 2884 3475 3122 3366 
z
M 2311 0 
Q 2482 -194 2566 -358 
Q 2651 -522 2651 -672 
Q 2651 -950 2463 -1092 
Q 2276 -1234 1907 -1234 
Q 1764 -1234 1628 -1215 
Q 1492 -1197 1357 -1159 
L 1357 -750 
Q 1464 -803 1579 -826 
Q 1695 -850 1842 -850 
Q 2026 -850 2120 -775 
Q 2214 -700 2214 -556 
Q 2214 -463 2146 -327 
Q 2079 -191 1939 0 
L 2311 0 
z
" transform="scale(0.015625)"/>
      </defs>
      <use xlink:href="#DejaVuSans-44"/>
      <use xlink:href="#DejaVuSans-69" x="77.001953"/>
      <use xlink:href="#DejaVuSans-73" x="104.785156"/>
      <use xlink:href="#DejaVuSans-70" x="156.884766"/>
      <use xlink:href="#DejaVuSans-65" x="220.361328"/>
      <use xlink:href="#DejaVuSans-72" x="281.884766"/>
      <use xlink:href="#DejaVuSans-e7" x="320.748047"/>
      <use xlink:href="#DejaVuSans-e3" x="375.728516"/>
      <use xlink:href="#DejaVuSans-6f" x="437.007812"/>
     </g>
    </g>
   </g>
  </g>
 </g>
 <defs>
  <clipPath id="p4c4857212a">
   <rect x="40.603125" y="22.798125" width="357.12" height="266.112"/>
  </clipPath>
 </defs>
</svg>
